<?xml version="1.0" encoding="UTF-8"?>
<svg id="_图层_1" data-name="图层 1" xmlns="http://www.w3.org/2000/svg" xmlns:xlink="http://www.w3.org/1999/xlink" viewBox="0 0 500 500">
  <defs>
    <clipPath id="clippath">
      <polygon points="341.99 452.29 384.82 528.51 461.2 447.65 380.8 395.54 335.78 433.41 341.99 452.29" fill="none"/>
    </clipPath>
  </defs>
  <g id="_不演了" data-name="不演了">
    <g>
      <g>
        <g>
          <path d="M168.24,593.84c-26.4,0-47.23-2.27-57.29-3.63-7.53-1.01-13.97-2.17-18.63-3.35-6.19-1.56-9.94-3.18-10.78-6.82-.32-1.39-.6-4.48-.75-8.89-.38,4.46-.79,7.4-1.38,9.17-1.82,5.54-9.34,5.57-12.24,5.57h-.05c-9.12,0-22.67-2.6-32.3-5.04-22.44-5.67-23.11-9.44-23.55-11.94-.88-4.94-2.4-35.73,6.19-96.09,0-.05,.01-.09,.02-.14,8.2-48.05,27.39-75.14,42.04-89.4,9.29-9.05,17.98-14.26,23.82-17.1-5.61-8.61-12.18-28.19-11.58-72.54v-.37c-.7-43.56-1.01-63.44,26.13-83.66,.06-.04,.12-.09,.18-.13,11.54-7.84,52.46-14.21,91.21-14.21,27.85,0,76.78,3.45,91.58,26.58,7.64,12.03,7.67,35.22,7.73,70.33,0,4.89,.02,10.01,.05,15.35,.15,34.13-6.08,50.21-11.56,57.75,8.77,4.01,23.11,12.07,32.21,24.98,7.08,10.04,11.95,29.24,16.25,46.18,2.94,11.59,6.97,27.48,9.81,29.78,.79,.51,2.86,1.42,7.35,1.42,3.72,0,7.56-.63,10.75-1.42-1.24-.95-2.41-2.2-3.35-3.85-2.76-4.85-2.7-11.78,.2-21.17,.02-.05,.03-.1,.05-.15,5.38-15.64,18.31-25.36,33.74-25.36,18.06,0,34.12,13.08,40.93,33.33,4.54,13.55,1.72,27.95-8.14,41.64-19.2,26.67-60.09,44.58-86.24,44.58-.56,0-1.13,0-1.68-.02-22.79-.66-34.9-11.52-41.17-21.11,1.63,33.65,2.23,51.75-1.05,59.11-.86,1.93-2.65,5.96-35.03,12.35-12.46,2.46-37.67,6.76-66.44,7.94-5.52,.23-11.24,.34-17.02,.34Z" fill="#757575"/>
          <path d="M189.26,200.28c37.87,0,75.77,6.15,87.37,24.28,7.84,12.34,6.76,40.56,6.99,83.01,.23,53.81-15.72,59.4-15.72,59.4,0,0,24.54,8.09,37.29,26.18,12.76,18.09,18.55,71.51,27.37,77.23,2.5,1.62,6.15,2.26,10.12,2.26,10.03,0,22.03-4.07,22.12-6.55,.12-3.45-17.6,2.06-9.74-23.42,5.03-14.62,16.69-21.98,29.01-21.98,14.29,0,29.47,9.91,36.19,29.92,13.73,41.03-51.94,79.64-89.64,79.64-.52,0-1.03,0-1.54-.02-37.42-1.08-42.71-31.63-42.71-31.63,0,0,.6-74.83-5.28-74.83-.07,0-.14,.01-.21,.03-5.57,1.39-.75,32.48,.77,67.03,1.74,39.47,4.21,72.03,.49,80.38-1.83,4.11-49.61,15.37-97.1,17.32-5.63,.23-11.26,.34-16.81,.34-42.73,0-80.99-6.25-81.84-9.92-1-4.33-1.77-35.67,2.94-70.51,4.18-30.93,14.03-65.92,11.62-67.7-.32-.24-.65-.35-.98-.35-5.04,0-11.78,25.94-17.29,55.37-5.88,31.39-5.69,75.89-8.04,83.03-.5,1.51-3.34,2.13-7.54,2.13-15.69,0-50.2-8.74-50.93-12.85-.93-5.22-2.03-36.54,6.22-94.51,15.44-90.44,69.62-105.49,69.62-105.49,0,0-16.2-5.75-15.28-74.4-.7-43.83-1.06-61.26,24.12-80.01,9.93-6.74,49.15-13.35,88.4-13.35m0-10c-35.3,0-80.12,5.64-94.02,15.08-.12,.08-.24,.17-.35,.25-29.2,21.75-28.85,43.81-28.15,87.76v.29c-.39,29.7,2.3,52.1,7.99,66.58,.56,1.42,1.13,2.72,1.71,3.92-18.67,10.59-52.13,38.74-63.9,107.68-.02,.09-.03,.18-.04,.27-7.9,55.53-7.56,89.78-6.16,97.67,1.25,7.01,8.42,9.81,12.27,11.31,3.9,1.52,9.08,3.11,14.98,4.6,9.92,2.51,23.94,5.19,33.53,5.19,2.57,0,9.03,0,13.42-3.63,3.19,2.59,7.53,3.69,10.57,4.45,4.84,1.22,11.48,2.41,19.19,3.45,10.19,1.37,31.27,3.67,57.96,3.67,5.84,0,11.63-.12,17.22-.34,29.11-1.19,54.6-5.54,67.2-8.03,9.09-1.79,17.09-3.71,23.13-5.55,8.39-2.55,13.35-4.85,15.5-9.67,3.2-7.2,3.25-21.17,2.13-47.26,7.61,6.28,18.92,11.74,35.37,12.22,.6,.02,1.21,.03,1.83,.03,14.22,0,31.94-4.78,48.61-13.12,17.68-8.84,32.49-20.76,41.69-33.54,10.84-15.05,13.89-31.01,8.82-46.15-7.5-22.33-25.43-36.75-45.67-36.75-17.63,0-32.37,11.01-38.47,28.73-.04,.1-.07,.2-.1,.31-2.93,9.51-3.22,17.02-.86,22.85-.65,.04-1.31,.06-1.96,.06-2.06,0-3.4-.24-4.12-.44-2.38-4.08-5.99-18.29-8.19-26.98-4.62-18.21-9.4-37.03-17-47.83-8.13-11.52-20.09-19.41-29.24-24.19,5.13-9.82,9.62-26.7,9.5-55.67-.03-5.35-.04-10.46-.05-15.35-.06-37.25-.1-59.74-8.5-72.98-15.3-23.9-60.55-28.91-95.81-28.91h0Z" fill="#171717"/>
        </g>
        <path d="M147.4,423.9c2.36,1.45,3.09,4.52,1.64,6.88l-3.08,5.02,5.03,3.09c2.35,1.44,3.09,4.53,1.64,6.88s-4.53,3.09-6.88,1.64l-5.03-3.09-3.09,5.03c-1.44,2.35-4.52,3.09-6.88,1.64s-3.09-4.53-1.64-6.88l3.09-5.03-5.02-3.08c-2.35-1.44-3.09-4.53-1.64-6.88s4.53-3.09,6.88-1.64l5.02,3.08,3.08-5.02c1.45-2.36,4.53-3.09,6.88-1.64Z" fill="#f7f7f7"/>
        <path d="M254.93,429.11c1.45,2.36,.72,5.43-1.63,6.88l-5.01,3.09,3.09,5.02c1.45,2.35,.72,5.43-1.63,6.88s-5.43,.72-6.88-1.63l-3.09-5.02-5.02,3.09c-2.35,1.45-5.43,.72-6.88-1.63-1.45-2.35-.72-5.43,1.63-6.88l5.02-3.09-3.09-5.01c-1.45-2.35-.72-5.43,1.63-6.88s5.43-.72,6.88,1.63l3.09,5.01,5.01-3.09c2.36-1.45,5.43-.72,6.88,1.63Z" fill="#f7f7f7"/>
      </g>
      <g>
        <polygon points="297.31 357.27 277.57 354.74 258.18 361.8 76.2 360.29 72.92 341.42 65.03 328.9 68.16 310.23 65.03 254.09 75.18 240.97 77.51 231.67 66 214.43 71.24 188.73 273.11 187.26 296.23 208.99 288.07 246.38 297.31 271.49 297.31 357.27" fill="#dbb38d" stroke="#171717" stroke-linecap="round" stroke-linejoin="round" stroke-width="10"/>
        <g>
          <path d="M109.66,255.45l-24.4,9.28,24.4,9.28v7.91l-30.02-12.23v-9.93l30.02-12.23v7.91Z" fill="#171717"/>
          <g>
            <path d="M164.63,223.39v64.25h-14.79l-.93-5.5c-.45,.96-1,1.82-1.65,2.58-.65,.76-1.48,1.42-2.49,1.99-1.01,.56-2.27,1-3.76,1.31-1.49,.31-3.26,.47-5.28,.47-3.61,0-6.57-.54-8.88-1.61-2.31-1.07-4.12-2.62-5.41-4.65-1.3-2.03-2.2-4.51-2.71-7.44-.51-2.93-.76-6.26-.76-9.98,0-3.32,.25-6.44,.76-9.34,.51-2.9,1.41-5.41,2.71-7.52,1.3-2.11,3.1-3.78,5.41-4.99,2.31-1.21,5.27-1.82,8.88-1.82,3.94,0,6.89,.49,8.83,1.48,1.94,.99,3.34,2.3,4.19,3.93v-23.16h15.89Zm-22.91,53.43c3.21,0,5.31-1,6.3-3,.99-2,1.48-5,1.48-9,0-1.86-.11-3.54-.34-5.03-.23-1.49-.62-2.76-1.18-3.8-.56-1.04-1.35-1.86-2.37-2.45s-2.31-.89-3.89-.89-2.95,.31-3.93,.93c-.99,.62-1.75,1.47-2.28,2.54-.54,1.07-.89,2.35-1.06,3.85-.17,1.49-.25,3.11-.25,4.86,0,1.86,.08,3.54,.25,5.03,.17,1.49,.52,2.75,1.06,3.76,.53,1.01,1.3,1.8,2.28,2.37,.99,.56,2.3,.85,3.93,.85Z" fill="#171717"/>
            <path d="M182.38,237.25c-1.86,0-3.35-.08-4.48-.25-1.13-.17-2-.52-2.62-1.06-.62-.54-1.04-1.35-1.27-2.45-.23-1.1-.34-2.58-.34-4.44s.11-3.31,.34-4.35c.22-1.04,.65-1.83,1.27-2.37,.62-.54,1.49-.87,2.62-1.01,1.13-.14,2.62-.21,4.48-.21s3.35,.07,4.48,.21c1.13,.14,2.01,.48,2.66,1.01,.65,.54,1.07,1.33,1.27,2.37,.2,1.04,.3,2.49,.3,4.35s-.1,3.34-.3,4.44c-.2,1.1-.62,1.92-1.27,2.45-.65,.54-1.54,.89-2.66,1.06-1.13,.17-2.62,.25-4.48,.25Zm-8.03,4.73h16.06v45.65h-16.06v-45.65Z" fill="#171717"/>
            <path d="M195.15,241.99h18.35l7.52,28.66h.51l8.54-28.66h17.33l-16.4,45.65h-19.78l-16.06-45.65Z" fill="#171717"/>
          </g>
          <path d="M282.69,260.15v9.93l-30.02,12.23v-7.91l24.4-9.28-24.4-9.28v-7.91l30.02,12.23Z" fill="#171717"/>
        </g>
      </g>
      <g>
        <polygon points="213.11 320.47 273.57 375.64 282.95 394.02 340.74 447.85 370.42 467.84 418.43 439.83 424.59 419.41 447.71 391.86 477.47 373.81 484.45 345.11 355.62 232.29 324.57 194.17 285.84 235.75 267.64 269.92 245.54 283.43 213.11 320.47" fill="#f7f7f7" stroke="#171717" stroke-linecap="round" stroke-linejoin="round" stroke-width="10"/>
        <g>
          <path d="M337.38,294.42l-29.25-11.9,13.95,28.33-6.53,7.01-16.5-35.58,8.19-8.79,36.66,13.93-6.53,7.01Z" fill="#171717"/>
          <path d="M383.76,312.39c3.19,2.97,5.36,5.88,6.5,8.71,1.14,2.83,1.44,5.68,.92,8.54-.53,2.87-1.77,5.81-3.74,8.82-1.97,3.01-4.49,6.17-7.55,9.46-2.79,2.99-5.59,5.55-8.41,7.68-2.82,2.13-5.67,3.59-8.56,4.39-2.89,.8-5.85,.8-8.87-.01-3.02-.81-6.13-2.7-9.32-5.68-3.44-3.21-5.63-6.01-6.56-8.42-.93-2.4-1.14-4.68-.64-6.82l-17.5,18.79-14.22-13.25,51.59-55.39,14.22,13.25-3.14,3.37c1.73-.25,3.88,0,6.47,.78,2.58,.78,5.52,2.7,8.82,5.77Zm-34.81,26.57c1.5,1.39,2.93,2.24,4.29,2.53,1.36,.29,2.71,.17,4.04-.36,1.33-.53,2.68-1.37,4.04-2.53,1.36-1.16,2.76-2.51,4.2-4.06,1.53-1.65,2.84-3.2,3.92-4.66,1.08-1.46,1.83-2.89,2.24-4.28,.41-1.39,.41-2.74,0-4.05-.41-1.31-1.34-2.64-2.78-3.99-2.84-2.65-5.55-3.47-8.12-2.46-2.57,1.01-5.5,3.28-8.8,6.83-1.53,1.65-2.83,3.21-3.89,4.7-1.06,1.48-1.75,2.93-2.09,4.34-.34,1.41-.29,2.76,.14,4.05,.43,1.29,1.37,2.6,2.82,3.95Z" fill="#171717"/>
          <path d="M417.44,374.55l-8.19,8.79-36.66-13.93,6.53-7.01,29.25,11.9-13.95-28.33,6.53-7.01,16.5,35.58Z" fill="#171717"/>
        </g>
      </g>
      <g clip-path="url(#clippath)">
        <g>
          <path d="M168.24,593.84c-26.4,0-47.23-2.27-57.29-3.63-7.53-1.01-13.97-2.17-18.63-3.35-6.19-1.56-9.94-3.18-10.78-6.82-.32-1.39-.6-4.48-.75-8.89-.38,4.46-.79,7.4-1.38,9.17-1.82,5.54-9.34,5.57-12.24,5.57h-.05c-9.12,0-22.67-2.6-32.3-5.04-22.44-5.67-23.11-9.44-23.55-11.94-.88-4.94-2.4-35.73,6.19-96.09,0-.05,.01-.09,.02-.14,8.2-48.05,27.39-75.14,42.04-89.4,9.29-9.05,17.98-14.26,23.82-17.1-5.61-8.61-12.18-28.19-11.58-72.54v-.37c-.7-43.56-1.01-63.44,26.13-83.66,.06-.04,.12-.09,.18-.13,11.54-7.84,52.46-14.21,91.21-14.21,27.85,0,76.78,3.45,91.58,26.58,7.64,12.03,7.67,35.22,7.73,70.33,0,4.89,.02,10.01,.05,15.35,.15,34.13-6.08,50.21-11.56,57.75,8.77,4.01,23.11,12.07,32.21,24.98,7.08,10.04,11.95,29.24,16.25,46.18,2.94,11.59,6.97,27.48,9.81,29.78,.79,.51,2.86,1.42,7.35,1.42,3.72,0,7.56-.63,10.75-1.42-1.24-.95-2.41-2.2-3.35-3.85-2.76-4.85-2.7-11.78,.2-21.17,.02-.05,.03-.1,.05-.15,5.38-15.64,18.31-25.36,33.74-25.36,18.06,0,34.12,13.08,40.93,33.33,4.54,13.55,1.72,27.95-8.14,41.64-19.2,26.67-60.09,44.58-86.24,44.58-.56,0-1.13,0-1.68-.02-22.79-.66-34.9-11.52-41.17-21.11,1.63,33.65,2.23,51.75-1.05,59.11-.86,1.93-2.65,5.96-35.03,12.35-12.46,2.46-37.67,6.76-66.44,7.94-5.52,.23-11.24,.34-17.02,.34Z" fill="#757575"/>
          <path d="M189.26,200.28c37.87,0,75.77,6.15,87.37,24.28,7.84,12.34,6.76,40.56,6.99,83.01,.23,53.81-15.72,59.4-15.72,59.4,0,0,24.54,8.09,37.29,26.18,12.76,18.09,18.55,71.51,27.37,77.23,2.5,1.62,6.15,2.26,10.12,2.26,10.03,0,22.03-4.07,22.12-6.55,.12-3.45-17.6,2.06-9.74-23.42,5.03-14.62,16.69-21.98,29.01-21.98,14.29,0,29.47,9.91,36.19,29.92,13.73,41.03-51.94,79.64-89.64,79.64-.52,0-1.03,0-1.54-.02-37.42-1.08-42.71-31.63-42.71-31.63,0,0,.6-74.83-5.28-74.83-.07,0-.14,.01-.21,.03-5.57,1.39-.75,32.48,.77,67.03,1.74,39.47,4.21,72.03,.49,80.38-1.83,4.11-49.61,15.37-97.1,17.32-5.63,.23-11.26,.34-16.81,.34-42.73,0-80.99-6.25-81.84-9.92-1-4.33-1.77-35.67,2.94-70.51,4.18-30.93,14.03-65.92,11.62-67.7-.32-.24-.65-.35-.98-.35-5.04,0-11.78,25.94-17.29,55.37-5.88,31.39-5.69,75.89-8.04,83.03-.5,1.51-3.34,2.13-7.54,2.13-15.69,0-50.2-8.74-50.93-12.85-.93-5.22-2.03-36.54,6.22-94.51,15.44-90.44,69.62-105.49,69.62-105.49,0,0-16.2-5.75-15.28-74.4-.7-43.83-1.06-61.26,24.12-80.01,9.93-6.74,49.15-13.35,88.4-13.35m0-10c-35.3,0-80.12,5.64-94.02,15.08-.12,.08-.24,.17-.35,.25-29.2,21.75-28.85,43.81-28.15,87.76v.29c-.39,29.7,2.3,52.1,7.99,66.58,.56,1.42,1.13,2.72,1.71,3.92-18.67,10.59-52.13,38.74-63.9,107.68-.02,.09-.03,.18-.04,.27-7.9,55.53-7.56,89.78-6.16,97.67,1.25,7.01,8.42,9.81,12.27,11.31,3.9,1.52,9.08,3.11,14.98,4.6,9.92,2.51,23.94,5.19,33.53,5.19,2.57,0,9.03,0,13.42-3.63,3.19,2.59,7.53,3.69,10.57,4.45,4.84,1.22,11.48,2.41,19.19,3.45,10.19,1.37,31.27,3.67,57.96,3.67,5.84,0,11.63-.12,17.22-.34,29.11-1.19,54.6-5.54,67.2-8.03,9.09-1.79,17.09-3.71,23.13-5.55,8.39-2.55,13.35-4.85,15.5-9.67,3.2-7.2,3.25-21.17,2.13-47.26,7.61,6.28,18.92,11.74,35.37,12.22,.6,.02,1.21,.03,1.83,.03,14.22,0,31.94-4.78,48.61-13.12,17.68-8.84,32.49-20.76,41.69-33.54,10.84-15.05,13.89-31.01,8.82-46.15-7.5-22.33-25.43-36.75-45.67-36.75-17.63,0-32.37,11.01-38.47,28.73-.04,.1-.07,.2-.1,.31-2.93,9.51-3.22,17.02-.86,22.85-.65,.04-1.31,.06-1.96,.06-2.06,0-3.4-.24-4.12-.44-2.38-4.08-5.99-18.29-8.19-26.98-4.62-18.21-9.4-37.03-17-47.83-8.13-11.52-20.09-19.41-29.24-24.19,5.13-9.82,9.62-26.7,9.5-55.67-.03-5.35-.04-10.46-.05-15.35-.06-37.25-.1-59.74-8.5-72.98-15.3-23.9-60.55-28.91-95.81-28.91h0Z" fill="#171717"/>
        </g>
        <path d="M353.97,463.96s.82,2.47,13.06,4.62c12.23,2.15,16.71-.17,16.71-.17" fill="none" stroke="#171717" stroke-linecap="round" stroke-linejoin="round" stroke-width="5.78"/>
      </g>
    </g>
    <g>
      <g>
        <path d="M159.44,147.73c-.28,0-.55-.02-.83-.06l-9.71-1.35c-.23-.03-.45-.08-.67-.13l-10.36-2.67c-2.94-.76-4.85-3.6-4.45-6.61l2.54-18.96,1.37-14.19-19.52,14.05c-1.06,.76-2.28,1.13-3.5,1.13-1.67,0-3.32-.69-4.5-2.02l-6.65-7.52c-.32-.36-.59-.76-.82-1.18l-5.08-9.65c-1.44-2.74-.57-6.12,2.02-7.81l19.28-12.63,18.81-15.11,5.38-5.86-.42-.04-29.5-.58c-3.05-.06-5.58-2.4-5.86-5.44l-.78-8.39c-.02-.26-.03-.52-.02-.77l.36-9.93c.06-1.62,.77-3.14,1.97-4.23,1.11-1,2.54-1.55,4.03-1.55,.12,0,.25,0,.37,.01l29.59,1.83,41.41,3.12,31.49,2.88c1.61,.15,3.08,.93,4.1,2.18s1.49,2.86,1.31,4.46l-1.17,10.49c-.04,.4-.13,.79-.25,1.17l-2.6,8.09c-.8,2.51-3.13,4.17-5.71,4.17-.25,0-.5-.02-.75-.05l-28.78-3.61c.06,1.6-.52,3.21-1.73,4.44l-2.61,2.64c.99,.11,1.96,.46,2.83,1.07l11.99,8.49s17.53,13.23,17.53,13.23c.19,.14,.37,.29,.54,.46l8.84,8.46c2.32,2.22,2.48,5.86,.37,8.28l-7.57,8.67c-.23,.27-.49,.51-.77,.74l-6.24,5c-1.1,.88-2.43,1.32-3.75,1.32s-2.77-.48-3.89-1.43l-14.84-12.63-11.78-8.52-.97-.63-1.26,10.68-2.09,22.43-.75,8.6c-.14,1.64-.95,3.15-2.24,4.17-1.07,.85-2.39,1.31-3.74,1.31Z" fill="#17f700"/>
        <path d="M112.55,32.23l29.59,1.83,41.33,3.11,31.39,2.87-1.17,10.49-2.6,8.09-36.66-4.59-6.63-.58,7.77,7.74-13.42,13.58,4.3,1.26-1.68,13.47,6.24-9.41,5.57-6.07,11.99,8.49,17.38,13.12,8.84,8.46-7.57,8.67-6.24,5-15.02-12.79-12.09-8.75-9.18-5.97-2.41,20.34-2.1,22.51-.76,8.63-9.71-1.35-10.36-2.67,2.55-19.07,2.7-28-5.02,4.1-25.29,18.21-6.65-7.52-5.08-9.65,19.52-12.79,19.39-15.57,13.93-15.17-12.76-1.12-29.7-.58-.78-8.39,.36-9.93m0-12c-2.97,0-5.84,1.1-8.06,3.11-2.4,2.17-3.82,5.22-3.94,8.45l-.36,9.93c-.02,.52,0,1.03,.04,1.55l.78,8.39c.56,6.08,5.61,10.77,11.71,10.89l15.29,.3-12.98,10.43-19.04,12.47c-5.17,3.39-6.92,10.16-4.04,15.63l5.08,9.65c.45,.85,1,1.64,1.63,2.36l6.65,7.52c2.36,2.66,5.66,4.05,8.99,4.05,2.44,0,4.89-.74,7.01-2.26l8.77-6.31-.09,.89-2.52,18.85c-.81,6.02,3.02,11.69,8.9,13.21l10.36,2.67c.44,.11,.89,.2,1.34,.27l9.71,1.35c.55,.08,1.11,.11,1.66,.11,2.7,0,5.34-.91,7.47-2.61,2.57-2.05,4.19-5.06,4.48-8.34l.75-8.6,2.08-22.33,.06-.53,4.27,3.09,14.66,12.48c2.24,1.91,5.01,2.86,7.78,2.86s5.31-.88,7.51-2.64l6.24-5c.55-.44,1.07-.94,1.53-1.47l7.57-8.67c4.22-4.83,3.89-12.12-.74-16.56l-8.84-8.46c-.34-.32-.7-.63-1.07-.91l-17.38-13.12c-.1-.07-.2-.15-.3-.22l-6.76-4.79,20.85,2.61c.5,.06,1,.09,1.5,.09,5.15,0,9.81-3.32,11.42-8.33l2.6-8.09c.24-.76,.41-1.54,.5-2.34l1.17-10.49c.36-3.2-.59-6.42-2.63-8.91s-5-4.07-8.21-4.37l-31.39-2.87c-.06,0-.13-.01-.19-.02l-41.33-3.11c-.05,0-.11,0-.16-.01l-29.59-1.83c-.25-.02-.5-.02-.74-.02h0Z" fill="#171717"/>
      </g>
      <g>
        <path d="M328.55,183.94c-2.14,0-4.14-1.15-5.21-3.03l-3.74-6.57-5.01-8.07c-.98-1.57-1.17-3.51-.53-5.24,.01-.03,.02-.05,.03-.08l-5.74-1.01c-.31,1.31-1.05,2.49-2.14,3.34l-9.17,7.18-5.45,4.35c-1.08,.87-2.41,1.31-3.75,1.31-.89,0-1.78-.2-2.61-.6l-7.87-3.81c-.16-.08-.31-.16-.46-.25l-7.27-4.34c-1.34-.8-2.3-2.08-2.71-3.57l-.34,.35c-.48,.5-1.05,.92-1.67,1.22l-7.26,3.57c-.83,.41-1.74,.61-2.65,.61-.64,0-1.27-.1-1.89-.3l-9.04-3c-.45-.15-.87-.35-1.27-.6l-5.17-3.21c-1.91-1.18-2.99-3.33-2.82-5.56l.76-9.81-.52-5.72c-.18-2.01,.66-3.99,2.25-5.24,1.07-.85,2.39-1.3,3.73-1.3,.63,0,1.27,.1,1.89,.31l5.3,1.76,4.07-8.39,4.66-13.72c.16-.47,.38-.91,.64-1.32l-3.32-2.16-9.88-4.83c-1.47-.72-2.59-2.01-3.08-3.57s-.33-3.26,.45-4.7l4.33-7.91c.04-.07,.08-.14,.12-.2l3.8-6.34c1.11-1.86,3.09-2.92,5.15-2.92,.77,0,1.56,.15,2.31,.46l5.76,2.4-.26-.16-10.87-5.14c-1.52-.72-2.66-2.04-3.16-3.64-.5-1.6-.31-3.34,.53-4.79l4.02-6.94,2.53-6.16c.61-1.49,1.8-2.67,3.29-3.28,.72-.29,1.49-.44,2.26-.44,.81,0,1.62,.17,2.38,.49l12.91,5.59c.17,.08,.35,.16,.51,.25l6.62,3.65c.75-.33,1.57-.51,2.41-.51,.35,0,.7,.03,1.05,.09l9.15,1.61c.1,.02,.2,.04,.3,.06l6.76,1.56,5.15,.56,.71-5.18c.23-1.65,1.13-3.13,2.49-4.09,1.02-.72,2.23-1.09,3.45-1.09,.41,0,.83,.04,1.23,.13l11.31,2.38c.25,.05,.51,.12,.75,.21l8.05,2.82c2.87,1.01,4.53,4,3.87,6.97l-.75,3.36,15.32,3.57c.41,.1,.81,.23,1.19,.41l5.65,2.65c.37,.18,.73,.39,1.06,.64l6.19,4.66c1.93,1.45,2.8,3.91,2.21,6.25l-2.15,8.55c-.02,.09-.05,.17-.07,.26l-4.03,13.45c-.48,1.61-1.62,2.94-3.13,3.68-.82,.4-1.72,.6-2.62,.6-.75,0-1.5-.14-2.21-.42l-7.34-2.91-.14,.57,6.59,3.57c2.24,1.21,3.47,3.71,3.07,6.22l-2.46,15.38c0,.06-4.42,22.88-4.42,22.88-.46,2.38-2.26,4.16-4.48,4.69l3.25,4.3c1.18,1.56,1.52,3.61,.92,5.47-.61,1.86-2.08,3.31-3.96,3.88l-9.3,2.82c-.4,.12-.82,.2-1.24,.24l-8.8,.74c-.17,.01-.34,.02-.51,.02Zm-55.23-69.35c.17,.08,.35,.16,.51,.25l1.34,.75,1.32-7.48c-.1,.18-.2,.35-.32,.51l-3.82,5.54,.96,.42Zm8.17-17.18c-.06,.76-.27,1.53-.65,2.25l-1.71,3.33c.99-.71,2.21-1.13,3.5-1.13,.2,0,.41,.01,.62,.03l3.44,.35,.46-2.94-1.11-.39-4.54-1.51Z" fill="#17f700"/>
        <path d="M261.56,58.88l12.91,5.59,8.83,4.87-4.07,7.19-3.97,7.33-9.42-5.87-11.18-5.29,4.22-7.29,2.68-6.54m53.92,3l11.31,2.38,8.05,2.82-1.83,8.22-.2,1.11,5.3,1.06,15.8,3.68,5.65,2.65,6.19,4.66-2.15,8.55-4.03,13.45-9.3-3.68-4.34-1.4-.94,3.15-1.29,5.13-12.96-2.41-2.47-.44-.95,3.91,4.2,.74,15.45,3.49,6.64,3.59-2.46,15.38-4.38,22.69-10.76-1.9-1.73-.31-2.23-.39-22.01-3.88-16.7-2.94-8.08-1.17-9.11-1.86c.75-4.71,1.82-12.01,3.22-21.88l-5.81,16.32-5.85,11.47-5.46,5.67-7.26,3.57-9.04-3-5.17-3.21,.8-10.32-.56-6.22,8.19,2.72,3.22-1.6,5.41-11.16,4.78-14.08,8.29,3.63,8.71,4.85,3.01-17.07,6.89,.7,8.44,.6,.53,.6,10.02,1.77,.79-4.45-16.89-2.6,.92-5.96,.57-3.22-5.89-2.06-7.35-2.44,3.58-13.78,2.17-8.67,9.15,1.61,7.11,1.64,11.26,1.22,.17-.99,1.37-9.96m27.62,37.9l1.4-6.51-7.31-1.93-21.8-4.36-14.39-2.28-1.05,3.77-.61,3.46c2.24,.31,5.53,.68,9.88,1.1l17.37,3.45,16.51,3.29m-37.31,28.62l.83-4.7-7.59-1.08-.66,4.47,7.42,1.31m26.59,4.69l.81-4.58-8.51-1.63c-.27,1.06-.59,2.62-.95,4.68l8.66,1.53m-29.14,9.02l.74-4.2-7.34-1.04-.7,3.96,7.3,1.29m26.57,4.81l.8-3.81-8.49-1.75-.47,4.13,8.16,1.44m-74.67-60.35l6.89,2.87,13.47,7.48-4.27,8.3-4.63,6.71-9.38-6.12-10.21-4.99,4.33-7.91,3.8-6.34m32.24,64.47l7.36,3.85,7.77,3.67-9.17,7.18-5.49,4.39-7.87-3.81-7.27-4.34,5.43-4.78,9.25-6.15m47.31,7.96l5.96,7.43,6,7.94-9.3,2.82-8.8,.74-3.8-6.66-5.06-8.16,5.94-1.89,9.06-2.23m-73.14-112.12c-1.54,0-3.07,.29-4.52,.88-2.99,1.21-5.36,3.58-6.58,6.56l-2.37,5.79-3.81,6.59c-1.68,2.9-2.07,6.38-1.07,9.58,.42,1.35,1.07,2.6,1.91,3.7-.09,.14-.18,.28-.26,.42l-3.8,6.34c-.08,.13-.16,.27-.23,.4l-4.33,7.91c-1.57,2.88-1.9,6.27-.91,9.4,.99,3.12,3.22,5.71,6.17,7.15l8.45,4.13-3.47,10.24-1.61,3.32-.3-.1c-1.24-.41-2.51-.61-3.78-.61-2.67,0-5.3,.89-7.45,2.59-3.17,2.51-4.86,6.45-4.5,10.48l.47,5.22-.72,9.31c-.35,4.47,1.83,8.76,5.64,11.12l5.17,3.21c.8,.5,1.65,.9,2.55,1.19l9.04,3c1.23,.41,2.5,.61,3.78,.61,1.82,0,3.63-.41,5.29-1.23l5.18-2.54c.35,.26,.71,.51,1.09,.73l7.27,4.34c.3,.18,.61,.35,.93,.5l7.87,3.81c1.66,.8,3.45,1.2,5.23,1.2,2.67,0,5.32-.89,7.49-2.62l5.45-4.35,8.27-6.48c.14,.26,.28,.52,.44,.77l4.95,7.97,3.69,6.47c2.15,3.77,6.14,6.06,10.42,6.06,.34,0,.67-.01,1.01-.04l8.8-.74c.84-.07,1.67-.23,2.48-.48l9.3-2.82c3.75-1.14,6.71-4.04,7.92-7.77,1.16-3.55,.59-7.43-1.51-10.49,.97-1.36,1.67-2.95,2.01-4.69l4.38-22.69c.02-.13,.05-.26,.07-.38l2.46-15.38c.19-1.2,.2-2.39,.04-3.55,2.68-1.52,4.68-4.02,5.56-6.99l4.03-13.45c.05-.17,.1-.35,.14-.52l2.15-8.55c1.17-4.68-.57-9.61-4.42-12.51l-6.19-4.66c-.66-.5-1.37-.92-2.12-1.28l-5.65-2.65c-.76-.36-1.56-.63-2.38-.83l-9.79-2.28c.05-5.04-3.1-9.7-8.03-11.43l-8.05-2.82c-.49-.17-.99-.31-1.5-.42l-11.31-2.38c-.82-.17-1.65-.26-2.47-.26-2.45,0-4.87,.75-6.91,2.19-2.53,1.78-4.26,4.46-4.86,7.47l-5.46-1.26c-.2-.05-.4-.09-.61-.12l-9.15-1.61c-.7-.12-1.4-.18-2.09-.18-.54,0-1.07,.04-1.6,.11l-4.54-2.5c-.33-.18-.68-.35-1.03-.5l-12.91-5.59c-1.52-.66-3.14-.99-4.77-.99h0Z" fill="#171717"/>
      </g>
      <g>
        <path d="M409.57,224.41c-.83,0-1.66-.17-2.43-.52l-14.06-6.24c-.59-.26-1.13-.62-1.61-1.05l-9.3-8.47c-2.18-1.98-2.59-5.25-.98-7.72l4.63-7.08c.05-.07,.1-.14,.15-.21l4.77-6.65c1.17-1.63,3.01-2.5,4.88-2.5,1.21,0,2.43,.37,3.49,1.12l7.82,5.61,.77,.31,.26-.21,2.06-8.82,.43-9.16-.83-14.96c-.62-1.13-.88-2.44-.69-3.76,.29-2,1.55-3.71,3.38-4.58l16.56-7.83,.22-.12-22.66-6.47-14.05-3.38c-1.6-.39-2.98-1.41-3.8-2.84-.82-1.43-1.02-3.14-.54-4.72l2.34-7.79,1.87-9.35c.33-1.64,1.32-3.07,2.75-3.94,.95-.58,2.04-.88,3.13-.88,.54,0,1.09,.07,1.62,.22l60.58,17.01c.07,.02,.14,.04,.21,.06l12.46,3.99c2.47,.79,4.16,3.08,4.17,5.68l.05,9.2,.94,8.67c.26,2.4-.94,4.72-3.05,5.89l-18.94,10.53c-.19,.11-.39,.2-.59,.29l-13.48,5.66,.8,7.88c.03,.3,.04,.6,.02,.91l-.65,13.09c-.02,.44-.09,.87-.21,1.3l-4.83,17.56c-.34,1.24-1.07,2.33-2.08,3.13l-9.88,7.75c-.78,.61-1.69,1.02-2.67,1.19l-12.01,2.11c-.34,.06-.69,.09-1.04,.09Z" fill="#17f700"/>
        <path d="M398.14,108.21l60.58,17.01,12.45,3.99,.05,9.51,.98,8.97-18.94,10.53-17.58,7.38,1.26,12.3-.65,13.09-4.83,17.56-9.88,7.75-12.01,2.11-14.06-6.24-9.3-8.47,4.63-7.08,4.77-6.65,8.4,6.02,4.69,1.91,4.63-3.7,2.66-11.38,.47-10.01-.96-17.29-.63-.56,16.67-7.88,13.62-7.14-37.2-10.62-14.17-3.41,2.42-8.06,1.93-9.62m0-12c-2.19,0-4.36,.6-6.27,1.77-2.85,1.75-4.84,4.6-5.5,7.88l-1.82,9.07-2.26,7.52c-.95,3.16-.55,6.57,1.09,9.43s4.39,4.92,7.6,5.69l13.92,3.35,7.22,2.06-2.39,1.13c-3.64,1.72-6.18,5.16-6.75,9.15-.3,2.08-.04,4.17,.7,6.07l.75,13.53-.39,8.3-.02,.09-1.43-1.03c-2.12-1.52-4.56-2.25-6.98-2.25-3.74,0-7.42,1.74-9.76,5.01l-4.77,6.65c-.1,.14-.2,.29-.3,.43l-4.63,7.08c-3.22,4.93-2.39,11.47,1.96,15.44l9.3,8.47c.95,.87,2.04,1.58,3.21,2.1l14.06,6.24c1.54,.68,3.2,1.03,4.87,1.03,.69,0,1.39-.06,2.08-.18l12.01-2.11c1.95-.34,3.78-1.16,5.33-2.38l9.88-7.75c2.02-1.59,3.48-3.78,4.16-6.25l4.83-17.56c.23-.85,.37-1.72,.42-2.59l.65-13.09c.03-.6,.01-1.21-.05-1.81l-.35-3.46,9.38-3.94c.4-.17,.8-.36,1.18-.57l18.94-10.53c4.22-2.34,6.62-6.99,6.1-11.79l-.91-8.36-.05-8.89c-.03-5.19-3.4-9.78-8.34-11.36l-12.45-3.99c-.14-.04-.28-.09-.41-.12l-60.58-17.01c-1.07-.3-2.16-.45-3.24-.45h0Z" fill="#171717"/>
      </g>
    </g>
  </g>
</svg>