<?xml version="1.0" encoding="UTF-8"?>
<svg id="_图层_1" data-name="图层 1" xmlns="http://www.w3.org/2000/svg" viewBox="0 0 500 500">
  <g id="_不知道" data-name="不知道">
    <g>
      <g>
        <path d="M478.85,167.54v51.39h-8.43v27.16h-.91c-15.39,0-30.79-.01-46.18,0-.56,0-.84-.12-1.05-.71-2.66-7.32-5.35-14.62-8.04-21.92-.5-1.36-1.01-2.71-1.49-4.07-.12-.36-.3-.49-.69-.48-.76,.03-1.52,.01-2.28,.01-22.93,0-45.86-.01-68.8-.02h-5.69c-.9-2.42-1.78-4.8-2.66-7.19-3.21-8.7-6.42-17.4-9.62-26.11-.39-1.06-.81-2.1-1.15-3.17-.04-.14-.07-.31-.06-.48l.06-50.91c.34,1.07,.76,2.12,1.15,3.17,2.05,5.57,4.1,11.15,6.16,16.72,1.15,3.13,2.31,6.26,3.46,9.39,.88,2.39,1.76,4.77,2.66,7.19h5.69c8.1,0,16.21,0,24.32,0,11.34,0,22.69,0,34.03,0h10.45c.76,0,1.52,.02,2.28,0,.39-.02,.56,.12,.69,.48,.48,1.36,.99,2.71,1.49,4.07,2.69,7.31,5.38,14.6,8.04,21.92,.21,.58,.48,.71,1.05,.71,15.4-.01,30.79,0,46.18,0h.91c-2.99-8.16-5.95-16.24-8.94-24.4-.34-.92-.68-1.85-1.01-2.77h18.38Z" fill="#727272" stroke="#171717" stroke-linecap="round" stroke-linejoin="round" stroke-width="8"/>
        <path d="M460.47,167.54h18.38c-.09-.29-.15-.49-.21-.69-1.39-3.79-2.77-7.59-4.16-11.38-2.5-6.83-5.01-13.65-7.49-20.48-.2-.55-.45-.74-1.04-.74-5.65,.03-11.3,.02-16.94,.02-.44,0-.76-.02-.95-.55-1.06-3-2.17-5.98-3.27-8.96-2.65-7.24-5.29-14.48-7.94-21.72-3.4-9.29-6.81-18.56-10.22-27.85-3.06-8.34-6.13-16.68-9.16-25.03-.2-.56-.45-.73-1.04-.72-6.9,.02-13.8,.02-20.7,.02-11.47,0-22.94,.02-34.4,.01-.52,0-.83,.09-1.08,.61-6.67,13.95-13.36,27.9-20.06,41.84-6.09,12.69-12.18,25.38-18.25,38.07-.14,.29-.17,.71-.07,1.02,.34,1.07,.76,2.12,1.15,3.17,2.05,5.57,4.1,11.15,6.16,16.72,1.15,3.13,2.31,6.26,3.46,9.39,.88,2.39,1.76,4.77,2.66,7.19h5.69c8.1,0,16.21,0,24.32,0,11.34,0,22.69,0,34.03,0h10.45c.76,0,1.52,.02,2.28,0,.39-.02,.56,.12,.69,.48,.48,1.36,.99,2.71,1.49,4.07,2.69,7.31,5.38,14.6,8.04,21.92,.21,.58,.48,.71,1.05,.71,15.4-.01,30.79,0,46.18,0h.91c-2.99-8.16-5.95-16.24-8.94-24.4-.34-.92-.68-1.85-1.01-2.77Zm-94.42-33.26c-1.12,0-1.61-.76-1.15-1.83,2.01-4.75,4.01-9.51,6.02-14.26,3.78-8.95,7.55-17.9,11.32-26.85,.23-.53,.34-1.06,1.17-1.01,.65,.04,.9,.22,1.12,.83,3.72,10.2,7.47,20.4,11.22,30.6,1.47,4,2.94,7.99,4.41,11.99,.05,.14,.09,.28,.17,.53h-34.27Z" fill="#17f700" stroke="#171717" stroke-linecap="round" stroke-linejoin="round" stroke-width="8"/>
        <line x1="422.57" y1="194.48" x2="422.57" y2="246.1" fill="#4c4c4c" stroke="#171717" stroke-linecap="round" stroke-linejoin="round" stroke-width="8"/>
        <line x1="470.43" y1="194.71" x2="470.43" y2="246.1" fill="#4c4c4c" stroke="#171717" stroke-linecap="round" stroke-linejoin="round" stroke-width="8"/>
        <line x1="335.3" y1="167.51" x2="335.3" y2="218.9" fill="#4c4c4c" stroke="#171717" stroke-linecap="round" stroke-linejoin="round" stroke-width="8"/>
      </g>
      <g>
        <path d="M328.76,200.94v46.33c0,5.48-.67,10.85-2.78,15.99-2.77,6.73-7.63,11.4-14.14,14.46-4.75,2.23-9.83,3.3-14.97,4.13-8.56,1.38-17.19,1.59-25.84,1.25-6.88-.28-13.69-1.08-20.45-2.39-5.86-1.14-11.55-2.82-17.02-5.24-4.72-2.09-9.18-4.64-13.37-7.65-10.88-7.81-19.21-17.91-26.08-29.29-4.4-7.27-8.06-14.91-11.15-22.81-1.96-5.02-3.83-10.07-5.54-15.17-2.53-7.53-4.52-15.21-5.48-23.11-.31-2.62-.5-5.24-.5-7.85v-46.37c0,2.61,.19,5.23,.5,7.86,.12,.99,.25,1.97,.41,2.95,.07,.47,.15,.95,.23,1.42,.08,.5,.17,1.01,.26,1.51,.09,.47,.18,.94,.27,1.41,.11,.55,.22,1.09,.34,1.63,.1,.44,.2,.88,.3,1.33,.09,.42,.19,.83,.29,1.25,.06,.29,.14,.58,.21,.88,.08,.33,.17,.66,.25,.98,.1,.41,.21,.81,.32,1.22,.13,.48,.26,.96,.39,1.43,.14,.48,.27,.95,.41,1.43,.55,1.9,1.15,3.79,1.79,5.67,1.71,5.1,3.58,10.16,5.54,15.18,3.09,7.89,6.76,15.54,11.15,22.81,6.88,11.37,15.2,21.47,26.08,29.28,4.19,3.01,8.65,5.56,13.37,7.65,.6,.26,1.2,.52,1.81,.77,.26,.11,.53,.21,.79,.32,.53,.21,1.06,.41,1.6,.61,.33,.12,.66,.25,.99,.36,.7,.25,1.41,.49,2.11,.71,.14,.04,.27,.09,.41,.13,.48,.15,.96,.3,1.44,.44,.09,.03,.18,.06,.28,.09,.47,.14,.94,.26,1.41,.39,.14,.04,.28,.07,.42,.11,1.18,.31,2.37,.6,3.57,.87,.02,0,.04,0,.07,.01h0c.71,.16,1.41,.31,2.12,.44,6.76,1.31,13.57,2.11,20.45,2.39,1.61,.06,3.22,.11,4.82,.13,2.68,.04,5.37,0,8.04-.1,.4-.02,.8-.04,1.2-.06,1.18-.06,2.36-.14,3.53-.23h.01c.78-.06,1.57-.14,2.35-.21,1.97-.2,3.94-.46,5.89-.77,5.14-.82,10.22-1.89,14.97-4.12,6.51-3.06,11.38-7.74,14.14-14.46,.01-.03,.02-.06,.04-.09,.25-.61,.48-1.22,.69-1.84,.06-.17,.12-.34,.17-.52,.06-.18,.12-.36,.17-.53,.19-.63,.36-1.26,.52-1.89,.07-.29,.14-.59,.21-.88,.37-1.69,.61-3.39,.77-5.11,.02-.22,.04-.44,.06-.66,.12-1.46,.17-2.94,.17-4.43Z" fill="#727272" stroke="#171717" stroke-linecap="round" stroke-linejoin="round" stroke-width="8"/>
        <path d="M328.76,200.2c-.09-8.52-1.83-16.79-4.26-24.91-1.57-5.25-3.33-10.45-5.19-15.6-2.94-8.09-6.43-15.94-10.58-23.49-5.93-10.8-13.18-20.58-22.46-28.78-7-6.18-14.9-10.86-23.66-14.1-6.17-2.28-12.57-3.59-19.06-4.54-6.71-.99-13.47-1.42-20.25-1.39-.81,0-1.62,0-2.43,0-6.83,.07-13.62,.62-20.33,1.95-5.33,1.05-10.53,2.49-15.21,5.38-6.37,3.93-10.52,9.48-12.44,16.72-1.03,3.9-1.45,7.83-1.45,11.77,0,2.61,.19,5.23,.5,7.86,.12,.99,.25,1.97,.41,2.95,.07,.48,.15,.95,.23,1.42,.08,.5,.17,1.01,.26,1.51,.09,.47,.18,.94,.27,1.41,.11,.55,.22,1.09,.34,1.63,.1,.44,.2,.88,.3,1.33,.09,.42,.19,.83,.29,1.25,.06,.29,.14,.58,.21,.88,.08,.33,.17,.66,.25,.98,.1,.41,.21,.81,.32,1.22,.13,.48,.26,.96,.39,1.43,.14,.48,.27,.95,.41,1.43,.55,1.9,1.15,3.79,1.79,5.67,1.71,5.1,3.58,10.16,5.54,15.18,3.09,7.89,6.76,15.54,11.15,22.81,6.88,11.37,15.2,21.47,26.08,29.28,4.19,3.01,8.65,5.56,13.37,7.65,.6,.26,1.2,.52,1.81,.77,.26,.11,.53,.21,.79,.32,.53,.21,1.06,.41,1.6,.61,.33,.12,.66,.24,.99,.36,.7,.25,1.41,.48,2.11,.71,.14,.04,.27,.09,.41,.13,.48,.15,.96,.3,1.44,.44,.09,.03,.18,.06,.28,.09,.47,.14,.94,.26,1.41,.39,.14,.04,.28,.07,.42,.11,1.18,.31,2.37,.6,3.57,.87,.02,0,.04,0,.07,.01h0c.71,.16,1.41,.31,2.12,.44,6.76,1.31,13.57,2.11,20.45,2.39,1.61,.06,3.22,.11,4.82,.13,2.68,.04,5.37,0,8.04-.1,.4-.02,.8-.04,1.2-.06,1.18-.06,2.36-.14,3.53-.23h.01c.78-.06,1.57-.14,2.35-.21,1.97-.2,3.94-.46,5.89-.77,5.14-.82,10.22-1.89,14.97-4.12,6.51-3.06,11.38-7.74,14.14-14.46,.01-.03,.02-.06,.04-.09,.25-.61,.48-1.22,.69-1.84,.06-.17,.12-.34,.17-.52,.06-.18,.12-.36,.17-.53,.19-.63,.36-1.26,.52-1.89,.07-.29,.14-.59,.21-.88,.37-1.69,.61-3.39,.77-5.11,.02-.22,.04-.44,.06-.66,.12-1.46,.17-2.94,.17-4.43,0-.25,0-.5,0-.74Zm-49.58-4.89c-.6,3.63-2.7,5.85-6.23,6.81-3.49,.94-7.03,1.01-10.6,.79-3.12-.2-6.17-.78-9.06-2.03-3.28-1.42-5.94-3.68-8.26-6.35-3.95-4.54-6.7-9.82-9.18-15.24-4.13-9.03-7.53-18.34-10.59-27.78-1.52-4.68-2.89-9.4-3.65-14.28-.45-2.92-.69-5.84-.11-8.77,.72-3.61,2.93-5.75,6.44-6.67,2.44-.64,4.92-.85,7.47-.82,3.51-.01,7.01,.39,10.39,1.5,3.44,1.14,6.27,3.2,8.69,5.85,4.46,4.9,7.48,10.7,10.2,16.66,4.08,8.94,7.47,18.15,10.5,27.5,1.52,4.71,2.9,9.45,3.71,14.35,.46,2.81,.75,5.64,.28,8.49Z" fill="#17f700" stroke="#171717" stroke-linecap="round" stroke-linejoin="round" stroke-width="8"/>
      </g>
      <g>
        <path d="M178.19,191.84v51.39h-8.43v27.16h-.91c-15.39,0-30.79-.01-46.18,0-.56,0-.84-.12-1.05-.71-2.66-7.32-5.35-14.62-8.04-21.92-.5-1.36-1.01-2.71-1.49-4.07-.12-.36-.3-.49-.69-.48-.76,.03-1.52,.01-2.28,.01-22.93,0-45.86-.01-68.8-.02h-5.69c-.9-2.42-1.78-4.8-2.66-7.19-3.21-8.7-6.42-17.4-9.62-26.11-.39-1.06-.81-2.1-1.15-3.17-.04-.14-.07-.31-.06-.48l.06-50.91c.34,1.07,.76,2.12,1.15,3.17,2.05,5.57,4.1,11.15,6.16,16.72,1.15,3.13,2.31,6.26,3.46,9.39,.88,2.39,1.76,4.77,2.66,7.19h5.69c8.1,0,16.21,0,24.32,0,11.34,0,22.69,0,34.03,0h10.45c.76,0,1.52,.02,2.28,0,.39-.02,.56,.12,.69,.48,.48,1.36,.99,2.71,1.49,4.07,2.69,7.31,5.38,14.6,8.04,21.92,.21,.58,.48,.71,1.05,.71,15.4-.01,30.79,0,46.18,0h.91c-2.99-8.16-5.95-16.24-8.94-24.4-.34-.92-.68-1.85-1.01-2.77h18.38Z" fill="#727272" stroke="#171717" stroke-linecap="round" stroke-linejoin="round" stroke-width="8"/>
        <path d="M159.81,191.84h18.38c-.09-.29-.15-.49-.21-.69-1.39-3.79-2.77-7.59-4.16-11.38-2.5-6.83-5.01-13.65-7.49-20.48-.2-.55-.45-.74-1.04-.74-5.65,.03-11.3,.02-16.94,.02-.44,0-.76-.02-.95-.55-1.06-3-2.17-5.98-3.27-8.96-2.65-7.24-5.29-14.48-7.94-21.72-3.4-9.29-6.81-18.56-10.22-27.85-3.06-8.34-6.13-16.68-9.16-25.03-.2-.56-.45-.73-1.04-.72-6.9,.02-13.8,.02-20.7,.02-11.47,0-22.94,.02-34.4,.01-.52,0-.83,.09-1.08,.61-6.67,13.95-13.36,27.9-20.06,41.84-6.09,12.69-12.18,25.38-18.25,38.07-.14,.29-.17,.71-.07,1.02,.34,1.07,.76,2.12,1.15,3.17,2.05,5.57,4.1,11.15,6.16,16.72,1.15,3.13,2.31,6.26,3.46,9.39,.88,2.39,1.76,4.77,2.66,7.19h5.69c8.1,0,16.21,0,24.32,0,11.34,0,22.69,0,34.03,0h10.45c.76,0,1.52,.02,2.28,0,.39-.02,.56,.12,.69,.48,.48,1.36,.99,2.71,1.49,4.07,2.69,7.31,5.38,14.6,8.04,21.92,.21,.58,.48,.71,1.05,.71,15.4-.01,30.79,0,46.18,0h.91c-2.99-8.16-5.95-16.24-8.94-24.4-.34-.92-.68-1.85-1.01-2.77Zm-94.42-33.26c-1.12,0-1.61-.76-1.15-1.83,2.01-4.75,4.01-9.51,6.02-14.26,3.78-8.95,7.55-17.9,11.32-26.85,.23-.53,.34-1.06,1.17-1.01,.65,.04,.9,.22,1.12,.83,3.72,10.2,7.47,20.4,11.22,30.6,1.47,4,2.94,7.99,4.41,11.99,.05,.14,.09,.28,.17,.53h-34.27Z" fill="#17f700" stroke="#171717" stroke-linecap="round" stroke-linejoin="round" stroke-width="8"/>
        <line x1="121.9" y1="218.78" x2="121.9" y2="270.4" fill="#4c4c4c" stroke="#171717" stroke-linecap="round" stroke-linejoin="round" stroke-width="8"/>
        <line x1="169.76" y1="219.01" x2="169.76" y2="270.4" fill="#4c4c4c" stroke="#171717" stroke-linecap="round" stroke-linejoin="round" stroke-width="8"/>
        <line x1="34.63" y1="191.81" x2="34.63" y2="243.2" fill="#4c4c4c" stroke="#171717" stroke-linecap="round" stroke-linejoin="round" stroke-width="8"/>
      </g>
    </g>
    <g>
      <g>
        <path d="M78.59,422.82c-.62,0-1.25-.1-1.85-.29l-9.92-3.21c-.22-.07-.43-.15-.64-.25l-10.35-4.71c-2.76-1.26-4.15-4.38-3.23-7.28l6.16-19.38,4.28-15.42-23.78,11.47c-.84,.4-1.73,.6-2.6,.6-2.03,0-3.99-1.03-5.12-2.86l-5.58-9.1c-.25-.41-.45-.85-.6-1.3l-3.54-11.04c-.94-2.95,.51-6.13,3.35-7.35l22.54-9.67,22.52-12.37,7.35-5.63-1.19-.32-30.79-6.05c-3-.59-5.07-3.33-4.82-6.38l.73-8.93c.02-.26,.06-.51,.11-.77l2.21-10.33c.34-1.58,1.3-2.96,2.67-3.82,.96-.61,2.07-.92,3.2-.92,.47,0,.94,.05,1.41,.17l30.64,7.38,42.77,10.91,32.43,8.83c1.55,.42,2.88,1.45,3.66,2.86s.97,3.07,.52,4.62l-3.16,10.76c-.11,.38-.26,.75-.45,1.11l-4.22,7.99c-1.06,2.01-3.13,3.2-5.31,3.2-.59,0-1.18-.09-1.77-.27l-29.91-9.23c-.11,1.74-.98,3.42-2.52,4.51l-3.92,2.78c1.26,.18,2.46,.76,3.42,1.72l10.99,11.1s15.9,17.08,15.9,17.08c.16,.17,.31,.35,.45,.54l7.69,10.49c1.9,2.59,1.42,6.21-1.07,8.22l-9.52,7.68c-.28,.22-.57,.42-.88,.59l-7.45,4.08c-.91,.5-1.9,.74-2.88,.74-1.74,0-3.45-.76-4.63-2.18l-13.21-15.98-10.78-11.11-1.35-1.26-3.47,11.53-6.33,23.11-2.38,8.87c-.43,1.59-1.48,2.93-2.93,3.72-.89,.48-1.88,.73-2.87,.73Z" fill="#f7f7f7"/>
        <path d="M49.7,293.52l30.64,7.38,42.7,10.89,32.34,8.8-3.16,10.76-4.22,7.99-37.54-11.58-6.83-1.83,6.71,9.54-16.55,11.74,4.27,2.11-4.25,13.79,8.28-8.7,6.96-5.32,10.99,11.1,15.78,16.94,7.69,10.49-9.52,7.68-7.45,4.08-13.36-16.16-11.05-11.39-8.51-7.95-6.28,20.85-6.35,23.18-2.38,8.9-9.92-3.21-10.35-4.71,6.19-19.49,8-28.82-6.02,3.36-29.84,14.4-5.58-9.1-3.54-11.04,22.8-9.79,23.18-12.73,17.39-13.31-13.15-3.52-30.99-6.09,.73-8.93,2.21-10.33m0-12c-2.24,0-4.46,.63-6.39,1.84-2.74,1.72-4.67,4.48-5.34,7.64l-2.21,10.33c-.11,.51-.18,1.02-.23,1.53l-.73,8.93c-.5,6.09,3.65,11.58,9.65,12.76l18,3.54-17.38,9.54-22.27,9.56c-5.68,2.44-8.58,8.8-6.69,14.69l3.54,11.04c.29,.92,.7,1.79,1.2,2.61l5.58,9.1c2.25,3.67,6.18,5.73,10.24,5.73,1.75,0,3.53-.39,5.21-1.19l11.85-5.72-.71,2.54-6.12,19.28c-1.84,5.79,.94,12.04,6.47,14.55l10.35,4.71c.42,.19,.84,.35,1.27,.49l9.92,3.21c1.21,.39,2.45,.58,3.69,.58,1.98,0,3.96-.49,5.73-1.46,2.89-1.57,5.01-4.26,5.86-7.44l2.38-8.87,6.3-23,.54-1.78,4.82,4.97,13.06,15.79c2.35,2.84,5.77,4.35,9.25,4.35,1.96,0,3.94-.48,5.76-1.48l7.45-4.08c.62-.34,1.21-.74,1.77-1.18l9.52-7.68c4.99-4.03,5.94-11.26,2.15-16.44l-7.69-10.49c-.28-.38-.58-.74-.9-1.08l-15.78-16.94c-.08-.09-.17-.18-.25-.26l-8.32-8.41,24.23,7.47c1.17,.36,2.36,.53,3.54,.53,4.36,0,8.49-2.38,10.61-6.4l4.22-7.99c.37-.71,.67-1.45,.9-2.22l3.16-10.76c.91-3.09,.53-6.42-1.04-9.24-1.57-2.81-4.21-4.88-7.32-5.72l-32.33-8.8c-.06-.02-.12-.03-.19-.05l-42.7-10.89c-.05-.01-.1-.03-.15-.04l-30.64-7.38c-.93-.22-1.87-.33-2.81-.33h0Z" fill="#171717"/>
      </g>
      <g>
        <path d="M220.65,456.54c-.58,0-1.16-.08-1.72-.25l-10.22-3.07c-.35-.11-.69-.24-1.02-.41l-8.66-4.45c-2.58-1.33-3.84-4.32-2.99-7.09l6.8-22.2-5.69,2.08c-.67,.24-1.36,.36-2.06,.36-.87,0-1.74-.19-2.55-.57-1.45-.68-2.56-1.91-3.1-3.41l-3.33-9.34-3.11-8.52c-.55-1.5-.47-3.15,.2-4.59,.67-1.44,1.89-2.56,3.39-3.1l4.83-1.76-.73-.14c-.2-.04-.4-.09-.6-.15l-10.22-3.07c-2.99-.9-4.79-3.94-4.15-6.99l3.65-17.28,1.44-13.9,.08-10.24c.01-1.71,.75-3.33,2.04-4.46,1.1-.97,2.51-1.49,3.96-1.49,.24,0,.48,.01,.72,.04l10.87,1.32,9.89,.76c3.21,.25,5.66,2.99,5.54,6.21l-.09,2.44,16.17-4.56c.54-.15,1.09-.23,1.63-.23,2.44,0,4.71,1.49,5.61,3.87l.22,.58,5.91-1.9c.53-.37,1.12-.66,1.78-.85l18.85-5.47c.1-.03,.2-.06,.3-.08l24.45-5.72c.45-.11,.91-.16,1.37-.16,.49,0,.99,.06,1.47,.18l5.04,1.28c2.1,.53,3.75,2.16,4.32,4.25l14.3,52.84,5.84,22.85c.41,1.61,.14,3.32-.76,4.72-.9,1.4-2.34,2.37-3.97,2.67l-9.61,1.76-11.19,2.59c-.4,.09-.8,.14-1.19,.15l-4.37,1.07-6.39,1.81c-.7,.59-1.53,1.02-2.44,1.24l-12.21,3-4.1,1.17-6.39,8.14c-.43,.55-.95,1.01-1.54,1.38l-8.53,5.33c-.98,.62-2.08,.91-3.17,.91-1.79,0-3.55-.8-4.73-2.3l-4.62-5.89-4.06-4.09-5.41,18.43c-.45,1.53-1.49,2.82-2.9,3.58-.89,.48-1.87,.73-2.86,.73Zm56.19-66.56l1.62,5.29,4.12-.88-8.52-29.64-.57,.05-3.74,1.26,7.08,23.91Zm-43.84-13.54l5.79-1.16-.51-1.84-1.24-3.77-4.91,1.26,.87,5.5Z" fill="#f7f7f7"/>
        <path d="M290.11,334.76l5.04,1.28,14.3,52.84,5.82,22.77-9.75,1.78-11.32,2.62-.03-.13-5.71,1.39-8.86,2.51,.14,.52-12.32,3.02-7.83,2.24c.15,.24,.29,.41,.41,.51,.12,.11,.23,.19,.34,.25l-6.59,8.4-8.53,5.33-4.83-6.17-8.34-8.41-3.94-3.37-1.02,6.49-6.43,21.9-10.22-3.07-8.66-4.45,7.15-23.34,1.17-9.57-.77,.21-14.23,5.19-3.33-9.34-3.12-8.56,12.97-4.72,7.86-2.66-1.46-9.56-2.12-8.42c-.95,.25-1.62,.48-2.03,.68l-.5,2.76-3.1,10.09-8.45-1.61-10.22-3.07,3.72-17.58,1.5-14.5,.08-10.53,11,1.34,10.02,.77-.29,7.68-.37,3.28,4.96-1.61,19.4-5.48,4.24,11.17,1.39,7.78-11.9,3.05,2.79,17.64,4.57-1.5,12.2-2.44,2.67,8.41,2.09,10.91-18.91,4.24-.77,.21,.22,3.4,5.28-4.04,9.94,7.7,7.78,7.87,5.73,5.93-1.12-3.15-13.79-49.93-7.34-22.22,10.18-3.28-.07-.26,18.85-5.47,24.45-5.72m-15.77,67.53l10.07-2.15,5.28-1.97c-.55-2.06-.91-3.58-1.08-4.55l-10.15-35.29-6.21,.56-9.89,3.34,8.72,29.45,3.25,10.6m15.77-79.53c-.92,0-1.83,.11-2.73,.32l-24.45,5.72c-.2,.05-.41,.1-.61,.16l-18.85,5.47c-.95,.28-1.84,.66-2.66,1.13l-.86,.28c-2.22-2.13-5.2-3.35-8.31-3.35-1.08,0-2.18,.15-3.26,.45l-9.53,2.69c-1.76-3.85-5.5-6.64-10-6.98l-9.76-.75-10.74-1.3c-.48-.06-.97-.09-1.45-.09-2.9,0-5.72,1.05-7.92,2.99-2.57,2.26-4.05,5.5-4.08,8.92l-.08,9.95-1.38,13.3-3.59,16.97c-1.27,5.98,2.17,11.94,7.93,13.86,0,.02-.01,.03-.02,.05-1.34,2.89-1.49,6.19-.4,9.18l3.11,8.52,3.32,9.3c1.07,3.01,3.31,5.47,6.2,6.83,1.27,.6,2.63,.96,4,1.09l-3.69,12.05c-1.7,5.55,.82,11.53,5.98,14.19l8.66,4.45c.65,.34,1.34,.61,2.04,.82l10.22,3.07c1.13,.34,2.29,.51,3.45,.51,1.98,0,3.95-.49,5.72-1.45,2.81-1.52,4.89-4.1,5.79-7.17l2.36-8.03,1.25,1.59c2.35,3,5.88,4.6,9.45,4.6,2.18,0,4.38-.59,6.35-1.82l8.53-5.33c1.18-.74,2.22-1.67,3.08-2.77l5.18-6.61,2.12-.61,12.1-2.97c1.32-.32,2.56-.86,3.67-1.59l5.25-1.49,3.75-.91c.54-.05,1.09-.14,1.64-.26l11.05-2.56,9.48-1.73c3.27-.6,6.15-2.53,7.95-5.33,1.79-2.8,2.35-6.22,1.52-9.45l-5.82-22.77c-.01-.05-.03-.11-.04-.16l-14.3-52.84c-1.13-4.19-4.44-7.44-8.64-8.5l-5.04-1.28c-.97-.24-1.95-.37-2.94-.37h0Z" fill="#171717"/>
      </g>
      <g>
        <path d="M447.14,427.71c-.57,0-1.14-.08-1.71-.25l-33.42-9.92c-.12-.04-.25-.08-.37-.12l-32.7-12.07-27.26-8.66-4.47-.8-1.22,.34c-.53,.15-1.07,.22-1.6,.22-2.41,0-4.65-1.46-5.58-3.79l-4.04-10.21c-.07-.19-.14-.38-.19-.57l-1.99-7.03c-.8-2.82,.56-5.8,3.2-7.05l5.63-2.67,3.63-3.06-.33-3.98c-.05-.59-.01-1.18,.11-1.75l2.18-10.2c.13-.62,.37-1.22,.69-1.77l-1.24-.24c-2.9-.56-4.97-3.15-4.86-6.11l.36-9.91-.28-7.46c-.07-1.82,.69-3.57,2.07-4.76,1.1-.95,2.5-1.47,3.93-1.47,.36,0,.72,.03,1.08,.1l14.03,2.56-3.05-3.47-8-6.64c-2.52-2.09-2.9-5.8-.86-8.36l4.7-5.89,3.97-7.03c.79-1.4,2.11-2.42,3.66-2.84,.51-.14,1.04-.21,1.56-.21,1.06,0,2.1,.28,3.03,.82l8.72,5.1c.46,.27,.88,.59,1.25,.97l6.76,6.88c.23-.21,.48-.4,.74-.58,.99-.66,2.15-1,3.32-1,.44,0,.89,.05,1.33,.15l7.35,1.67-.53-2.06c-.45-1.73-.1-3.57,.95-5.01,1.05-1.45,2.69-2.35,4.47-2.47l8.3-.54,12.08-.89c.15-.01,.3-.02,.45-.02,2.87,0,5.36,2.04,5.89,4.91l1.14,6.17,1.72,6.42,.96-1.09,3.99-4.75,3.53-5.35c.9-1.36,2.31-2.29,3.91-2.59,.36-.07,.73-.1,1.1-.1,1.24,0,2.46,.38,3.48,1.11l7.54,5.37,9.57,5.53c1.51,.88,2.57,2.37,2.89,4.08,.32,1.72-.12,3.49-1.21,4.86l-2.37,2.97c.1,.03,.19,.05,.29,.08,.33,.09,.65,.2,.96,.34l8.61,3.97c2.82,1.3,4.18,4.54,3.14,7.46l-2.77,7.77-2.03,6.04c-.84,2.5-3.17,4.09-5.69,4.09-.58,0-1.18-.09-1.77-.27l-1.07-.33s-3.9,16.1-3.91,16.15c0,0-8.05,30.04-8.07,30.1l-2.76,9.17,7.85,1.69c1.86,.4,3.42,1.66,4.2,3.4,.78,1.73,.7,3.74-.23,5.4l-5.58,9.98c-.04,.07-.08,.14-.12,.21l-3.93,6.41c-1.11,1.81-3.07,2.87-5.12,2.87Zm-69.91-68.49l.58-2.17-.67,.75,.09,1.41Zm4.6-38.61c2.37,.44,4.2,2.24,4.74,4.51l1-3.55-2.31-.5c-1.38-.3-2.56-1.06-3.39-2.09l-2.38,1.2,2.35,.44Z" fill="#f7f7f7"/>
        <path d="M364.75,288.64l8.72,5.1,7.39,7.51,5.03,7.02-5.88,4.92-8.79,4.42-7.31-8.32-8.37-6.94,5-6.26,4.21-7.44m58.21,3.02l1.19,6.4,3.11,11.61,5.61,1.23,4.36-4.91,4.26-5.08,3.72-5.64,7.78,5.54,9.81,5.67-4.37,5.46-3.96,4.47c2.13,.66,5.25,1.55,9.38,2.65l8.61,3.97-2.79,7.82-2.05,6.09-27.84-8.56-9.29-2.49-.16,.09-4.39,2.97,14.22,3.67,14.74,5.33,4.06,2.89-3.9,16.1-8.02,29.92-3.81,12.66-9.67-2.59-11.19-3.14,.07-.26-5.12-1.51-21.77-5.42-9.26-2.07-8.44-2.54,1.42-7.36,8.33-31.08,6.34-22.63,8.06,1.88,2.68-1.22,4.14-1.52-.52-.14-21.81-4.74,.44-5.27,1.61-9.11,16.94,3.85-2.98-11.58,8.3-.54,12.13-.9m11.74,58.85l.8-3.52-5.98-2.43-19.73-5.29-1.21,4.51,20.51,5.49,5.61,1.23m-4.19,16.16l1-3.74-6.19-1.66-20.28-5.3-.87,3.77,20.38,5.46c1.31,.26,3.3,.75,5.97,1.46m-4.57,15.5c.29-.75,.66-1.94,1.1-3.58l-6.19-1.66-19.6-5.25c-.44,1.63-.73,2.89-.87,3.77l18.96,5.08,6.61,1.63m-78.28-61.75l17.79,3.25,15.27,2.85,.43,9.24,.33,5.48-1.04,3.87-9.47,10.59,.39,5.77-1.04,11.61-4.74,6.33,18.76,5.3,34.69,11.37,21.67,5.81,15.94,3.44-5.58,9.98-3.93,6.41-33.42-9.92-32.83-12.11-27.77-8.82-6.2-1.11-2.54,.7-4.04-10.21-1.99-7.03,6.33-3,6.6-5.56-.59-7.07,2.18-10.2,5.75-7.03-11.04-2.13,.36-10.13-.29-7.68m17.08-43.78c-1.05,0-2.1,.14-3.13,.41-3.1,.84-5.74,2.88-7.32,5.68l-3.74,6.61-4.4,5.52c-3.24,4.06-3.42,9.59-.84,13.78-2.02,.4-3.93,1.32-5.52,2.7-2.75,2.38-4.27,5.89-4.13,9.52l.27,7.24-.35,9.69c-.15,4.08,1.78,7.82,4.9,10.11l-1.53,7.17c-.25,1.15-.32,2.34-.22,3.51l.07,.88-.67,.56-4.93,2.34c-5.29,2.51-8,8.47-6.41,14.11l1.99,7.03c.11,.39,.24,.77,.39,1.15l4.04,10.21c1.85,4.67,6.34,7.59,11.15,7.59,1.03,0,2.08-.13,3.11-.41l2.74,.49,26.76,8.5,32.57,12.02c.24,.09,.49,.17,.74,.25l33.42,9.92c1.13,.34,2.28,.5,3.42,.5,4.09,0,8.01-2.1,10.23-5.73l3.93-6.41c.08-.14,.17-.28,.24-.42l5.58-9.98c1.86-3.32,2.03-7.33,.46-10.79-1.57-3.47-4.68-5.99-8.4-6.79l-1.5-.32,.89-2.95c.03-.12,.07-.23,.1-.35l8.02-29.92c.02-.09,.05-.19,.07-.28l2.65-10.95c4.32-.65,8.12-3.64,9.61-8.05l2.01-5.98,2.75-7.72c2.09-5.85-.64-12.33-6.28-14.93l-3.4-1.57c.72-2,.91-4.17,.51-6.31-.65-3.44-2.76-6.42-5.79-8.17l-9.32-5.39-7.31-5.21c-2.05-1.46-4.48-2.23-6.96-2.23-.73,0-1.47,.07-2.2,.2-3.2,.6-6.02,2.47-7.82,5.19l-.46,.7c-1.1-5.66-6.07-9.7-11.77-9.7-.3,0-.59,.01-.89,.03l-12.08,.89-8.25,.54c-3.57,.23-6.84,2.04-8.94,4.93-.69,.95-1.23,1.98-1.6,3.07-.87-.2-1.76-.29-2.64-.29-.94,0-1.87,.11-2.78,.33l-3.77-3.83c-.74-.76-1.58-1.41-2.5-1.94l-8.72-5.1c-1.85-1.08-3.95-1.64-6.06-1.64h0Z" fill="#171717"/>
      </g>
    </g>
  </g>
</svg>