<?xml version="1.0" encoding="utf-8"?>
<!-- Generator: Adobe Illustrator 26.5.0, SVG Export Plug-In . SVG Version: 6.00 Build 0)  -->
<svg version="1.1" id="_图层_1" xmlns="http://www.w3.org/2000/svg" xmlns:xlink="http://www.w3.org/1999/xlink" x="0px" y="0px"
	 viewBox="0 0 500 500" style="enable-background:new 0 0 500 500;" xml:space="preserve">
<style type="text/css">
	.st0{fill:#7C7C7C;}
	.st1{fill:#58D6F4;}
	.st2{fill:#17F700;}
	.st3{fill:#171717;}
</style>
<g id="_呜呜呜">
	<g id="_编组_">
		<path class="st0" d="M478.2,156.1V75.5h-26.8V48.7H263.4v26.8h-26.8v134.2h-26.9v53.7h-26.8v26.9h-26.8v26.8h-53.7v-53.7H75.5
			v-26.8H48.7v-53.7H21.8v134.2h26.8v26.8h26.8v26.9h26.8v26.8h26.8v26.9h26.9v26.8h134.2v-26.8h134.2v-53.7h-26.9v26.8H344v-26.8
			h26.9V263.4H344v-53.7h80.5v-26.8H344v-26.8L478.2,156.1L478.2,156.1z M317.1,344h-26.8v-26.8h-53.7v-53.7h26.8v26.9h26.9v26.8
			h26.8V344z M317.1,102.4h-26.8V75.5h26.8V102.4z"/>
		<polygon class="st1" points="317.1,102.4 317.1,236.6 290.3,236.6 290.3,263.4 263.4,263.4 263.4,75.5 290.3,75.5 290.3,102.4 		
			"/>
	</g>
	<g>
		<g>
			<path class="st2" d="M177.8,160.2c-0.1,0-0.2,0-0.4,0l-11.3-0.7c-2.6-0.2-4.9-2.1-5.5-4.6l-1.2-5.1l-1.5-3.4l-12.9,0.5l-14.9,1.1
				c-0.1,0-0.3,0-0.4,0c-2.7,0-5.1-1.8-5.8-4.5l-1.4-5.4c-0.1-0.3-0.1-0.7-0.2-1l-0.7,0.1c-0.2,0-0.3,0-0.5,0c-0.1,0-0.3,0-0.4,0
				l-3.2-0.2L101,137l-9,0.6c-0.1,0-0.3,0-0.4,0c-2.9,0-5.4-2.1-5.9-5.1l-0.9-5.9c0-0.3-0.1-0.6-0.1-0.8l-0.3-22.1l-0.2-28.1
				c0-3.1,2.3-5.7,5.3-6l9.5-1.1c0.1,0,0.3,0,0.4,0l5.5-0.2l6.9-0.3c0.1,0,0.2,0,0.3,0c0.1,0,0.2,0,0.3,0l13.2,0.7
				c0.5,0,1,0.1,1.4,0.2l-0.1-3.2c-0.1-3.1,2.2-5.7,5.2-6.1l3.7-0.5l2.7-2.6l4.1-5.1l3.6-5.8c1.1-1.8,3.1-2.9,5.1-2.9
				c0.6,0,1.1,0.1,1.7,0.2l9.8,2.8c0.4,0.1,0.9,0.3,1.3,0.5l6.5,3.6c1.5,0.8,2.6,2.3,2.9,4c0.2,1.2,0.1,2.5-0.4,3.6l6.5,0.6
				c1.7,0.1,3.2,1,4.2,2.3l4.5,5.8c0.4,0.5,0.7,1.1,0.9,1.7l2.2,6.2c0.2,0.7,0.4,1.4,0.4,2.2l-0.1,5.2c0,0.1,0,0.3,0,0.4l-0.9,10.1
				c0,0.3-0.1,0.5-0.1,0.8l-2.5,10.9l4,1.3c0.7,0.2,1.4,0.6,1.9,1.1l5.4,4.6c1.4,1.2,2.2,3.1,2.1,5l-1.1,16.4c0,0.2-0.1,0.5-0.1,0.7
				l-2.9,15.5c-0.2,1.1-0.7,2.2-1.5,3l-5.5,5.9c-0.9,1-2.2,1.6-3.5,1.8l-8.2,1.2C178.4,160.1,178.1,160.2,177.8,160.2L177.8,160.2z
				 M155.6,89.4c0.9-0.8,1.9-1.3,3.1-1.4l2.1-0.3l0.4-2l-0.1-1.7l-5.4,0.2l-0.1,2.5V89.4z"/>
			<path class="st3" d="M151.3,48.7l9.8,2.8l6.5,3.6l-5.3,6.9l-1.3,1.5l8.6-0.3l9.5,0.8l4.5,5.8l2.2,6.2l-0.1,5.2l-0.9,10.1
				l-2.5,10.9l-8,3.3l-11.8,0.2l-0.9-4.9l-2-6.9l4.8-0.7l1.8-1.3l1.1-5.9l-0.4-7.4l-4.6-0.7L150,78.4l-0.5,8.1v2.6l0.6,20.3l10-0.6
				l25.5,0.2l4.5,1.5l5.4,4.6l-1.1,16.5l-2.9,15.5L186,153l-8.2,1.2l-11.3-0.7l-1.3-5.6l-2.7-6.4l5.8,0.1l4.2-0.6l1.9-2.6l2.2-10.8
				l-0.7-4.1l-5.1-0.6h-16.7l-10.7,0.5l-8.2,0.9l-1.9-6.6l0.2-6.9V94.5l-0.5-20.9l-0.2-8.1l5.6-0.7l4.5-4.2l4.6-5.8L151.3,48.7
				 M112.1,73.9l13.2,0.7l2.2,5.6v34.4l-0.5,15.9l-5.9,0.5l-3.4-0.2l-16.8,0.2h-0.1l-9.2,0.6l-0.9-5.9l-0.3-22.1l-0.2-28.1l9.5-1.1
				l5.5-0.2L112.1,73.9 M105.5,116.9h3.3l2.5-0.2l0.2-12.8L111,91.6l-3.2-0.6l-2.6,0.3l-0.2,12.8L105.5,116.9 M156.2,126.7l11.9,0.1
				l0.8,5.4l-0.4,8h-8.8l-14.9,0.6l-15,1.1l-1.4-5.4l-0.2-7.5l11.4-1.5L156.2,126.7 M151.4,36.7c-4.1,0-8,2.1-10.2,5.7l-3.4,5.5
				l-3.6,4.5l-1,0.9l-1.7,0.2c-5,0.6-8.9,4.2-10.1,8.8l-8.6-0.5c-0.2,0-0.4,0-0.6,0s-0.4,0-0.6,0l-6.9,0.3l-5.5,0.2
				c-0.3,0-0.5,0-0.8,0.1l-9.5,1.1c-6.1,0.7-10.7,5.9-10.7,12l0.2,28.1c0,0,0,0.1,0,0.1l0.3,22.1c0,0.6,0.1,1.1,0.2,1.7l0.9,5.9
				c0.9,5.9,6,10.1,11.8,10.1c0.3,0,0.5,0,0.8,0l8.8-0.6l16.2-0.2h0.2l0.5,2.1c1.4,5.3,6.2,9,11.6,9c0.3,0,0.6,0,0.9,0l14.9-1
				l8.5-0.3l0.9,3.7c1.2,5.2,5.6,9,10.9,9.3l11.3,0.7c0.2,0,0.5,0,0.8,0c0.6,0,1.1,0,1.7-0.1l8.2-1.2c2.7-0.4,5.2-1.7,7.1-3.7
				l5.5-5.9c1.6-1.7,2.6-3.7,3.1-6l2.9-15.5c0.1-0.5,0.1-1,0.2-1.5l1.1-16.4c0.2-3.8-1.3-7.5-4.2-9.9l-5.4-4.6
				c-0.8-0.7-1.8-1.3-2.8-1.8l1.3-5.7c0.1-0.5,0.2-1,0.2-1.5l0.9-10.1c0-0.3,0-0.6,0.1-0.8l0.1-5.2c0-1.5-0.2-2.9-0.7-4.3l-2.2-6.2
				c-0.4-1.2-1-2.3-1.8-3.3l-4.5-5.8c-2.1-2.6-5.1-4.3-8.4-4.6l-1-0.1c-0.8-3.1-2.9-5.8-5.7-7.3L167,41c-0.8-0.5-1.7-0.8-2.6-1.1
				l-9.8-2.8C153.6,36.8,152.5,36.6,151.4,36.7L151.4,36.7L151.4,36.7z"/>
		</g>
		<g>
			<path class="st2" d="M178.6,285.1c-0.1,0-0.2,0-0.4,0l-11.3-0.7c-2.6-0.2-4.9-2.1-5.5-4.6l-1.2-5.1l-1.5-3.4l-12.9,0.5l-14.9,1
				c-0.1,0-0.3,0-0.4,0c-2.7,0-5.1-1.8-5.8-4.5l-1.4-5.4c-0.1-0.3-0.1-0.7-0.2-1l-0.7,0.1c-0.2,0-0.3,0-0.5,0c-0.1,0-0.3,0-0.4,0
				l-3.2-0.2l-16.6,0.2l-9,0.6c-0.1,0-0.3,0-0.4,0c-2.9,0-5.4-2.1-5.9-5l-0.9-5.9c0-0.3-0.1-0.6-0.1-0.9l-0.3-22.1L85,200.5
				c0-3.1,2.3-5.7,5.3-6l9.5-1.1c0.1,0,0.3,0,0.4,0l5.5-0.2l6.9-0.4c0.1,0,0.2,0,0.3,0s0.2,0,0.3,0l13.2,0.7c0.5,0,1,0.1,1.4,0.2
				l-0.1-3.2c-0.1-3.1,2.2-5.7,5.2-6.1l3.7-0.5l2.7-2.6l4.1-5.1l3.6-5.8c1.1-1.8,3.1-2.9,5.1-2.9c0.6,0,1.1,0.1,1.7,0.2l9.8,2.8
				c0.4,0.1,0.9,0.3,1.3,0.5l6.5,3.6c1.5,0.9,2.6,2.3,2.9,4c0.2,1.2,0.1,2.5-0.4,3.6l6.5,0.6c1.7,0.1,3.2,1,4.2,2.3l4.5,5.8
				c0.4,0.5,0.7,1.1,0.9,1.6l2.2,6.2c0.2,0.7,0.4,1.4,0.4,2.2l-0.1,5.2c0,0.1,0,0.3,0,0.4l-0.9,10.1c0,0.3-0.1,0.5-0.1,0.8
				l-2.5,10.9l4,1.4c0.7,0.2,1.4,0.6,1.9,1.1l5.4,4.6c1.4,1.2,2.2,3.1,2.1,5l-1.1,16.5c0,0.2-0.1,0.5-0.1,0.7l-2.9,15.5
				c-0.2,1.1-0.7,2.2-1.5,3l-5.5,5.9c-0.9,1-2.2,1.6-3.5,1.8l-8.2,1.2C179.2,285,179,285.1,178.6,285.1L178.6,285.1z M156.4,214.3
				c0.9-0.8,1.9-1.3,3.1-1.4l2.1-0.3l0.4-2l-0.1-1.7l-5.4,0.2l-0.1,2.5V214.3z"/>
			<path class="st3" d="M152.2,173.6l9.8,2.8l6.5,3.6l-5.3,6.9l-1.3,1.5l8.6-0.4l9.5,0.8l4.5,5.8l2.2,6.2l-0.1,5.2l-0.9,10.1
				l-2.5,10.9l-8,3.3l-11.8,0.2l-0.9-4.9l-2-6.9l4.8-0.7l1.8-1.3l1.1-5.9l-0.4-7.4l-4.6-0.7l-12.2,0.5l-0.5,8.1v2.6l0.6,20.3l10-0.6
				l25.5,0.2l4.5,1.5l5.4,4.6l-1.1,16.5l-2.9,15.5l-5.5,5.9l-8.2,1.2l-11.3-0.7l-1.3-5.6l-2.7-6.4l5.8,0.1l4.2-0.6l1.9-2.6l2.2-10.8
				l-0.7-4.1l-5.1-0.6H155l-10.7,0.5l-8.2,0.9l-1.9-6.6l0.2-6.9v-16.3l-0.5-20.9l-0.2-8.1l5.6-0.7l4.5-4.2l4.6-5.8L152.2,173.6
				 M113,198.9l13.2,0.7l2.2,5.6v34.4l-0.5,15.9l-5.9,0.5l-3.4-0.2l-16.8,0.2h-0.1l-9.2,0.6l-0.9-5.9l-0.3-22.1L91,200.5l9.5-1.1
				l5.5-0.2L113,198.9 M106.4,241.9h3.3l2.5-0.2l0.2-12.8l-0.5-12.3l-3.2-0.6l-2.6,0.4l-0.2,12.8L106.4,241.9 M157,251.6l11.9,0.1
				l0.8,5.4l-0.4,8h-8.8l-14.9,0.6l-15,1.1l-1.4-5.4l-0.2-7.5l11.4-1.5L157,251.6 M152.2,161.6c-4.1,0-8,2.1-10.2,5.7l-3.4,5.5
				l-3.6,4.5l-1,0.9l-1.7,0.2c-5,0.6-8.9,4.2-10.1,8.8l-8.6-0.5c-0.2,0-0.4,0-0.6,0s-0.4,0-0.6,0l-6.9,0.4l-5.5,0.2
				c-0.3,0-0.5,0-0.8,0.1l-9.5,1.1c-6.1,0.7-10.7,5.9-10.7,12l0.2,28.1c0,0,0,0.1,0,0.1l0.3,22.1c0,0.6,0.1,1.1,0.2,1.7l0.9,5.9
				c0.9,5.9,6,10.1,11.8,10.1c0.3,0,0.5,0,0.8,0l8.8-0.6l16.2-0.2h0.2l0.5,2.1c1.4,5.3,6.2,9,11.6,9c0.3,0,0.6,0,0.9,0l14.9-1
				l8.5-0.3l0.9,3.7c1.2,5.2,5.6,9,10.9,9.3l11.3,0.7c0.2,0,0.5,0,0.8,0c0.6,0,1.1,0,1.7-0.1l8.2-1.2c2.7-0.4,5.2-1.7,7.1-3.7
				l5.5-5.9c1.6-1.7,2.6-3.7,3.1-6l2.9-15.5c0.1-0.5,0.1-1,0.2-1.5l1.1-16.4c0.2-3.8-1.3-7.5-4.2-9.9l-5.4-4.6
				c-0.8-0.7-1.8-1.3-2.8-1.8l1.3-5.7c0.1-0.5,0.2-1,0.2-1.5l0.9-10.1c0-0.3,0-0.6,0.1-0.8l0.1-5.2c0-1.5-0.2-2.9-0.7-4.3l-2.2-6.2
				c-0.4-1.2-1-2.3-1.8-3.3l-4.5-5.8c-2.1-2.6-5.1-4.3-8.4-4.6l-1-0.1c-0.8-3.1-2.9-5.8-5.7-7.4l-6.5-3.6c-0.8-0.5-1.7-0.8-2.6-1.1
				l-9.8-2.8C154.4,161.8,153.3,161.6,152.2,161.6L152.2,161.6L152.2,161.6z"/>
		</g>
		<g>
			<path class="st2" d="M176.9,410c-0.1,0-0.2,0-0.4,0l-11.3-0.7c-2.6-0.2-4.9-2.1-5.5-4.6l-1.2-5.1l-1.5-3.4l-12.9,0.5l-14.9,1
				c-0.1,0-0.3,0-0.4,0c-2.7,0-5.1-1.8-5.8-4.5l-1.4-5.4c-0.1-0.3-0.1-0.7-0.2-1l-0.7,0.1c-0.2,0-0.3,0-0.5,0c-0.1,0-0.3,0-0.4,0
				l-3.2-0.2l-16.6,0.2l-9,0.6c-0.1,0-0.3,0-0.4,0c-2.9,0-5.4-2.1-5.9-5l-0.9-5.9c0-0.3-0.1-0.6-0.1-0.9l-0.3-22.1l-0.2-28.1
				c0-3.1,2.3-5.7,5.3-6l9.5-1.1c0.1,0,0.3,0,0.4,0l5.5-0.2l6.9-0.4c0.1,0,0.2,0,0.3,0c0.1,0,0.2,0,0.3,0l13.2,0.7
				c0.5,0,1,0.1,1.4,0.2l-0.1-3.2c-0.1-3.1,2.2-5.7,5.2-6.1l3.7-0.5l2.7-2.6l4.1-5.1l3.6-5.8c1.1-1.8,3.1-2.9,5.1-2.9
				c0.6,0,1.1,0.1,1.7,0.2l9.8,2.8c0.4,0.1,0.9,0.3,1.3,0.5l6.5,3.6c1.5,0.9,2.6,2.3,2.9,4c0.2,1.2,0.1,2.5-0.4,3.6l6.5,0.6
				c1.7,0.1,3.2,1,4.2,2.3l4.5,5.8c0.4,0.5,0.7,1.1,0.9,1.6l2.2,6.2c0.2,0.7,0.4,1.4,0.4,2.2l-0.1,5.2c0,0.1,0,0.3,0,0.4l-0.9,10.1
				c0,0.3-0.1,0.5-0.1,0.8l-2.5,10.9l4,1.4c0.7,0.2,1.4,0.6,1.9,1.1l5.4,4.6c1.4,1.2,2.2,3.1,2.1,5l-1.1,16.5c0,0.2-0.1,0.5-0.1,0.7
				l-2.9,15.5c-0.2,1.1-0.7,2.2-1.5,3l-5.5,5.9c-0.9,1-2.2,1.6-3.5,1.8l-8.2,1.2C177.5,410,177.2,410,176.9,410L176.9,410z
				 M154.7,339.2c0.9-0.8,1.9-1.3,3.1-1.4l2.1-0.3l0.4-2l-0.1-1.7l-5.4,0.2l-0.1,2.5V339.2z"/>
			<path class="st3" d="M150.5,298.5l9.8,2.8l6.5,3.6l-5.3,6.9l-1.3,1.5l8.6-0.4l9.5,0.8l4.5,5.8l2.2,6.2l-0.1,5.2l-0.9,10.1
				l-2.5,10.9l-8,3.3l-11.8,0.2l-0.9-4.9l-2-6.9l4.8-0.7l1.8-1.3l1.1-5.9l-0.4-7.4l-4.6-0.7l-12.2,0.5l-0.5,8.1v2.6l0.6,20.3l10-0.6
				l25.5,0.2l4.5,1.5l5.4,4.6l-1.1,16.5l-2.9,15.5l-5.5,5.9l-8.2,1.2l-11.3-0.7l-1.3-5.6l-2.7-6.4l5.8,0.1l4.2-0.6l1.9-2.6l2.2-10.8
				l-0.7-4.1l-5.1-0.6h-16.7l-10.7,0.5l-8.2,0.9l-1.9-6.6l0.2-6.9v-16.3l-0.5-20.9l-0.2-8.1l5.6-0.7l4.5-4.2l4.6-5.8L150.5,298.5
				 M111.3,323.8l13.2,0.7l2.2,5.6v34.4l-0.5,15.9l-5.9,0.5l-3.4-0.2l-16.8,0.2H100l-9.2,0.6l-0.9-5.9l-0.3-22.1l-0.2-28.1l9.5-1.1
				l5.5-0.2L111.3,323.8 M104.7,366.8h3.3l2.5-0.2l0.2-12.8l-0.5-12.3l-3.2-0.6l-2.6,0.4l-0.2,12.8L104.7,366.8 M155.3,376.5
				l11.9,0.1l0.8,5.4l-0.4,8h-8.8l-14.9,0.6l-15,1.1l-1.4-5.4l-0.2-7.5l11.4-1.5L155.3,376.5 M150.5,286.5c-4.1,0-8,2.1-10.2,5.7
				l-3.4,5.5l-3.6,4.5l-1,0.9l-1.7,0.2c-5,0.6-8.9,4.2-10.1,8.8l-8.6-0.5c-0.2,0-0.4,0-0.6,0s-0.4,0-0.6,0l-6.9,0.4l-5.5,0.2
				c-0.3,0-0.5,0-0.8,0.1l-9.5,1.1c-6.1,0.7-10.7,5.9-10.7,12l0.2,28.1c0,0,0,0.1,0,0.1l0.3,22.1c0,0.6,0.1,1.1,0.2,1.7l0.9,5.9
				c0.9,5.9,6,10.1,11.8,10.1c0.3,0,0.5,0,0.8,0l8.8-0.6l16.2-0.2h0.2l0.5,2.1c1.4,5.3,6.2,9,11.6,9c0.3,0,0.6,0,0.9,0l14.9-1
				l8.5-0.3l0.9,3.7c1.2,5.2,5.6,9,10.9,9.3l11.3,0.7c0.2,0,0.5,0,0.8,0c0.6,0,1.1,0,1.7-0.1l8.2-1.2c2.7-0.4,5.2-1.7,7.1-3.7
				l5.5-5.9c1.6-1.7,2.6-3.7,3.1-6l2.9-15.5c0.1-0.5,0.1-1,0.2-1.5l1.1-16.5c0.2-3.8-1.3-7.5-4.2-9.9l-5.4-4.6
				c-0.8-0.7-1.8-1.3-2.8-1.8l1.3-5.7c0.1-0.5,0.2-1,0.2-1.5l0.9-10.1c0-0.3,0-0.6,0.1-0.8l0.1-5.2c0-1.5-0.2-2.9-0.7-4.3l-2.2-6.2
				c-0.4-1.2-1-2.3-1.8-3.3l-4.5-5.8c-2.1-2.6-5.1-4.3-8.4-4.6l-1-0.1c-0.8-3.1-2.9-5.8-5.7-7.4l-6.5-3.6c-0.8-0.5-1.7-0.8-2.6-1.1
				l-9.8-2.8C152.7,286.6,151.6,286.5,150.5,286.5L150.5,286.5L150.5,286.5z"/>
		</g>
	</g>
</g>
</svg>
