<?xml version="1.0" encoding="UTF-8"?>
<svg id="_图层_1" data-name="图层 1" xmlns="http://www.w3.org/2000/svg" viewBox="0 0 500 500">
  <g id="_在线等" data-name="在线等">
    <g>
      <g>
        <g>
          <polygon points="354.46 393.82 347.09 405.18 334.76 424.18 206.2 424.18 225.91 393.82 354.46 393.82" fill="#a4a4a5" stroke="#171717" stroke-linecap="round" stroke-linejoin="round" stroke-width="6"/>
          <polygon points="354.46 393.82 354.45 405.18 334.74 435.54 206.19 435.54 206.2 424.18 334.76 424.18 347.09 405.18 354.46 393.82" fill="#757575" stroke="#171717" stroke-linecap="round" stroke-linejoin="round" stroke-width="6"/>
          <line x1="334.76" y1="424.18" x2="334.74" y2="435.54" fill="#45454c" stroke="#171717" stroke-linecap="round" stroke-linejoin="round" stroke-width="6"/>
        </g>
        <rect x="237.58" y="363.15" width="87.27" height="45.85" fill="#a4a4a5" stroke="#171717" stroke-linecap="round" stroke-linejoin="round" stroke-width="8"/>
        <g>
          <path d="M428.06,351.86V167.71c0-5.02,6.39-7.15,9.4-3.14l9.93,19.03c2.37,2.9,3.67,6.54,3.67,10.29v138.01c0,3.75-1.3,7.38-3.67,10.29l-9.93,12.83c-3.02,4.01-9.4,1.88-9.4-3.14Z" fill="#a4a4a5" stroke="#171717" stroke-linecap="round" stroke-linejoin="round" stroke-width="8"/>
          <rect x="122.39" y="156.94" width="315.87" height="206.26" rx="10.6" ry="10.6" fill="#a4a4a5" stroke="#171717" stroke-linecap="round" stroke-linejoin="round" stroke-width="8"/>
          <rect x="132.59" y="167.89" width="295.48" height="184.35" rx="5.9" ry="5.9" fill="#171717"/>
        </g>
      </g>
      <g>
        <path d="M177.39,400.65s1.46,39.14-.88,42.68c-2.34,3.54-69.38-20.29-81.73-20.51-25.55-1.9-26.79,33.61-33.91,33.84-7.11,.23-11.76-8.65-11.84-18.41-1.09-18.13,8.17-19.26,12.47-31.37,.55-3.07,3.09-24.92,15.18-22.21,12.09,2.71,6.16,10.39,16.58,13.8,15.17,5.08,38.57,.46,38.57,.46l3.57-26.21,41.99,27.95Z" fill="#ddd" stroke="#171717" stroke-linecap="round" stroke-linejoin="round" stroke-width="10"/>
        <path d="M234,395.51s13.56,62.33-15.16,65.07c-11,2.47-53.6-5.22-67.35-5.21-21.77,.81-41.41,7.43-46.54,13.82-8.85,12.21-31.21,9.92-30.86,.68,.35-9.24,8.27-17.54,13.23-18.53,4.96-.98,14.64-4.62,16.71-10.09,2.07-5.47,6.87-23.52,16.17-23.65s10.3,10.37,15.49,13.81c12.75,7.05,37.71-4.95,47.72-7.91,10.01-2.96,6.61-29.67,6.61-29.67l43.97,1.69Z" fill="#ddd" stroke="#171717" stroke-linecap="round" stroke-linejoin="round" stroke-width="10"/>
        <path d="M319.89,197.14c-32.92-2.26-40.43,45.83-78.3,34.67-37.87-11.16-93.68-38.21-121.81,27.28-28.14,65.49-37.96,147.54-37.96,147.54,0,0,76.99-20.55,92.79,10.24,7.76,13.94,74.79,23,84.35,13.82,9.56-9.18-27.74-102.4-7.56-102.69,7.9-.11,22.77,9.84,36.84,9.56,21.88-.43,29.13-.04,43.99-17.34s32.23-117.12-12.33-123.08Z" fill="#f7f7f7" stroke="#171717" stroke-linecap="round" stroke-linejoin="round" stroke-width="10"/>
        <path d="M219.59,298.86s8.48,26.93,27.42,31.18c12.07,2.48,19.3-2.98,19.3-2.98,0,0-7.26-2.28-22.06-8.47s-24.66-19.73-24.66-19.73Z" fill="#171717"/>
        <path d="M113.39,369.82c13.75-6.22,29.83-7,44.1-1.54,10.8,4.32,20.7,12.74,24.11,24.14,1.03,3.71,1.41,7.85,.03,11.48-1.72-6.75-6.01-12.37-10.86-17.13-14.93-15.36-36.71-18.09-57.38-16.96h0Z" fill="#171717"/>
        <g>
          <path d="M350.69,310.03c-.06,11.73-4.81,23.03-14.16,30.69-10.56,8.61-26.17,6.48-32.07-6.3,2.69,1.07,5.16,2.06,7.6,2.63,17.92,4.71,28.11-15.57,38.63-27.02h0Z" fill="#afafaf"/>
          <path d="M278.59,216.63c.36-13.85,6.3-28.43,18.33-36.2,10.74-6.83,23.78-3.56,30.84,6.58,2.02,2.88,3.55,5.97,4.46,9.27-8.49-6.78-18.65-14.03-29.25-7.85-.41,.27-1.25,.78-1.67,1.02-.79,.6-1.68,1.17-2.43,1.85-8.44,7.11-13.53,16.21-20.28,25.34h0Z" fill="#afafaf"/>
          <path d="M352.07,207.78c17.01,17.73,20.46,51.06,9.18,72.59-1.79-12.47-2.43-24.22-3.95-36.45-1.28-11.92-3.52-24.19-5.24-36.14h0Z" fill="#afafaf"/>
          <path d="M378.26,275.29c5.1,20.83-4.11,51.33-24.39,61.06,4.85-10.33,8.65-19.71,12.42-30.17,3.51-9.41,7.44-21.79,11.97-30.89h0Z" fill="#afafaf"/>
        </g>
      </g>
    </g>
    <g>
      <g>
        <path d="M134,170.34c-.65,0-1.31-.11-1.96-.33l-12.22-4.22-16.05-4.42-16.22-4.11-11.18-2.64c-.36-.09-.71-.2-1.04-.35-.4,.32-.83,.6-1.31,.82-.79,.36-1.64,.54-2.49,.54-.93,0-1.85-.21-2.7-.64l-7.83-3.94-6.77-2.5c-2.96-1.09-4.56-4.28-3.68-7.31l2.14-7.35c-1.34-.45-2.48-1.37-3.21-2.59l-4.26-7.07-4.96-6.11c-1.05-1.29-1.51-2.96-1.29-4.61,.23-1.65,1.13-3.13,2.49-4.08l20.79-14.61,.25-.23,.86-3.83c.38-1.69,1.48-3.13,3-3.96,.89-.48,1.87-.72,2.85-.72,.67,0,1.35,.11,1.99,.34l.3-.28c-3.44-.77-6.3-1.4-8.62-1.9-2.79-.6-4.77-3.07-4.74-5.93,0,0,.08-7.97,.08-8.01l.26-8.56c.05-1.79,.9-3.46,2.31-4.55,1.06-.83,2.36-1.27,3.69-1.27,.43,0,.86,.05,1.29,.14,0,0,20.24,4.46,20.29,4.47l6.72,1.65,9.32-13.59c.92-1.33,2.33-2.24,3.92-2.52,.34-.06,.68-.09,1.02-.09,1.25,0,2.49,.39,3.52,1.14l7.63,5.52c.06,.05,.12,.09,.19,.14l7.43,5.83c2.55,2,3.05,5.66,1.14,8.27l-2.33,3.18,30.67,7.94c1.62,.42,2.99,1.49,3.78,2.96s.94,3.21,.4,4.79l-2.75,8.06-2.32,7.34c-.81,2.55-3.16,4.19-5.72,4.19-.52,0-1.05-.07-1.58-.21l-13.77-3.74c-.03,.17-.07,.35-.11,.52l-1.95,7.26,11.92,2.87c1.6,.39,2.97,1.41,3.79,2.84,.82,1.42,1.02,3.13,.56,4.7l-2.5,8.44-2.27,7.56c-.47,1.58-1.58,2.9-3.06,3.64-.84,.42-1.76,.63-2.68,.63-.7,0-1.4-.12-2.07-.37l-6.98-2.57-3.62-1.02-.33,1.32,6.59,1.77c.08,.02,.16,.04,.23,.07l10.95,3.41c1.57,.49,2.87,1.6,3.6,3.07,.73,1.47,.82,3.18,.25,4.72l-3.53,9.6-2.49,6.58c-.91,2.4-3.18,3.88-5.61,3.88Zm-41.66-40.87l4.2,1.02c.11-.35,.21-.67,.3-.96,.07-.25,.13-.5,.2-.74l-8.44-2.05c-1.83-.44-3.28-1.69-4.03-3.31l-1.08,3.94,8.84,2.09Zm11.1-26.85l1.73-7.7-6.45,6.48,4.72,1.22Z" fill="#17f700"/>
        <path d="M107.05,51.99l7.63,5.52,7.43,5.83-7.56,10.32,39.23,10.15-2.78,8.13-2.34,7.4-33.63-9.13-11.05-2.6-13.28,13.34-8.06,6.83-.45,1.68-5.74,21-3.04,11.77-1.87,7.41-8.13-4.1-7.09-2.62,4.41-15.12,1.09-4.5-7.19,4.91-4.48-7.43-5.23-6.43,21.12-14.84,1.91-1.77,1.27-5.65,3.38,1.26,8.16-7.64,2.61-3.02c-8.36-1.92-14.76-3.36-19.22-4.31l.08-7.89,.26-8.56,20.15,4.44,10.8,2.65,.03-.11,11.6-16.91m4.67,41.17l7.9,4.51,7.79,2.69-3.54,13.2,.34,.09,17.56,4.23-2.5,8.44-2.26,7.54-7.2-2.65-9.81-2.75-2.86,11.58c-.18,.67-.27,1.17-.28,1.48l2.12,.57,10.06,2.7,10.95,3.41-3.53,9.6-2.47,6.53-12.4-4.28-16.3-4.49-16.28-4.12-11.27-2.66,.42-6.48,1.29-9.72,11.5,2.72,9.79,2.38c.78-2.91,1.4-5.06,1.85-6.46,.8-2.98,1.37-5.27,1.72-6.85l-14.29-3.47,.37-7.21,.73-8.08,13.34,3.45,3.5,.82,3.76-16.73m-4.67-53.17c-.68,0-1.37,.06-2.05,.18-3.19,.55-6.02,2.37-7.85,5.03l-6.98,10.17-2.69-.66c-.09-.02-.19-.04-.28-.07l-20.15-4.44c-.86-.19-1.72-.28-2.58-.28-2.65,0-5.25,.88-7.38,2.54-2.82,2.2-4.51,5.53-4.62,9.11l-.26,8.56c0,.08,0,.16,0,.24l-.08,7.89c-.04,4.26,2.17,8.11,5.61,10.28-.09,.3-.17,.6-.24,.91l-.37,1.64-19.13,13.44c-2.72,1.91-4.53,4.87-4.99,8.17-.46,3.3,.47,6.63,2.57,9.22l4.7,5.78,4.05,6.71c.41,.68,.88,1.31,1.4,1.88l-.96,3.28c-1.76,6.05,1.45,12.43,7.36,14.62l6.45,2.38,7.53,3.79c1.7,.85,3.55,1.28,5.4,1.28,1.56,0,3.11-.3,4.58-.91l10.06,2.38,16.06,4.07,15.81,4.35,12.03,4.16c1.3,.45,2.62,.66,3.92,.66,4.86,0,9.41-2.97,11.22-7.76l2.47-6.53s.03-.07,.04-.1l3.53-9.6c1.13-3.09,.95-6.5-.5-9.45-.72-1.47-1.73-2.76-2.95-3.8,.28-.57,.51-1.17,.7-1.79l2.26-7.54,2.51-8.48c.94-3.16,.53-6.56-1.11-9.41-.18-.31-.37-.61-.57-.9,3.9-.99,7.21-3.92,8.5-8.02l2.3-7.27,2.73-8c1.08-3.16,.79-6.63-.79-9.57-1.58-2.94-4.32-5.09-7.56-5.93l-23.03-5.96c1.11-4.46-.41-9.34-4.24-12.34l-7.43-5.83c-.12-.1-.25-.19-.37-.28l-7.63-5.52c-2.06-1.49-4.53-2.28-7.03-2.28h0Z" fill="#171717"/>
      </g>
      <g>
        <path d="M202.45,136.16c-2.34,0-4.53-1.38-5.5-3.61l-2.32-5.33c-.17-.4-.3-.81-.38-1.23l-1.85-9.38c-.6-3.05,1.23-6.06,4.22-6.93l.22-.06s-2.94-5.64-2.94-5.64c-.32-.62-.53-1.29-.63-1.98l-1.39-10.42c-.2-1.51,.18-3.05,1.07-4.29l4.98-6.95c.09-.13,.19-.26,.29-.38l2.05-2.43-1.9-.9c-1.11-.53-2.02-1.38-2.63-2.44l-2.32-4.05c-.29-.5-.5-1.04-.63-1.6l-1.97-8.34c-.42-1.77,0-3.64,1.11-5.07l7.81-9.99,6.57-9.06,6.29-9.61c1.14-1.74,3.05-2.71,5.02-2.71,.76,0,1.52,.14,2.26,.44l9.38,3.82c.67,.27,1.29,.67,1.82,1.16l6.37,5.9c2.4,2.22,2.57,5.96,.4,8.4l-4.46,5,1.33,1.15c.97-1.21,2.39-2.04,4.04-2.21l7.35-.79-.55-15.85c-.1-2.76,1.7-5.23,4.36-5.98l6.14-1.74c.46-.13,.93-.2,1.41-.22l12.27-.46c.08,0,.15,0,.23,0,1.6,0,3.14,.64,4.27,1.79,.72,.73,1.24,1.63,1.51,2.6l1.46-1.37c.39-.37,.83-.68,1.31-.94l6.37-3.36c.88-.47,1.84-.69,2.8-.69,1.63,0,3.23,.66,4.4,1.92l7.53,8.1c.23,.25,.44,.52,.63,.81l6.48,9.96c1.67,2.57,1.14,5.98-1.23,7.92l-5.67,4.63c-.33,.27-.69,.5-1.07,.7l-1.87,.95c.03,.23,.04,.46,.05,.68l.12,8.68c0,.08,0,.17,0,.25,1.48,.81,2.61,2.24,2.99,4l1.85,8.57c.11,.51,.15,1.04,.13,1.57l-.35,6.95c-.09,1.85-1.02,3.49-2.42,4.52l2.95,4.51c1.7,2.59,1.14,6.05-1.28,7.98l-3.12,2.48,4.75,1.81c2.37,.9,3.92,3.19,3.87,5.72l-.12,6.25c-.01,.73-.16,1.44-.43,2.12l-2.78,6.95c-.47,1.18-1.31,2.18-2.39,2.86l-5.56,3.47c-.96,.6-2.06,.91-3.18,.91-.08,0-.16,0-.23,0l-11.93-.46c-.83-.03-1.65-.24-2.39-.6l-9.03-4.4c-.89-.44-1.67-1.09-2.25-1.9l-.63-.88-2.57,1.51c-.17,.1-.34,.19-.52,.27l-10.54,4.86c-.81,.37-1.67,.55-2.51,.55-1.83,0-3.61-.84-4.78-2.36l-3.7-4.86c-.19-.25-.36-.51-.5-.78l-10.51,2.38-11.56,3.2-14.33,3.73c-.5,.13-1.01,.19-1.51,.19Zm42.01-30.68l4.8-1.75,3.22-1.8s-1.37-4.45-1.38-4.48l-4.66,.75-.02,1.25c-.03,1.95-1,3.69-2.49,4.77l.53,1.25Z" fill="#17f700"/>
        <path d="M287.66,26.42l7.53,8.1,6.48,9.96-5.67,4.63-5.67,2.89,.58,4.17,.12,8.68-18.06,1.27-2.66,.23,.93,6.83,22.92-2.89,1.85,8.57-.35,6.95-8.68,.69,5.56,4.86,4.63,7.06-10.77,8.57-4.17,2.89,2.55,2.78,1.62,.23,1.04-1.62,.81-5.33,6.37,4.86,5.79,2.2-.12,6.25-2.78,6.95-5.56,3.47-11.93-.46-9.03-4.4-3.82-5.33-7.29,4.28-10.54,4.86-3.7-4.86-4.05-10.88,10.19-3.7,7.87-4.4-2.78-9.03-.69-5.21-12.97,2.08-1.16-6.14-.93-8.8,13.2-2.2-.93-7.53-6.37,.58-5.79,.58-.58-3.24-6.37,6.14-9.03,9.15-5.09,6.37,18.18-4.86,2.2,9.49-.12,7.18-14.01,1.97-18.06,3.82-6.25,1.62-2.9-5.56-1.39-10.42,4.98-6.95,6.95-8.22-3.94-2.08-4.86-2.32-2.32-4.05-1.97-8.34,7.87-10.07,6.71-9.26,6.37-9.73,9.38,3.82,6.37,5.9-8.68,9.73-8.57,11.58,4.17,2.55,8.92-10.54,8.45,7.29,2.78,4.17-.46-2.43-.58-8.45,12.97-1.39-.12-1.51-.69-19.91,6.14-1.74,12.27-.46-.58,11.35,.35,10.65,8.34-.81,7.29-.69-1.39-2.2-3.94-5.79-4.52-5.67,5.79-5.44,6.37-3.36m-3.01,60.32l-6.25,.46-5.33,.69,.23,2.08,1.39,5.44,9.96-8.68m-14.7-58.35h0m-32.54,75.84l2.9,6.83,1.85,9.03-13.78,3.13-11.69,3.24-14.24,3.71-2.32-5.33-1.85-9.38,19.57-5.67,10.77-3.13,8.8-2.43M287.66,14.42c-1.9,0-3.82,.45-5.59,1.39l-5.22,2.76c-1.95-1.37-4.32-2.17-6.89-2.17h-.02s0,0,0,0h-.02s0,0,0,0c-.16,0-.32,0-.48,.01l-12.2,.46c-.95,.04-1.9,.19-2.81,.44l-6.14,1.74c-4.65,1.32-7.99,5.26-8.62,9.93l-4.5-4.17c-1.06-.98-2.29-1.77-3.63-2.31l-9.38-3.82c-1.47-.6-3.01-.89-4.52-.89-3.95,0-7.77,1.96-10.04,5.43l-6.21,9.49-6.42,8.86-7.74,9.9c-2.24,2.87-3.06,6.6-2.22,10.15l1.97,8.34c.26,1.12,.69,2.2,1.26,3.2l2.32,4.05c.33,.58,.7,1.12,1.12,1.63l-3.58,4.99c-1.78,2.48-2.54,5.55-2.14,8.58l1.39,10.42c.18,1.38,.61,2.72,1.25,3.96l.52,.99c-2.26,2.7-3.3,6.35-2.57,10.03l1.85,9.38c.17,.84,.42,1.67,.77,2.46l2.32,5.33c1.94,4.46,6.32,7.22,11,7.22,1,0,2.02-.13,3.02-.39l14.24-3.71c.06-.02,.12-.03,.18-.05l11.42-3.17,6.53-1.48,1.95,2.56c2.33,3.06,5.9,4.73,9.55,4.73,1.69,0,3.41-.36,5.02-1.11l10.08-4.65c.41,.27,.84,.51,1.28,.73l9.03,4.4c1.5,.73,3.13,1.14,4.79,1.2l11.93,.46c.16,0,.31,0,.47,0,2.25,0,4.45-.63,6.36-1.82l5.56-3.47c2.16-1.35,3.83-3.35,4.78-5.72l2.78-6.95c.54-1.35,.83-2.78,.86-4.23l.12-6.25c.07-3.77-1.63-7.27-4.45-9.55,1.8-3.69,1.63-8.19-.75-11.84l-.65-.99c.63-1.36,1.02-2.87,1.1-4.45l.35-6.95c.05-1.05-.03-2.11-.26-3.14l-1.85-8.57c-.47-2.16-1.49-4.06-2.89-5.58l-.04-3.28c.22-.16,.44-.32,.65-.49l5.67-4.63c4.75-3.88,5.81-10.71,2.47-15.84l-6.48-9.96c-.37-.57-.8-1.12-1.26-1.62l-7.53-8.1c-2.33-2.51-5.54-3.84-8.8-3.84h0Z" fill="#171717"/>
      </g>
      <g>
        <path d="M420.73,165.92c-2.37,0-4.59-1.41-5.54-3.7l-2.05-4.94-.85-1.07c-.08,.17-.16,.33-.25,.49l-3.11,5.39c-1.08,1.87-3.07,3-5.19,3-.28,0-.55-.02-.83-.06l-10.58-1.48-8.94-1.35c-1.66-.25-3.13-1.18-4.07-2.57-.94-1.39-1.26-3.1-.88-4.73l.11-.47-8.77,2.46c-.54,.15-1.09,.22-1.62,.22-2.33,0-4.52-1.37-5.5-3.6l-2.48-5.69c-.09-.22-.18-.44-.25-.67l-1.71-5.67c-2.05-.21-3.92-1.47-4.84-3.44l-1.98-4.26c-.1-.22-.19-.44-.26-.67l-2.69-8.27c-.51-1.56-.36-3.26,.43-4.71,.78-1.45,2.12-2.51,3.71-2.94l5.03-1.37-.91-3.09-2.39-7.16c-.25-.76-.35-1.55-.29-2.33l-11.87-1.51c-1.82-.23-3.44-1.29-4.39-2.86-.95-1.58-1.12-3.5-.47-5.22l3.32-8.74,2.42-9.66,.63-6c.33-3.08,2.93-5.37,5.96-5.37,.19,0,.39,0,.59,.03l6.44,.63,9.11-.5c.11,0,.22,0,.33,0,1.71,0,3.35,.73,4.49,2.02,.43,.48,.77,1.02,1.02,1.6l12.99-3.75c.55-.16,1.11-.24,1.67-.24,.88,0,1.75,.2,2.54,.56l.29-1.1,1.08-5.51c.55-2.81,3-4.84,5.86-4.85l8.91-.04,8.17-.55c.13,0,.27-.01,.4-.01,1.75,0,3.41,.76,4.56,2.1,.26,.3,.48,.63,.67,.97,0,0,.33-.09,.38-.11l17.84-4.54c.5-.13,.99-.19,1.48-.19,2.54,0,4.87,1.62,5.7,4.13l1.95,5.95c.09,.27,.16,.55,.21,.83l1.4,7.9c.57,3.23-1.55,6.31-4.77,6.94l-5.72,1.11-.12,.64c1.83,.57,3.35,2.01,3.95,3.96l1.84,5.98c.03,.1,.06,.21,.09,.31l1.22,4.87,4.19-1.01c.46-.11,.94-.17,1.41-.17,1.11,0,2.21,.31,3.17,.91,1.37,.85,2.33,2.21,2.68,3.78l1.82,8.14c.03,.12,.05,.24,.07,.37l.88,5.52c.24,1.49-.1,2.95-.85,4.14l1.86,5.79c.06,.19,.11,.38,.15,.58l1.4,6.58c.69,3.21-1.34,6.38-4.55,7.1l-10.86,2.45,1.48,5.54,1.53,5.28c.41,1.41,.29,2.92-.34,4.25l-1.76,3.71c-.71,1.5-2.01,2.63-3.58,3.14l-20.31,6.52c-.61,.2-1.23,.29-1.83,.29Z" fill="#17f700"/>
        <path d="M438.42,56.41l1.95,5.95,1.4,7.9-9.69,1.88-1.42,7.21-2.9,6.17,7.52-1.9,1.84,5.98,1.63,6.52-7.52,1.9-21.11,5.3c.33,.95,.74,2.32,1.22,4.11l11.74-3.15,26.69-6.43,1.82,8.14,.88,5.52-13.63,2.81-14.74,3.59,10.4-.99c.32,1.19,.52,2.1,.61,2.71l16.39-4.15,2.19,6.84,1.4,6.58-16.96,3.82,3.12,11.63,1.55,5.34-1.76,3.71-20.31,6.52-2.37-5.72-3.62-4.54,7.76-2.8v-2.64s-1.97-7.38-1.97-7.38l-20.16,5.28c-2.98,.8-5.25,1.45-6.79,1.94l4.45,.49,11.04,1.84-2.24,7.31-3.11,5.39-10.58-1.48-8.87-1.34,1.68-7.16,.71-3.19-18.5,5.2-2.48-5.69-2.17-7.21,16.56-3.96,25.66-7.12,11.55-2.97c-.5-1.86-.92-3.27-1.25-4.22-2.01,.54-3.52,.9-4.5,1.09l-26.25,7.15-26.44,7.33-1.98-4.26-2.69-8.27,30.05-8.17,9.95-2.67-.83-4.45-29.49,8.02-1.4-4.78-2.43-7.26,25.64-6.75c2.01-.54,3.49-.98,4.44-1.31l-.66-2.46-2.32-5.97,11.28-2.18,2.25-.12-9.73-2.31,.15,.56-7.78,1.84,1.03,2.48,2.45,5.58-8.54,3.49-7.04,3.69-1.59-5.93-1.63-5.2c-1.62,.51-4.03,1.2-7.24,2.06-.14-.52-.28-.88-.41-1.09l-.19,.65-2.94,6.9-14.27-1.81,3.44-9.07,2.61-10.41,.68-6.41,6.89,.67,9.57-.53-1,5.66,3.91-1.05,17.24-4.98,2.85,5.71c.52,1.94,.87,3.4,1.06,4.39l2.1-5.12,2.67-10.18,1.11-5.69,9.1-.04,8.36-.56-1.15,5.1,8.25-2.33,17.84-4.54m-35.36,28.17l2.25-.12,1.48,6.43,1.79-.48,17.17-4.36-5.69-1.11-7.21-.95,1.93-7.11,.05-.25-5.93,1.59-.91-2.51-1.13,2.94-3.8,5.93m10.42-26.41h0m-47.41,11.86h0m72.34-25.63c-.98,0-1.97,.12-2.97,.37l-14.81,3.77c-1.98-1.48-4.43-2.35-7.08-2.37-.03,0-.06,0-.09,0-.05,0-.1,0-.15,0-.26,0-.52,.01-.77,.03l-7.86,.53-8.72,.04c-5.72,.03-10.63,4.09-11.72,9.7l-.28,1.41c-.36,.07-.71,.15-1.06,.26l-9.18,2.65c-2.05-1.7-4.68-2.73-7.54-2.75-.04,0-.07,0-.11,0-.07,0-.14,0-.21,0-.18,0-.36,.01-.54,.02l-8.56,.47-5.98-.58c-.39-.04-.79-.06-1.18-.06-6.07,0-11.27,4.58-11.92,10.74l-.59,5.58-2.23,8.91-3.19,8.41c-1.3,3.44-.96,7.28,.93,10.44s5.13,5.26,8.78,5.73l7.62,.97,1.02,3.05c-2.75,1-5.04,2.98-6.44,5.57-1.56,2.89-1.87,6.3-.85,9.42l2.69,8.27c.15,.46,.32,.9,.53,1.34l1.98,4.26c1.17,2.51,3.11,4.45,5.44,5.64l.81,2.68c.14,.46,.3,.9,.49,1.34l2.48,5.69c1.95,4.46,6.33,7.2,11,7.2,1.08,0,2.17-.15,3.25-.45l2.34-.66c.18,.34,.38,.67,.6,.99,1.88,2.77,4.83,4.63,8.14,5.13l8.87,1.34s.09,.01,.13,.02l10.58,1.48c.56,.08,1.11,.12,1.66,.12,3.01,0,5.89-1.13,8.08-3.13,2.27,2.52,5.52,3.97,8.92,3.97,1.22,0,2.45-.19,3.67-.58l20.31-6.52c3.15-1.01,5.75-3.28,7.17-6.27l1.76-3.71c1.26-2.65,1.51-5.68,.69-8.5l-1.36-4.67,4.76-1.07c6.41-1.45,10.47-7.78,9.1-14.21l-1.4-6.58c-.08-.39-.19-.78-.31-1.16l-1.17-3.65c.52-1.7,.67-3.53,.37-5.4l-.88-5.52c-.04-.25-.09-.49-.14-.73l-1.82-8.14c-.7-3.14-2.64-5.86-5.37-7.57-1.92-1.2-4.12-1.81-6.35-1.81-.41,0-.81,.02-1.22,.06l-1.5-4.87c4.69-2.29,7.5-7.49,6.54-12.87l-1.4-7.9c-.1-.56-.24-1.11-.42-1.65l-1.95-5.95c-1.65-5.02-6.33-8.26-11.4-8.26h0Z" fill="#171717"/>
      </g>
    </g>
  </g>
</svg>