<?xml version="1.0" encoding="UTF-8"?>
<svg id="_图层_1" data-name="图层 1" xmlns="http://www.w3.org/2000/svg" viewBox="0 0 500 500">
  <g id="_妙啊" data-name="妙啊">
    <g>
      <g>
        <path d="M122.05,264.61c-32.68,6.54-65.35-11.81-76.55-42.48-10.76-29.48,.91-63.19,28.12-80.04,0,0-3.9-22.63,20.73-42.94,24.63-20.32,42.79-16.01,42.79-16.01,0,0,11.24-24.52,47.56-29.57,36.32-5.06,61.57,10.18,61.57,10.18,0,0,32.53-15.54,63.13-7.08,30.6,8.47,37.84,26.47,37.84,26.47,0,0,33.86,.49,48.64,19.37,14.78,18.88,12.26,41.22,12.26,41.22,0,0,41.51,20.52,36.99,62.39-4.51,41.87-39.04,55.62-39.04,55.62,0,0,.41,44.12-47.41,57.46-47.82,13.34-76.55-25.65-76.55-25.65,0,0-79.42,16.01-113.49,6.36-34.07-9.65-46.59-35.3-46.59-35.3Z" fill="#e096aa" stroke="#171717" stroke-linecap="round" stroke-linejoin="round" stroke-width="10"/>
        <path d="M90.49,207.2s-6.82-14.11,4.46-27.86c11.29-13.75,27.4-8.77,27.4-8.77,0,0-11.7-24.89,4.77-36.94s37.87-.31,37.87-.31c0,0,8.06-30.83,36.94-34.17,25.09-2.92,47.46,16.88,47.46,16.88,0,0,24.88-21.96,52.28-13.19,27.4,8.77,28.47,30.78,28.47,30.78,0,0,27.39-7.1,38.11,5.42s3.29,36.6,3.29,36.6c0,0,29.19,7.7,22.32,37.56-6.87,29.86-36.48,23.24-36.48,23.24,0,0,1.03,17.29-16.37,19.14-17.39,1.85-28.27-7.44-28.27-7.44,0,0-4.31,17.55-26.48,16.01-22.16-1.54-28.32-16.47-28.32-16.47,0,0-12.01,19.61-36.32,17.15-24.32-2.46-28.94-19.3-28.94-19.3" fill="none" stroke="#171717" stroke-linecap="round" stroke-linejoin="round" stroke-width="10"/>
        <path d="M136.88,282.76s-23.45-20.2-17.09-48.52c8-39.4,45.66-22.11,45.66-22.11,0,0-1.24-28.81,20.31-39.11,15.86-7.53,26.02-5.21,26.02-5.21" fill="none" stroke="#171717" stroke-linecap="round" stroke-linejoin="round" stroke-width="10"/>
      </g>
      <g>
        <g>
          <path d="M436.28,155.45c-16.49,16.49-38.68,23.79-60.22,21.9-10.06-.88-19.99,2.76-27.13,9.91l-5.01,5.01-51.62-51.62,5.01-5.01c7.12-7.12,10.8-17.02,9.91-27.05-1.89-21.31,5.23-43.28,21.34-59.73,29.06-29.68,77.16-30.3,106.95-1.34,30.37,29.52,30.62,78.08,.77,107.93Z" fill="#f4e745" stroke="#171717" stroke-linecap="round" stroke-linejoin="round" stroke-width="10"/>
          <path d="M343.92,192.27l-11.43,11.43c-14.25,14.25-27.35,24.27-51.62,0-24.27-24.27-14.25-37.36,0-51.61l11.43-11.43,51.62,51.62Z" fill="#d8ddca" stroke="#171717" stroke-linecap="round" stroke-linejoin="round" stroke-width="10"/>
          <line x1="275.58" y1="157.62" x2="326.95" y2="208.99" fill="none" stroke="#171717" stroke-linecap="round" stroke-linejoin="round" stroke-width="10"/>
          <polyline points="340.33 130.86 311.42 159.77 324.8 173.15 353.67 144.28" fill="none" stroke="#171717" stroke-linecap="round" stroke-linejoin="round" stroke-width="10"/>
          <path d="M340.33,130.86c3.64-3.64,5.55-8.59,5.65-13.74,.1-5.56,2.39-11.09,6.87-15.18,7.86-7.19,20.12-7.31,28.11-.27,9.22,8.12,9.57,22.2,1.01,30.76-4.13,4.13-9.54,6.19-14.95,6.17-5.02-.01-9.8,2.14-13.35,5.69" fill="none" stroke="#f7f7f7" stroke-linecap="round" stroke-linejoin="round" stroke-width="10"/>
          <path d="M446.89,106.14c1.52-19.51-12.83-48.85-23.35-31.73-7.14,12.4,9.77,14.22,5.56,31.23-4.21,17.01-17.12,6.13-17.99,18.8-.77,19.37,32.35,25.7,35.78-18.29Z" fill="#f7f7f7"/>
        </g>
        <path d="M250.54,144.51c20.29,.54,45.7,22.36,37.37,60.14-7.98,25.02-32.09,20.64-32.09,20.64" fill="#e096aa" stroke="#171717" stroke-linecap="round" stroke-linejoin="round" stroke-width="10"/>
        <path d="M255.82,225.3s11.49,2.03,23.77-5.22c9.72-7.54,14.13-17.95,34.6-13.06,17.11,4.54,20.48,17.38,20.48,17.38" fill="#e096aa" stroke="#171717" stroke-linecap="round" stroke-linejoin="round" stroke-width="10"/>
      </g>
    </g>
    <g>
      <g>
        <path d="M139.11,467.77c-1.29,0-2.55-.41-3.6-1.2l-15.69-11.76c-2.29-1.72-3.05-4.82-1.8-7.41l4.33-8.98c-.3-.16-.58-.34-.85-.55l-6.02-4.65c-.45-.34-.84-.75-1.17-1.2l-6.12-8.36c-.77-1.05-1.18-2.33-1.16-3.63l.07-4.37s-.1,0-.15,0c-2,0-3.93-1-5.06-2.77l-4.63-7.26c-.18-.28-.33-.57-.46-.88l-4.44-10.45c-.63-1.49-.64-3.17-.01-4.66,.62-1.49,1.82-2.67,3.33-3.26l10.33-4.08c.35-.17,.69-.33,1.02-.48l-.07-3.88-3.13-22.66c-.45-3.23,1.77-6.23,4.99-6.75l9.73-1.56c.2-.03,.41-.05,.61-.07l10.58-.6c.11,0,.23,0,.34,0,2.97,0,5.52,2.19,5.94,5.16,0,0,2.34,16.55,2.34,16.56l15.77-7.25c.79-.37,1.65-.55,2.5-.55s1.63,.17,2.39,.5c.48,.21,.92,.47,1.32,.79,.49-.7,1.14-1.3,1.9-1.74,.92-.54,1.96-.81,3.01-.81,.66,0,1.31,.11,1.95,.32l2.19,.75-.75-2.69-7.06-22.48c-.53-1.7-.29-3.54,.67-5.04,.96-1.5,2.54-2.49,4.3-2.71,0,0,12.7-1.59,12.76-1.6l8.45-.77c.18-.02,.37-.02,.55-.02,2.71,0,5.12,1.84,5.81,4.51l6.48,25.3,.21,.7,1.9-3.14c1.13-1.87,3.11-2.9,5.14-2.9,1.04,0,2.09,.27,3.05,.84l14.9,8.84c.33,.19,.63,.42,.92,.67l14.87,13.18c2.28,2.02,2.69,5.44,.93,7.94l-4.58,6.53-5.57,8.56-3.07,14.42c-.04,.17-.08,.33-.13,.5l-4.21,13.81c-.11,.35-.25,.69-.41,1.02l-7.38,14.21c-.22,.42-.49,.81-.8,1.17l-10.15,11.67c-.39,.45-.85,.84-1.35,1.15l-18.03,11.25c-.98,.61-2.08,.91-3.17,.91-1.46,0-2.91-.53-4.05-1.57l-7.71-7.04-4.31-4.05c-.64,1.2-1.69,2.15-2.96,2.69-.74,.31-1.53,.47-2.32,.47-.92,0-1.85-.21-2.69-.64l-8.33-4.19-6.86,13.06c-.82,1.56-2.28,2.67-3.99,3.06-.44,.1-.88,.15-1.32,.15Zm34.87-41.74c1.5,.76,2.61,2.12,3.06,3.75,.45,1.62,.19,3.36-.7,4.79l-.67,1.06,6.16-4.26,9.43-12.23,1.74-3.21-2.66,.86c-.6,.2-1.23,.29-1.85,.29-1.04,0-2.08-.27-3-.81-1.47-.85-2.51-2.29-2.87-3.95l-.36-1.7c-.57,1.04-1.44,1.9-2.53,2.46-.86,.44-1.79,.66-2.73,.66s-1.88-.22-2.73-.66l-8.93-4.57-1.97,12.1,10.61,5.42Z" fill="#17f700"/>
        <path d="M188.3,330.7l6.51,25.41,4.22,14.09,3.43-6.14,5.37-8.9,14.9,8.84,14.87,13.18-4.64,6.62-6.24,9.58-3.31,15.51-4.21,13.81-7.38,14.21-10.15,11.67-18.03,11.25-7.7-7.04-6.18-5.8,16.24-11.22,10.3-13.35,7.19-13.27,2.06-4.58-6.35,3.04-10.71,3.47-2.24-10.59-2.26-9.54-2.76-10.3-1.3,7.96-2.93,19.14-8.99-4.6-8.2-4.97,1.95-11.12-3.65,1.42,1.14,5.37,.48,11.81-2.6,15.92-.77,2.15,4.34,2.27,10.55,5.38-5.86,9.33-3.09,9.63-12.59-6.33c-.47-.27-.81-.43-1.02-.47l-9.59,18.24-15.69-11.76,7.2-14.91-5.45-1.97-6.02-4.65-6.12-8.36,.2-13.18-6.28,2.73-4.63-7.26-4.44-10.45,10.52-4.16c1.85-.89,3.41-1.56,4.69-2l-.14-8.32-3.18-23.02,9.73-1.56,10.58-.6,2.34,16.53,.56,8.21,6.52-2.94,17.14-7.88,3.83,11.51,1.82,6.23,.91-8.3,2.06-10.7,9.04,3.1,3.94,1.33-3.83-13.75-7.09-22.57,12.56-1.58,8.45-.77m17.77,62.99l1.15-6.28,10.28,2.17,7.56,2.6-3.8-3.61-10.49-8.53-11.19-8.34,2.63,8.7,3.86,13.29m-67.98,20.3l1.99-10.38-.42-8.24-3.65,1.43-1.46,.69-.12,1.23-1.54,12.65,5.18,2.64m50.21-95.29c-.36,0-.73,.02-1.1,.05l-8.45,.77c-.13,.01-.27,.03-.4,.04l-12.56,1.58c-3.53,.44-6.68,2.43-8.6,5.42s-2.42,6.69-1.35,10.08l5.34,17c-.64,.23-1.27,.52-1.87,.86-.88-.2-1.78-.3-2.68-.3-1.71,0-3.42,.37-5.01,1.1l-8.45,3.88-1.22-8.59c-.84-5.95-5.94-10.32-11.87-10.32-.23,0-.46,0-.68,.02l-10.58,.6c-.41,.02-.82,.07-1.23,.13l-9.73,1.56c-6.44,1.03-10.88,7.03-9.98,13.49l3.01,21.77-7.42,2.94c-3.01,1.19-5.41,3.54-6.66,6.53-1.25,2.98-1.24,6.35,.03,9.32l4.44,10.45c.26,.61,.57,1.2,.93,1.76l4.63,7.26c1.09,1.7,2.54,3.05,4.2,3.99,0,2.55,.81,5.04,2.32,7.1l6.12,8.36c.66,.91,1.45,1.72,2.34,2.41l2.99,2.31-2.18,4.52c-2.49,5.17-.98,11.37,3.61,14.82l15.69,11.76c2.1,1.57,4.63,2.4,7.2,2.4,.88,0,1.76-.1,2.64-.29,3.43-.77,6.35-3.01,7.98-6.12l4.12-7.84,3.07,1.54c1.69,.85,3.54,1.28,5.39,1.28,1.58,0,3.16-.31,4.64-.93,.14-.06,.29-.12,.43-.19l.36,.33s.08,.07,.12,.11l7.7,7.04c2.27,2.07,5.17,3.14,8.1,3.14,2.19,0,4.39-.6,6.35-1.82l18.03-11.25c1.01-.63,1.92-1.41,2.7-2.31l10.15-11.67c.62-.72,1.16-1.5,1.59-2.34l7.38-14.21c.34-.65,.62-1.33,.83-2.03l4.21-13.81c.1-.33,.19-.66,.26-1l2.84-13.33,4.91-7.54,4.52-6.44c3.51-5,2.7-11.83-1.86-15.88l-14.87-13.18c-.57-.5-1.18-.95-1.84-1.34l-14.9-8.84c-1.92-1.14-4.03-1.68-6.11-1.68-1.3,0-2.58,.21-3.81,.62l-4.11-16.06c-1.37-5.35-6.19-9.02-11.62-9.02h0Zm-11.3,101.04c.95,0,1.91-.11,2.84-.34,.66,.69,1.41,1.3,2.23,1.82l-1.76,2.29c-1-1.15-2.22-2.12-3.61-2.82l-2.48-1.27c.91,.22,1.85,.33,2.78,.33h0Z" fill="#171717"/>
      </g>
      <g>
        <path d="M362.59,479.8c-.44,0-.88-.05-1.32-.15l-10.41-2.34c-.2-.04-.39-.1-.58-.16l-6.85-2.28c-2.59-.86-4.27-3.36-4.09-6.08l.58-8.91-1.01-6.99c-.27-1.86,.35-3.73,1.67-5.07,.78-.79,1.74-1.33,2.79-1.6l-1.14-.43-.67-.1c-.22-.03-.43-.08-.65-.13l-9.5-2.55-1.46-.26c-.35-.06-.69-.16-1.02-.28l-5.21-1.93-1.87,1.41c-.83,.62-1.81,1.02-2.84,1.15l-6.03,.77c-.25,.03-.51,.05-.76,.05-.65,0-1.3-.11-1.92-.32l-2.62-.89-3.83,15.11c-.69,2.71-3.13,4.53-5.81,4.53-.47,0-.94-.05-1.41-.17l-11.35-2.74c-.64-.16-1.26-.42-1.82-.77l-4.84-3.09c-2.24-1.43-3.28-4.17-2.54-6.73l3.95-13.68-8.33-2.35-5.36-1.29-14.57-3.46c-.49-.12-.96-.29-1.39-.52l-1.38-.37c-3.14-.84-5.04-4.04-4.28-7.2,0,0,2.69-11.16,2.7-11.2l11.5-43.48,5.6-20.9c.71-2.66,3.12-4.45,5.79-4.45,.36,0,.72,.03,1.09,.1l7.11,1.31c.16,.03,.31,.06,.47,.1l1.19,.32,13.83,2.68c.32,.06,.63,.15,.93,.26l8.97,3.3c.71,.26,1.36,.65,1.93,1.16l.07-1.6c.02-.41,.08-.82,.18-1.22l2.73-10.76c.68-2.68,3.1-4.52,5.81-4.52,.22,0,.44,.01,.67,.04l15.22,1.69c.72,.08,1.42,.29,2.07,.62l9.19,4.7c.78,.4,1.46,.96,2,1.65l2.98,3.82c1.06-.89,2.42-1.4,3.84-1.4,.39,0,.78,.04,1.17,.12l10.63,2.1c.09,.02,.18,.04,.28,.06l21.55,5.33,13.83,3.26c.34,.08,.68,.19,1,.33l5.48,2.37c2.65,1.14,4.11,4.01,3.48,6.82l-2.31,10.28c-.05,.21-.11,.42-.18,.63l-3.46,10.12c-.52,1.52-1.63,2.77-3.08,3.47-.82,.39-1.71,.59-2.6,.59-.13,0-.26,0-.4-.01l-7.89,26.94-9.51,34.93-5.8,23.3c-.4,1.62-1.46,3-2.93,3.81l-4.38,2.41c-.89,.49-1.89,.74-2.89,.74Zm-3.56-99.12c.28,.07,.56,.16,.83,.26l5.24,2.1,.97-4.2-9.94-2.34-8.98-1.79-1.04,2.82,2.39,.49c.12,.02,.23,.05,.34,.08l1.67,.45,2.82,.61c.48,.1,.94,.27,1.37,.48l4.33,1.04Z" fill="#17f700"/>
        <path d="M314.61,337.09l15.22,1.69,9.19,4.7,5,6.41,1.26,12.57-4.91,13.31-4.77,9.46-4.54,8.04-.04,6.85,.14,8.39-.99,7.05,8.49-32.79,6.25,.63,2.4,.5,1.81,.49,2.96,.64-.04,.14,5.61,1.35,6.74,2.7,1.91,2.9-5.77,20.99-5.2,18.3-3.54,10.99-3.94-.91-4.07-1.54-1.29-.2-9.75-2.61-1.71-.31-5.84-2.16,2.4-9.5-3.91,7.91-5.42,4.07-6.03,.77-6.43-2.17,.68-6.98-.5-3.71-7.94,31.3-11.35-2.74-4.84-3.09,8.2-28.39,8.61-31.57,8.41-32.51,7.04,1.59,8.35,4.48-7.61,26.16-7.42,29.35,2.68,.57,2.91-2.5,1.56-5.25,.37-7.51-.19-3.19,.34-7.97,3.5-10.85,7.62-14.52,.45-7.79-4.61-4.52-10.46-1.61,.29-6.64,2.73-10.76m29.65,85.39l4.78-17.82-1.35-.51-1.89-.21-3.33,10.75-1.69,6.86,2.05,.7,1.43,.23m-73.95-76.52l3.56,.65,3.56,.65,1.39,.37,14.04,2.72,8.97,3.3,3.1,2.92-13.7,49.45-7.05,24.08-10.96-3.09-5.47-1.32-14.59-3.46,.04-.14-2.65-.71,2.67-11.07,11.5-43.48,5.6-20.88m3.82,63.7l6.46-22.44,3.63-16.34-4.42-1.33-4.68,16.35-5.51,22.25,4.52,1.51m76.45-61.44l10.63,2.1,21.55,5.33,13.9,3.28,5.48,2.36-2.31,10.28-3.46,10.12-6.53-2.35-3.44-1.07,4.75,4.56-8.83,30.16-9.54,35.05-5.81,23.36-4.38,2.41-10.41-2.34-6.85-2.28,.62-9.53-1.1-7.61,6.49,.84,1.61-2.11,5.04-17.15,11.49-42.88,3.77-16.3-1.95-.52-13.9-3.28-10.91-2.18,1.46-9.91,2.62-10.34m-35.98-23.13c-5.43,0-10.26,3.68-11.62,9.05l-1.66,6.55-4.32-1.59c-.61-.22-1.23-.4-1.86-.52l-13.63-2.64-.98-.26c-.31-.08-.62-.15-.93-.21l-3.56-.65-3.56-.65c-.73-.13-1.46-.2-2.18-.2-5.33,0-10.15,3.57-11.58,8.9l-5.6,20.88-11.51,43.51c-.02,.09-.04,.17-.06,.26l-2.67,11.07c-1.52,6.33,2.27,12.72,8.56,14.4l.85,.23c.67,.3,1.37,.53,2.09,.7l14.59,3.46,5.21,1.25,2.41,.68-2.28,7.88c-1.48,5.11,.59,10.59,5.08,13.45l4.84,3.09c1.12,.71,2.35,1.24,3.63,1.55l11.35,2.74c.95,.23,1.89,.34,2.83,.34,5.37,0,10.25-3.62,11.62-9.05l2.38-9.38c.06,0,.12,0,.18,0,.51,0,1.02-.03,1.53-.1l6.03-.77c1.75-.22,3.42-.83,4.9-1.77l2.18,.81c.66,.24,1.34,.43,2.03,.55l1.22,.22,2.99,.8c-.27,1.33-.31,2.71-.11,4.08l.92,6.37-.53,8.29c-.35,5.44,3.01,10.43,8.18,12.16l6.85,2.28c.38,.13,.77,.23,1.16,.32l10.41,2.34c.87,.2,1.75,.29,2.63,.29,2.01,0,4-.5,5.79-1.49l4.38-2.41c2.93-1.61,5.05-4.37,5.86-7.62l5.78-23.23,9.48-34.81,6.84-23.37c.29-.11,.58-.24,.87-.38,2.9-1.39,5.11-3.89,6.15-6.93l3.46-10.12c.14-.41,.26-.83,.35-1.25l2.31-10.28c1.26-5.63-1.66-11.36-6.96-13.65l-5.48-2.36c-.65-.28-1.31-.5-2-.66l-13.83-3.26-21.49-5.31c-.18-.05-.37-.09-.55-.12l-10.63-2.1c-.78-.16-1.57-.23-2.34-.23-.64,0-1.27,.05-1.88,.15l-.21-.26c-1.08-1.38-2.44-2.51-4-3.31l-9.19-4.7c-1.29-.66-2.7-1.08-4.14-1.24l-15.22-1.69c-.45-.05-.89-.07-1.33-.07h0Z" fill="#171717"/>
      </g>
    </g>
  </g>
</svg>