<?xml version="1.0" encoding="UTF-8"?>
<svg id="_图层_1" data-name="图层 1" xmlns="http://www.w3.org/2000/svg" viewBox="0 0 500 500">
  <g id="_抄了" data-name="抄了">
    <g>
      <g id="C">
        <rect x="236.65" y="157.46" width="204.69" height="175.63" rx="28.85" ry="28.85" transform="translate(-51.93 96.1) rotate(-15)" fill="#f7f7f7" stroke="#171717" stroke-linecap="round" stroke-linejoin="round" stroke-width="8"/>
        <path d="M422.59,161.83l30.53,113.92c2.02,7.53,.87,15.18-2.66,21.49,0,0-32.06-64.75-106.81-83.66-74.11-18.75-118.86-9.13-119.62-8.96,1.1-11.65,9.29-21.94,21.25-25.14l141.99-38.05c15.39-4.12,31.2,5.01,35.32,20.39Z" fill="#727272" stroke="#171717" stroke-linecap="round" stroke-linejoin="round" stroke-width="8"/>
        <path d="M275.35,166.72h121.97c8.2,0,14.85,6.65,14.85,14.85v95.67c0,14.75-11.98,26.73-26.73,26.73h-98.21c-14.75,0-26.73-11.98-26.73-26.73v-95.67c0-8.2,6.65-14.85,14.85-14.85Z" transform="translate(-49.45 95.07) rotate(-15)" fill="#f7f7f7" stroke="#171717" stroke-linecap="round" stroke-linejoin="round" stroke-width="8"/>
        <path d="M355.01,268.83c-5.37,1.44-10.35,2.23-14.94,2.39-4.6,.15-8.77-.68-12.54-2.52-3.76-1.83-7.11-4.85-10.03-9.07-2.93-4.21-5.37-9.97-7.33-17.28-1.8-6.71-2.51-12.57-2.13-17.6,.38-5.02,1.68-9.35,3.91-12.96,2.23-3.62,5.3-6.59,9.2-8.93,3.9-2.34,8.47-4.21,13.7-5.61,3.42-.92,6.66-1.55,9.73-1.91,3.07-.35,5.78-.42,8.14-.19l4.56,17c-5.16-.48-10.59,.04-16.29,1.56-2.55,.68-4.61,1.58-6.18,2.68-1.57,1.11-2.73,2.55-3.48,4.33-.75,1.78-1.04,3.96-.89,6.55,.15,2.58,.71,5.65,1.66,9.21,1.01,3.76,2.12,6.76,3.34,9.03,1.22,2.26,2.6,3.92,4.14,4.98,1.54,1.06,3.27,1.62,5.19,1.68,1.92,.06,4.12-.24,6.6-.91,2.61-.7,5.23-1.6,7.85-2.7,2.62-1.1,5.14-2.47,7.57-4.13l4.56,17c-1.93,1.38-4.33,2.74-7.21,4.09-2.87,1.34-5.92,2.45-9.14,3.31Z" fill="#171717"/>
      </g>
      <g id="Ctrl">
        <rect x="73.4" y="43.22" width="204.69" height="175.63" rx="28.85" ry="28.85" transform="translate(39.9 -41.02) rotate(15)" fill="#f7f7f7" stroke="#171717" stroke-linecap="round" stroke-linejoin="round" stroke-width="8"/>
        <path d="M289.86,100.56l-30.53,113.92c-2.02,7.53-6.84,13.58-13.05,17.28,0,0,4.61-72.1-50.67-125.86C140.81,52.62,97.24,38.58,96.5,38.34c6.78-9.54,19.01-14.36,30.98-11.15l141.99,38.05c15.39,4.12,24.52,19.94,20.39,35.32Z" fill="#727272" stroke="#171717" stroke-linecap="round" stroke-linejoin="round" stroke-width="8"/>
        <path d="M117.42,52.48h121.97c8.2,0,14.85,6.65,14.85,14.85v95.67c0,14.75-11.98,26.73-26.73,26.73h-98.21c-14.75,0-26.73-11.98-26.73-26.73V67.33c0-8.2,6.65-14.85,14.85-14.85Z" transform="translate(37.42 -42.05) rotate(15)" fill="#f7f7f7" stroke="#171717" stroke-linecap="round" stroke-linejoin="round" stroke-width="8"/>
        <g>
          <path d="M146,135.39c-2.97-.8-5.57-1.79-7.82-2.99-2.24-1.2-4.01-2.76-5.31-4.67-1.3-1.92-2.06-4.29-2.3-7.12-.24-2.83,.19-6.26,1.27-10.31,.99-3.71,2.28-6.72,3.85-9.02,1.57-2.3,3.39-4.01,5.46-5.13,2.07-1.12,4.36-1.7,6.88-1.74,2.52-.04,5.22,.33,8.12,1.1,1.89,.51,3.62,1.1,5.19,1.78,1.57,.68,2.89,1.4,3.95,2.16l-2.52,9.41c-2.34-1.66-5.09-2.91-8.24-3.76-1.41-.38-2.65-.52-3.7-.43-1.06,.09-2.01,.47-2.86,1.11-.85,.65-1.6,1.61-2.24,2.89-.64,1.28-1.22,2.9-1.75,4.87-.56,2.08-.86,3.83-.9,5.25-.04,1.42,.16,2.6,.6,3.53,.44,.93,1.12,1.68,2.02,2.24,.9,.56,2.04,1.02,3.42,1.39,1.45,.39,2.95,.68,4.51,.88,1.56,.2,3.15,.24,4.77,.12l-2.52,9.41c-1.31,.13-2.84,.12-4.58-.04-1.75-.15-3.51-.46-5.3-.94Z" fill="#171717"/>
          <path d="M178.36,119.96l-2.95,11.02c-.35,1.3-.38,2.2-.1,2.72,.28,.51,.96,.91,2.03,1.2l.89,.24c.3,.08,.58,.12,.86,.11l-2.12,7.9c-.61-.09-1.33-.21-2.14-.36-.81-.16-1.55-.33-2.22-.51-2-.54-3.65-1.16-4.93-1.86-1.28-.7-2.25-1.56-2.89-2.56s-.98-2.22-.99-3.64c-.02-1.42,.24-3.11,.76-5.08l3.22-12.02-3.56-.95,2.18-8.13,3.56,.95,1.91-7.12,10.58,2.83-1.91,7.12,5.34,1.43-2.18,8.13-5.34-1.43Z" fill="#171717"/>
          <path d="M209.29,118.94l-2.74,9.35-.83-.22c-.89-.24-1.79-.38-2.69-.42-.9-.04-1.76,.05-2.58,.29-.82,.24-1.57,.65-2.24,1.22-.67,.58-1.2,1.37-1.59,2.38l-4.21,15.7-10.58-2.83,8.05-30.06,10.58,2.83-1.4,5.23c.76-1.07,1.52-1.91,2.29-2.52,.76-.61,1.54-1.04,2.34-1.28,.8-.24,1.61-.33,2.43-.27,.82,.06,1.67,.21,2.56,.45l.61,.16Z" fill="#171717"/>
          <path d="M215.14,153.67c-2.08-.56-3.74-1.19-4.98-1.9-1.24-.71-2.14-1.54-2.7-2.48-.56-.95-.84-2.02-.84-3.21,0-1.19,.21-2.55,.61-4.07l9.04-33.73,10.58,2.83-8.37,31.23c-.34,1.26-.4,2.16-.19,2.69,.22,.53,.75,.92,1.6,1.15l.5,.13c.15,.04,.38,.06,.7,.07l-2.13,7.96c-1.28-.11-2.56-.33-3.82-.67Z" fill="#171717"/>
        </g>
      </g>
    </g>
    <g>
      <g>
        <path d="M84.75,414.35c-2.14,0-4.17-1.15-5.25-3.09l-5.17-9.31-6.03-6.13c-1.47-1.49-2.05-3.65-1.54-5.68,.38-1.52,1.34-2.8,2.63-3.61-.09,0-.17,0-.26,0-.52,0-1.05-.07-1.57-.21-1.6-.43-2.94-1.5-3.72-2.96l-4.8-8.95-5.35-10.33c-1.49-2.88-.42-6.42,2.4-8l9.12-5.09-3.75-13.64-5.9,1.83c-.59,.18-1.19,.27-1.78,.27-2.37,0-4.59-1.41-5.54-3.7,0,0-3.64-8.75-3.66-8.81l-4.31-11.32c-.59-1.54-.51-3.26,.2-4.74s2.02-2.61,3.59-3.11l8.25-2.62-3.52-11.91-3.19-10.13c-.51-1.62-.31-3.37,.55-4.84s2.29-2.5,3.95-2.84l13.34-2.77c.14-.03,.27-.05,.41-.07l9.72-1.33c.27-.04,.55-.06,.82-.06,2.7,0,5.12,1.83,5.81,4.52l5,19.58,6.04-1.78c.56-.16,1.13-.25,1.7-.25,1.02,0,2.03,.26,2.94,.77,1.41,.79,2.44,2.12,2.86,3.68l1.83,6.82,2.95-7.86c.9-2.39,3.17-3.9,5.62-3.9,.53,0,1.07,.07,1.61,.22l9.16,2.55-2.27-8.74-7.27-24.17c-.5-1.67-.25-3.47,.68-4.94,.93-1.47,2.46-2.46,4.18-2.72l14.77-2.2c.13-.02,.27-.04,.4-.05l9.4-.76c.16-.01,.33-.02,.49-.02,2.79,0,5.24,1.94,5.85,4.7l6.06,27.36,.52,1.94,5.43-8.44c1.14-1.76,3.06-2.75,5.05-2.75,.84,0,1.69,.18,2.5,.55l16.06,7.38c.28,.13,.56,.28,.82,.46l18.69,12.43c2.53,1.68,3.4,5,2.03,7.71l-5.44,10.74c-.16,.32-.36,.63-.58,.92l-5.92,7.79c.12,.67,.12,1.38,0,2.08l-3.32,18.65c-.07,.37-.17,.74-.3,1.09l-5.92,15.51c-.16,.42-.37,.82-.61,1.19l-8.45,12.66c-.18,.26-.37,.51-.59,.75l-12.41,13.4c-.34,.36-.72,.68-1.13,.96l-22.21,14.43c-1,.65-2.14,.97-3.27,.97-1.47,0-2.94-.54-4.08-1.6l-6.17-5.71c-.37-.34-.69-.72-.96-1.14l-7.08-10.9c-1.75-2.7-1.07-6.3,1.56-8.16l16.83-11.96,10.55-11.4,3.3-5.64-7.25,2.13c-.55,.16-1.12,.24-1.69,.24-1.04,0-2.08-.27-3-.8-1.42-.82-2.44-2.19-2.83-3.78l-3.96-16.34-5.25,16.84c-.53,1.7-1.78,3.07-3.42,3.75-.74,.31-1.52,.46-2.31,.46-.25,0-.5-.02-.75-.05l1.09,1.77c.86,1.39,1.11,3.06,.71,4.64s-1.43,2.92-2.85,3.73l-11.38,6.48,.34,1.26,7.36,24.49c.23,.76,.3,1.56,.22,2.35l-.58,5.59c-.18,1.72-1.09,3.28-2.5,4.28l-6.19,4.38c-.58,.41-1.23,.71-1.91,.9l-14.63,3.92c-.52,.14-1.04,.21-1.55,.21Zm-11.76-29.14l1.32-.4-.09-.35-1.22,.75Zm87.28-71.09c.72-.3,1.5-.46,2.31-.46,.15,0,.31,0,.46,.02l4.24,.32-2.61-1.73-5.84-3.53,1.44,5.38Z" fill="#17f700"/>
        <path d="M140.29,257.95l6.09,27.49,11.92,44.48,1.1,5.3,3.19-15.57,12.09,.92,10.78,3.19-3.32,18.65-5.92,15.51-8.45,12.66-12.41,13.4-22.21,14.43-6.17-5.71-7.08-10.9,17.34-12.33,11.41-12.34,9.77-16.7,.48-2.37-8.13,2.5-12.61,3.7-4.51-18.63-3.55-15.05-1.12-4.18-5.22,17.56-6.37,20.43-10.97-5.7-8.82-4.84,4.53-13.53,2.82-10.36,4.2-11.2,10.55,2.93,9.1,4.12-5.37-20.64-7.31-24.28,14.77-2.2,9.4-.76m-65.88,19.25l6.54,25.61,12.01-3.54,3.56,13.29,1.64,8.52-11.65,2.48c2.29,8.56,3.96,14.99,5.01,19.3l10.36-6.13,6.49,11.7,4.24,6.86-15.41,8.77,1.56,5.82,7.39,24.58-.58,5.59-6.19,4.38-14.63,3.92-5.57-10.03-6.6-6.71,8.13-2.5,.46-1.88-3.24-12.09-8.79,5.4-4.8-8.95-5.31-10.26,13.22-7.38-6.63-24.14-.3,.08-11.52,3.57-3.59-8.64-4.31-11.32,9.73-3.09,4.14-1.27-5.21-17.64-3.21-10.18,13.34-2.77,9.72-1.33m88.79,3.57l16.06,7.38,18.69,12.43-5.44,10.74-6.27,8.24-6.68-4.61-11.68-7.75-14.32-8.64,3.53-8.31,6.1-9.47m-22.91-34.82c-.32,0-.65,.01-.97,.04l-9.4,.76c-.27,.02-.54,.05-.8,.09l-14.77,2.2c-3.45,.51-6.5,2.5-8.37,5.44-1.87,2.94-2.36,6.55-1.36,9.89l6.81,22.63c-.77-.15-1.54-.22-2.29-.22-3.14,0-6.14,1.24-8.36,3.4-.6-.51-1.25-.97-1.95-1.36-1.81-1.02-3.83-1.53-5.87-1.53-1.14,0-2.28,.16-3.39,.49l-.07,.02-3.46-13.55c-1.37-5.37-6.21-9.03-11.62-9.03-.54,0-1.08,.04-1.63,.11l-9.72,1.33c-.28,.04-.55,.08-.82,.14l-13.34,2.77c-3.32,.69-6.19,2.75-7.91,5.68-1.72,2.93-2.11,6.44-1.09,9.68l3.17,10.08,1.84,6.22-2.65,.84c-3.15,1-5.74,3.25-7.18,6.22-1.44,2.97-1.58,6.4-.41,9.49l4.31,11.32c.04,.11,.09,.23,.14,.34l3.59,8.64c1.9,4.58,6.35,7.39,11.08,7.39,1.17,0,2.36-.17,3.53-.53l.86,3.13-5.01,2.8c-5.66,3.16-7.78,10.24-4.81,15.99l5.31,10.26c.03,.05,.05,.1,.08,.15l4.8,8.95c.6,1.12,1.37,2.13,2.27,2.99-.8,3.9,.39,7.97,3.2,10.83l5.46,5.55,4.78,8.6c2.15,3.88,6.21,6.18,10.49,6.18,1.03,0,2.07-.13,3.11-.41l14.63-3.92c1.37-.37,2.67-.98,3.83-1.8l6.19-4.38c2.82-2,4.65-5.12,5-8.56l.11-1.05c.37,.46,.77,.89,1.2,1.29l6.17,5.71c2.28,2.11,5.21,3.19,8.15,3.19,2.26,0,4.53-.64,6.53-1.94l22.21-14.43c.83-.54,1.59-1.18,2.27-1.91l12.41-13.4c.43-.47,.82-.96,1.18-1.49l8.45-12.66c.5-.74,.91-1.54,1.23-2.38l5.92-15.51c.27-.71,.47-1.43,.6-2.18l3.32-18.65c.07-.4,.12-.79,.15-1.18l4.65-6.11c.44-.58,.83-1.19,1.15-1.84l5.44-10.74c2.75-5.42,1.01-12.05-4.06-15.42l-18.69-12.43c-.52-.35-1.07-.65-1.64-.91l-16.06-7.38c-1.62-.74-3.32-1.1-5-1.1-2.77,0-5.47,.96-7.63,2.73l-3.57-16.14c-1.22-5.53-6.13-9.41-11.71-9.41h0Zm-15.75,108.08c1.32-.99,2.43-2.24,3.25-3.67,1.04,1.77,2.53,3.26,4.34,4.31,.55,.31,1.11,.58,1.69,.81l-4.58,4.95-16.32,11.61c-.28,.2-.54,.4-.8,.62l-.84-2.81,7.26-4.13c2.83-1.61,4.89-4.3,5.69-7.46,.36-1.39,.45-2.82,.31-4.22h0Z" fill="#171717"/>
      </g>
      <g>
        <path d="M256.27,474.05c-.83,0-1.66-.17-2.43-.52l-17.3-7.68c-.59-.26-1.13-.62-1.61-1.05l-11.45-10.43c-2.18-1.98-2.59-5.25-.98-7.72l5.69-8.71c.05-.07,.1-.14,.15-.22l5.87-8.19c1.17-1.63,3.01-2.5,4.88-2.5,1.21,0,2.43,.36,3.49,1.12l9.76,6.99,1.86,.75,1.33-1.06,2.67-11.44,.54-11.47-1.04-18.82c-.73-1.18-1.04-2.6-.84-4.01,.29-2,1.55-3.71,3.38-4.57l20.41-9.65,3.36-1.76-31.23-8.92-17.31-4.16c-1.6-.39-2.98-1.41-3.8-2.84-.82-1.43-1.02-3.13-.54-4.71l2.9-9.65,2.32-11.57c.33-1.64,1.32-3.06,2.75-3.94,.95-.58,2.04-.88,3.13-.88,.54,0,1.09,.07,1.62,.22l74.55,20.93c.07,.02,.14,.04,.21,.06l15.32,4.91c2.47,.79,4.16,3.08,4.17,5.68l.06,11.39,1.17,10.73c.26,2.4-.94,4.72-3.05,5.89l-23.31,12.95c-.19,.11-.39,.2-.59,.29l-17.54,7.36,1.09,10.71c.03,.3,.04,.6,.02,.91l-.8,16.11c-.02,.44-.09,.87-.21,1.3l-5.95,21.61c-.34,1.24-1.07,2.33-2.08,3.13l-12.16,9.54c-.78,.61-1.69,1.02-2.66,1.19l-14.78,2.6c-.34,.06-.69,.09-1.04,.09Z" fill="#17f700"/>
        <path d="M242.21,332.44l74.55,20.93,15.32,4.91,.07,11.7,1.2,11.04-23.31,12.95-21.63,9.08,1.54,15.13-.8,16.11-5.95,21.61-12.16,9.54-14.78,2.6-17.3-7.68-11.45-10.43,5.69-8.71,5.87-8.19,10.33,7.41,5.77,2.35,5.7-4.55,3.27-14,.58-12.32-1.18-21.27-.78-.69,20.52-9.7,16.76-8.79-45.78-13.07-17.44-4.19,2.98-9.92,2.37-11.84m0-12c-2.19,0-4.36,.6-6.27,1.77-2.85,1.75-4.84,4.6-5.5,7.87l-2.26,11.29-2.82,9.38c-.95,3.16-.55,6.57,1.09,9.43,1.64,2.86,4.39,4.92,7.6,5.69l17.19,4.13,16.01,4.57-9.58,4.53c-3.64,1.72-6.18,5.16-6.75,9.15-.32,2.22,0,4.45,.86,6.45l.96,17.26-.5,10.61-1.02,4.38-5.13-3.67c-2.12-1.52-4.56-2.25-6.98-2.25-3.74,0-7.42,1.74-9.76,5l-5.87,8.19c-.1,.14-.2,.29-.3,.43l-5.69,8.71c-3.22,4.93-2.39,11.47,1.96,15.44l11.45,10.43c.95,.87,2.04,1.58,3.21,2.1l17.3,7.68c1.54,.68,3.2,1.03,4.87,1.03,.69,0,1.39-.06,2.08-.18l14.78-2.6c1.95-.34,3.78-1.16,5.33-2.38l12.16-9.54c2.02-1.59,3.48-3.78,4.16-6.25l5.95-21.61c.23-.85,.37-1.72,.42-2.59l.8-16.11c.03-.6,.01-1.21-.05-1.81l-.64-6.29,13.44-5.64c.4-.17,.8-.36,1.18-.58l23.31-12.95c4.22-2.34,6.62-6.99,6.1-11.79l-1.13-10.43-.06-11.08c-.03-5.19-3.4-9.78-8.34-11.36l-15.32-4.91c-.14-.04-.28-.09-.42-.12l-74.55-20.93c-1.07-.3-2.16-.45-3.24-.45h0Z" fill="#171717"/>
      </g>
      <g>
        <path d="M381.11,479.8c-1.59,0-3.13-.63-4.25-1.77l-12.08-12.15c-1.84-1.85-2.27-4.68-1.07-6.99l4.7-9.07c.72-1.39,1.95-2.44,3.43-2.93l12.15-4.05c.62-.21,1.26-.31,1.9-.31,.98,0,1.95,.24,2.82,.71l3.14,1.67-3.03-2.26c-1.93-1.44-2.81-3.89-2.24-6.23l3.14-12.86-1.86-15.23c-.14-1.11,.04-2.24,.51-3.25l13.84-29.84c.6-1.29,1.63-2.32,2.92-2.92l13.89-6.44c.79-.37,1.65-.56,2.52-.56,.16,0,.32,0,.48,.02l16.54,1.34c1.44,.12,2.79,.75,3.81,1.79l12,12.28c1.27,1.3,1.88,3.11,1.67,4.91l-2.75,22.68c-.14,1.14-.6,2.22-1.33,3.1l-15.98,19.33c-.51,.62-1.15,1.13-1.86,1.5l-15.41,8-13.33,9.52c-.74,.53-1.58,.87-2.44,1.03l2,1.07c2.19,1.17,3.44,3.57,3.13,6.04l-1.99,15.81c-.37,2.91-2.78,5.12-5.7,5.25l-19.02,.8c-.08,0-.17,0-.25,0Z" fill="#17f700"/>
        <path d="M421.53,371.33l16.54,1.34,12,12.28-2.75,22.68-15.98,19.33-15.79,8.19-13.67,9.77-9.48-7.08,3.4-13.92-2-16.32,13.84-29.84,13.89-6.44m-35.65,77.21l16.24,8.66-1.99,15.81-19.02,.8-12.08-12.15,4.7-9.07,12.15-4.05m35.65-89.21c-1.74,0-3.46,.38-5.05,1.11l-13.89,6.44c-2.58,1.19-4.65,3.26-5.84,5.84l-13.84,29.84c-.94,2.03-1.3,4.28-1.02,6.51l1.73,14.15-2.88,11.79c-.22,.9-.33,1.81-.34,2.71l-10.47,3.49c-2.96,.99-5.42,3.09-6.86,5.86l-4.7,9.07c-2.4,4.63-1.53,10.28,2.14,13.98l12.08,12.15c2.26,2.27,5.32,3.54,8.51,3.54,.17,0,.33,0,.5-.01l19.02-.8c5.85-.25,10.67-4.68,11.4-10.49l1.99-15.81c.3-2.41-.13-4.78-1.17-6.86l8.99-6.42,15.04-7.8c1.43-.74,2.7-1.76,3.72-3.01l15.98-19.33c1.46-1.77,2.39-3.92,2.66-6.2l2.75-22.68c.44-3.61-.79-7.23-3.33-9.83l-12-12.28c-2.02-2.07-4.73-3.34-7.61-3.57l-16.54-1.34c-.32-.03-.65-.04-.97-.04h0Z" fill="#171717"/>
      </g>
    </g>
  </g>
</svg>