<?xml version="1.0" encoding="UTF-8"?>
<svg id="_图层_1" data-name="图层 1" xmlns="http://www.w3.org/2000/svg" viewBox="0 0 500 500">
  <g id="_棒" data-name="棒">
    <g>
      <path d="M458.76,404.97c-5.31,15.89-14.26,34.22-23.97,49.05-12.49,19.1-31.63,41.87-51.87,41.87-1.31,0-2.56-.09-3.83-.27l-.66-.12c-16.32-3.53-24.39-11.74-32.19-19.69-4.24-4.31-8.59-8.73-14.64-12.7-12.99-8.55-27.62-15.86-33.97-18.92-6.56,2.39-13.75,4.13-21.41,5.17l-5.12,.78c-1.39,.11-2.78,.25-4.17,.38-3.43,.33-6.98,.67-10.6,.67h0c-7.12,.27-15.14-.08-23.2-1.02-1.72-.15-4.49-.61-6.93-1.02-1.13-.19-2.16-.37-2.88-.47l-.34-.06-6.33-1.37c-.82-.17-2.6-.6-3.54-.89-.96-.29-2.01-.56-3.12-.84-2.23-.57-4.55-1.15-6.74-2.1l-.37-.18c-5.24-2.8-9.75-5.6-13.74-8.54-.13-.01-.27-.03-.4-.04-7.13-.53-15.91-1.95-18.43-2.37l-.1-.02c-14.04-2.63-22.16-6.8-27.61-22.24-1.16-3.39-4.15-5.8-7.61-8.6-1.24-1.01-2.53-2.05-3.79-3.18-8.64-7.29-12.56-15.32-11.99-24.56,.07-4.74,1.09-9.94,2.9-14.64,.8-1.98,.7-2.84,.19-4.06-.33-.76-1.15-1.6-2.2-2.66-.4-.4-.81-.82-1.22-1.26-4.99-4.97-7.6-12.52-7.18-20.75,.11-4.9,1.12-9.97,2.91-14.67,1.14-3.23,2.92-6.36,4.5-9.12,1.07-1.88,2.08-3.65,2.76-5.21,.05-.11,.11-.28,.15-.46-.59-1.25-1.56-2.8-2.59-4.42-1.73-2.75-3.7-5.86-4.8-9.18-3.24-8.48-2.61-18.87,1.73-28.54,3.87-8.82,11.92-15.55,24.59-20.51,.64-.3,1.28-.57,1.91-.84,.51-.21,1.14-.48,1.71-.75-.17-.85-.39-1.76-.59-2.61-.18-.81-.37-1.59-.52-2.31-6.18-25,5.39-43.06,34.39-53.69l.13-.05c16.62-5.57,32.66-8.29,47.6-8.1l.33,.02c19.24,1.56,36.9,7.46,50.86,16.86-.03-.37-.06-.74-.09-1.09-1-9.4-2.95-19.32-5.79-29.36-.49-1.63-.91-3.7-1.28-5.53-.16-.8-.32-1.57-.47-2.26l-.03-.13c-.51-2.64-1.26-5.31-2.05-8.13-.63-2.25-1.29-4.58-1.82-6.94-3.32-14-1.45-29.92,5.29-44.79,6.68-14.41,16.27-26.24,27.11-33.54,2.97-6.3,6.31-12.52,9.93-18.51,7.08-13.85,19.48-27.67,20.01-28.26l3.69-4.09,3.71,4.07c.55,.6,13.35,14.85,13.89,36.18,.43,17.02-1.11,30.08-1.64,33.91-.08,1.11-.18,2.21-.27,3.28-.07,.8-.14,1.58-.21,2.35v.11c-.23,2.2-.47,4.38-.71,6.54-.34,3.11-.66,6.05-.94,9.03-1.57,16.23-1.45,30.93,.36,44.96,1.01,8.27,2.68,16.92,4.98,25.74,1.2,4.98,3.19,9.94,6.46,16.16,5.57,10.39,10.09,20.5,13.41,30.01,1.86,5.06,3.47,10.19,5.02,15.15,.8,2.53,1.6,5.07,2.43,7.62,5.38,17.16,7.96,33.83,7.71,49.62,.08,5.77-.79,11.84-2.71,18.89,4.99,4.3,16.18,13.5,28.75,20.97,5.59,3.33,11.64,6.15,17.5,8.89l.31,.14c12.72,5.92,24.74,11.51,31.08,21.64,5.88,9.4,5.33,24.74-1.63,45.6Z" fill="#f7f7f7"/>
      <path d="M296.97,69.35s4.69-13.48,14.96-30.46c6.85-13.47,19.35-27.34,19.35-27.34,0,0,12.08,13.22,12.58,32.93,.5,19.71-1.71,33.93-1.71,33.93l-45.18-9.07Z" fill="#171717"/>
      <path d="M381.88,486.57c-21.65-4.67-25.19-18.96-43.44-30.96-14.23-9.35-31.98-18.07-39.11-21.45-5.12,2.19-10.88,3.98-17.34,5.23-53.14,10.29-90.41-10.9-95.9-14.27-1.78-.2-3.62-.45-5.5-.73-22.18-2.79-23.32-6.9-27.75-18.19-4.44-11.28-21.96-15.59-22.3-29.28-.34-13.69,5.53-14.68,2.82-23.55-2.71-8.87-11.16-7.4-10.31-22.9,.85-15.5,11.24-21.8,10.31-29.92-.93-8.11-14.36-14.7-7.61-34.3,6.76-19.6,30.76-16.52,30.51-26.79-.25-10.27-15.89-35.66,26.36-51.21,63.17-21.55,100.56,9.69,102.65,11.48,1.32-13.43,.57-35.13-8.68-66.58-9.97-38.02,27.71-83.31,53.74-74.7,21.63,7.44-7.44,44.45,12.25,117.12,5.2,18.16,12.8,20.79,25.1,61.68,10.94,31.78,10.72,56.08,6.29,73.96,.97,1,16.04,16.4,33.76,26.94,17.73,10.54,38.24,15.74,45.52,27.38,14.81,23.66-38.59,125.91-71.36,121.04Z" fill="#17f700"/>
      <path d="M279.98,216.13c3.02-10.03,2.57-20.63,1.67-30.91-1.09-10.26-3.16-20.38-5.95-30.29-.65-2.19-1.18-5.28-1.68-7.52-.99-5.06-2.76-10.14-3.91-15.22-3.3-13.92-.77-28.94,4.97-41.62,8.17-17.58,22.89-35.21,43.05-38.74,6.54-.8,13.94,.18,19,4.91,7.05,7.03,5.37,17.98,4.65,26.76-.55,5.31-1.17,10.47-1.65,15.63-1.48,15.34-1.59,30.77,.38,46.06,1.08,8.86,2.85,17.72,5.1,26.37,1.47,6.07,3.95,11.66,6.88,17.23,4.96,9.27,9.62,19.33,13.11,29.33,2.78,7.59,4.93,15.09,7.42,22.69,4.86,15.52,7.73,31.76,7.46,48.06,.13,8.27-1.97,16.44-4.57,24.22-4.4,12.81-11.77,24.74-22.05,33.58-2.02,1.73-4.14,3.35-6.43,4.68,7.64-6.97,13.16-16.15,16.88-25.69,3.64-9.51,5.53-19.52,5.67-29.55,1.31-13.69-.19-27.86-3.47-41.3-.6-2.83-1.71-6.42-2.46-9.24-4.16-12.91-7.95-26.02-13.57-38.32-4.52-10.29-11.04-20.09-14.03-31.15-2.58-9.74-4.66-19.67-5.87-29.67-2.06-15.97-1.96-32.23-.41-48.23,.49-5.3,1.13-10.56,1.66-15.7,.44-4.7,1.03-9.89,.29-14.31-.61-6.14-7.32-7.07-12.61-6.45-16.29,3.06-28.57,18.45-35.3,32.92-4.97,11.12-7.08,23.43-4.38,35.17,.75,3.34,2.16,7.96,3.04,11.36,.9,3.82,2.15,7.88,2.73,11.73,.63,4.62,1.22,11.34,1.51,16.06,.55,10.71,.15,21.55-1.95,32.07-1.15,5.21-2.58,10.44-5.17,15.07h0Z" fill="#171717"/>
      <path d="M297.99,433.3s20.86,9.45,39.11,21.45c18.25,12,21.8,26.29,43.45,30.97,32.77,4.86,86.18-97.38,71.37-121.04-7.28-11.63-27.79-16.84-45.52-27.38-18.33-10.9-33.34-24.8-33.34-24.8" fill="none" stroke="#171717" stroke-linecap="round" stroke-linejoin="round" stroke-width="10"/>
      <path d="M339.46,367.89c2.38,8.48,2.1,17.46,.74,26.16-5.64,16.95-17.56,32.03-33.39,40.51-9.71,5.38-20.49,8.38-31.32,9.85,0,0-3.19,.5-3.19,.5l-1.59,.25c-4.83,.38-9.65,1.04-14.5,1.03-7.35,.29-15.3-.14-22.59-1-2.24-.18-7.33-1.13-9.6-1.46,0,0-6.33-1.37-6.33-1.37-.76-.16-2.39-.55-3.14-.78-2.96-.92-6.49-1.53-9.32-2.75-7.67-4.1-15-8.88-21.18-15.01,4.01,1.35,8.07,2.39,12.17,3.33,4.08,.84,8.1,1.65,12.16,2.19,7.37,2.47,15.73,4.41,23.45,5.52,.75,.14,2.23,.34,2.99,.4,2.93,.26,6.09,.73,9.02,.79,7.97,.49,16.23,.16,24.13-.67,1.7-.09,4.29-.6,5.99-.85,26.37-3.16,48.33-17.83,56.66-43.71,3.83-7.1,7.15-14.93,8.83-22.92h0Z" fill="#171717"/>
      <path d="M252.36,385.78c-.29,10.78-5.17,21.32-12.88,29.02-8.99,8.75-21.51,13.86-33.91,15.08-5.46,.29-10.99,.23-16.44-.2-5.47-.41-12.62-1.42-18.01-2.32-13.2-2.48-19.26-6.09-23.81-18.99-2.14-6.22-7.97-9.49-12.83-13.88-6.26-5.27-10.87-11.8-10.28-20.61,.04-4.34,1.03-9.02,2.56-13.02,1.16-2.85,1.26-5.11,.13-7.8-.92-2.15-2.68-3.57-4.44-5.47-4.47-4.42-6.1-10.94-5.77-17.08,.09-4.46,1.02-9,2.6-13.14,1.71-4.88,5.28-9.77,7.15-14.03,.32-.69,.54-1.58,.61-2.27,.05-.17-.02-.3,0-.45-.02-.14,.04-.3-.02-.44-.1-.28-.06-.52-.25-.91-1.68-3.96-5.86-8.84-7.43-13.67-3.1-8-1.87-17.12,1.58-24.81,4.12-9.38,13.45-14.63,21.99-17.96,2.75-1.27,5.6-2.14,6.99-3.83,0-.04,.03-.03,.02-.15,0-.03,0-.06,.01-.08,0-.04-.01-.18-.02-.27-.17-2.31-1.08-5.51-1.56-7.87-6.36-25.55,8.74-39.65,31.23-47.89,14.78-4.97,30.24-8.05,45.94-7.84,21.33,1.73,43.01,9.25,58.52,24.1-4.34-2.95-9.03-5.24-13.82-7.17-15.36-6.31-32.21-8.02-48.54-6.77-8.8-.03-17.52,1.39-26.08,3.42-4.74,1.18-9.8,2.59-14.38,4.35-12.59,4.84-25.88,13.35-24.23,28.62,.32,5.67,2.64,11.36,2.93,17.19-.17,14.66-22.86,11.74-29.61,25.69-.87,1.63-1.43,3.58-1.94,5.38-.49,1.9-.9,4.44-.8,6.41,.03,4.51,1.79,8.1,4.29,12.02,2.32,3.61,5.15,7.64,5.19,12.2,.33,5.1-3.1,10.47-5.3,14.3-3.31,5.55-5.28,11.45-5.07,17.86,.04,.95,.14,2.07,.31,3.07,.65,4.03,3.77,5.89,6.37,9.1,4.45,5.23,5.56,13.36,2.84,19.57-1.57,4.09-2.08,7.48-2,11.65,.06,4.65,3.3,8,6.85,11.1,4.11,3.57,8.66,6.74,12.2,11.43,1.8,2.29,3.05,5.41,4.08,8.1,.94,2.32,1.88,4.34,2.93,5.69,2.4,3,7.08,4.19,10.89,5,2.39,.47,4.96,.94,7.41,1.23,2.34,.31,9.02,1.23,11.35,1.32,6.17,.6,12.39,.26,18.54-.35,20.89-.67,38.96-12.52,43.93-33.58h0Z" fill="#171717"/>
      <path d="M279.2,275.62s-1.42,11.85,6.99,35.29c8.41,23.44,27.05,38.4,27.05,38.4,0,0-23.2-12.17-33.08-27.25-9.89-15.08-24.95-33.54-24.95-33.54l24-12.89Z" fill="#171717"/>
      <g>
        <path d="M262.09,284.86s32.57-9.26,20.59-40.17c-11.66-29.15-66.92-49.94-66.92-49.94" fill="#17f700"/>
        <path d="M262.09,284.86c9.24-5.04,18.27-13.14,19.05-23.77,.74-9.96-4.55-19.85-11.36-27.07-15.14-16.04-35.2-27.29-54.03-39.27,17.16,3.5,33.46,10.7,47.86,20.71,9.96,7.24,19.07,15.81,23.56,27.78,7.55,20.59-3.69,38.39-25.08,41.62h0Z" fill="#171717"/>
      </g>
      <g>
        <path d="M260.43,340.03s18.95-6.87,15.84-37.77c-2.08-23.1-36.78-20.56-63.17-32.73-27.05-12.47-46.64-25.73-46.64-25.73" fill="#17f700"/>
        <path d="M260.43,340.03c12.02-7.8,14.09-23.55,11.98-36.73-.4-4.29-2.61-8.13-6.12-10.66-6.74-4.71-15.18-6.46-23.18-8.59-7-1.8-14.1-3.53-21-5.96-6.87-2.31-13.68-5.91-20.03-9.47-6.33-3.56-12.49-7.38-18.46-11.49-5.95-4.13-11.78-8.47-17.16-13.32,6.58,3.04,13.07,6.09,19.59,9.05,9.35,4.31,19.78,8.88,29.32,12.86,6.39,2.57,13.06,4.41,19.81,6.07,13.68,3.77,34.12,6.39,42.15,19.99,1.92,3.24,2.83,7.12,2.9,10.86,.87,14.38-4.45,32.78-19.78,37.4h0Z" fill="#171717"/>
      </g>
      <g>
        <path d="M144.61,358.59s32.36,46.22,107.99,27.12c16.73-4.65,19.9-34.35,11.07-43.18-8.83-8.83-22.69-3.68-55.01-9.13-32.32-5.45-55.52-23.06-55.52-23.06" fill="#17f700"/>
        <path d="M144.61,358.59c8.93,8.08,19.39,13.59,30.08,17.29,20.39,10.2,44.43,11.34,66.64,7.15,2.91-.45,6.58-1.38,9.46-2.02,.48-.07,1.11-.33,1.57-.47,8.2-3.63,10.96-14.05,11.11-22.41,0-3.68-.5-7.36-2.17-10.46-.46-.85-1.03-1.53-1.76-2.1-1.54-1.36-3.4-2.21-5.81-2.78-5.19-1.17-11.28-1.14-16.83-1.47-16.68-.78-33.73-2.78-49.62-8.2-1.49-.42-2.98-.82-4.35-1.57-5.5-2.87-10.79-6.01-15.78-9.55-4.97-3.55-9.75-7.34-13.99-11.65,2.7,1.34,5.42,2.58,8.18,3.69,8.12,3.38,16.6,6.19,25.1,8.14,9.42,3.53,19.21,5.92,29.18,7.23,7.19,.99,14.46,1.58,21.77,1.92,7.46,.46,15.21,.2,22.56,2.91,.64,.31,1.97,.91,2.6,1.23,.6,.4,1.86,1.19,2.46,1.6,0,0,1.1,.95,1.1,.95,12.31,10.7,8.11,38.46-3.95,48.13-2.48,2.13-5.63,3.76-8.84,4.53-3.1,.69-7.06,1.69-10.17,2.18-24.27,4.63-50.46,3.06-72.88-7.91-10.43-6.71-19.76-15.43-25.64-26.37h0Z" fill="#171717"/>
      </g>
    </g>
    <g>
      <g>
        <path d="M140.03,237.48c-.68,0-1.36-.12-2.01-.35l-9.93-3.54-14.71-4.29c-3.13-.91-4.96-4.16-4.11-7.31,.52-1.93,.98-3.68,1.38-5.25l-21.45-5.33c-1.54-.38-2.87-1.36-3.69-2.73-.82-1.36-1.07-3-.68-4.54l4.52-18.22c.39-1.56,1.39-2.9,2.78-3.72,.17-.1,.34-.19,.52-.27l-4.14-3.88c-.21-.2-.41-.42-.6-.65l-3.88-4.88c-.33,1.18-.65,2.27-.94,3.27l-6.54,25.08-2.95,11.02c-.43,1.6-1.51,2.96-2.97,3.74-.88,.47-1.85,.71-2.82,.71-.65,0-1.31-.11-1.94-.32l-12.08-4.13c-.1-.03-.2-.07-.3-.11l-10.62-4.27c-2.82-1.14-4.35-4.21-3.55-7.14l6.64-24.37c-.1,0-.2-.02-.3-.03-1.64-.19-3.13-1.05-4.12-2.38l-5.64-7.57c-.24-.32-.44-.66-.61-1.02l-5.12-10.82c-1.07-2.25-.63-4.92,1.09-6.72,0,0,12.42-12.96,12.45-12.99l12.13-12.18,4.71-5.03-7.55-1.32c-3.23-.57-5.41-3.63-4.89-6.87,0,0,1.37-8.48,1.38-8.54l2.61-13.74c.54-2.87,3.05-4.88,5.89-4.88,.3,0,.61,.02,.92,.07l11.81,1.81,.45-1.69,5.38-23.4c.37-1.59,1.36-2.96,2.76-3.8,.94-.57,2.01-.86,3.09-.86,.52,0,1.04,.07,1.55,.2l14.8,3.97c.27,.07,.53,.16,.78,.27l10.41,4.39c2.89,1.22,4.35,4.45,3.36,7.43l-4.51,13.52c-.55,1.78-1.23,4.15-2.04,7.08,2.21,.56,4.71,1.22,7.48,1.95l2.62-10.93c.37-1.55,1.34-2.89,2.7-3.72,.95-.58,2.04-.88,3.13-.88,.47,0,.95,.06,1.41,.17l23.23,5.63,5.12-9.76c1.07-2.04,3.15-3.21,5.32-3.21,.83,0,1.67,.17,2.47,.53l13.51,6.12c.12,.05,.24,.11,.35,.17l11.38,6.08c1.41,.76,2.47,2.05,2.92,3.58,.46,1.54,.28,3.19-.49,4.6l-1.26,2.3,22.75,6.64c3.15,.92,4.98,4.2,4.1,7.36l-5.2,18.75c-.6,2.18-2.34,3.74-4.39,4.23,0,.58-.07,1.16-.24,1.73l-4.79,16.54c-.11,.37-.24,.71-.41,1.04l4.31,1.15c1.55,.41,2.86,1.43,3.66,2.82s1,3.04,.57,4.58l-4.98,17.92c-.44,1.59-1.53,2.93-2.99,3.7-.18,.1-.37,.18-.55,.26l7.05,15.63c.7,1.54,.71,3.3,.04,4.85-.67,1.55-1.96,2.75-3.56,3.29l-11.38,3.9c-.32,.11-.66,.19-1,.25l-5.02,.8c.1,.83,.03,1.69-.22,2.5l-5.7,18.62c-.79,2.58-3.17,4.24-5.73,4.24-.56,0-1.12-.08-1.68-.24l-23.87-6.97-1.58,5.88c-.43,1.62-1.52,2.98-3.01,3.76-.87,.46-1.83,.69-2.79,.69Z" fill="#f7f7f7"/>
        <path d="M82.39,60.06l14.8,3.97,10.41,4.39-4.53,13.58c-.91,2.96-2.16,7.39-3.73,13.26,3.58,.84,8.8,2.18,15.68,4.02l-4.06,13.17-2.72,10.15-15.5-4.69-.94,3.49,10.64,12.83,1.13-4.87,17.54,5.06,5.23-5.55-10.64-2.85,4.53-16.25,16.3,4.37,3.99-6.24-22.38-5.64,4.54-18.93,27.79,6.73,7.29-13.91,13.51,6.12,11.38,6.08-4.87,8.86,29.93,8.73-5.2,18.75-35.22-9.61-4.44,5.94,35.05,9.57-4.79,16.54-11.98-3.21-26.23-7.21-3.49-.94-5.11,5.76c4.66,1.25,8.08,2.23,10.27,2.93l26.36,7.42,18.29,4.9-4.98,17.92c-1.52-.53-3.78-1.19-6.77-1.99l2.54,7.81,8.05,17.84-11.38,3.9-14.16,2.27-5.81-14.92-3.56,10.63-16.25-4.53c-.68,2.55-1.13,4.45-1.35,5.7l31.1,8.33-5.7,18.62-29.76-8.69-3.16,11.81-10.09-3.59-14.88-4.34c1.31-4.88,2.25-8.61,2.82-11.19l-27.24-6.76,4.52-18.22,27.44,7.35,1.47-5.49-14.39-3.5,2.63-12.49-11.46,8.16-8.27-7.74-7.2-9.06,9.9-7.69,9.9-7.69-1.16-.31-5.74,3.45-10.37,5.42-2.47-4.76-1.81-1.91c-2.73,10.2-4.86,17.89-6.36,23.07l-6.56,25.16-2.94,10.98-12.08-4.13-10.62-4.27,10.91-40.04-9.66,8.11-5.64-7.57-5.12-10.82,12.37-12.91,12.19-12.24,7.74-8.26,1.47-5.49-15.33-2.68,1.35-8.37,2.61-13.74,17.12,2.63,1.87-6.99,5.41-23.51m46.15,111.84l2.83-11.9,13.54,4.7,12.63,4.1-3.29,9.63,11.55,3.45-4.09-12.68-1-4.9-3.78-1.19-24.62-6.6-9.43,9.24-5.19,3.42c2.36,.51,5.97,1.42,10.86,2.73M82.39,48.06c-2.16,0-4.3,.58-6.19,1.72-2.79,1.68-4.78,4.42-5.51,7.59l-4.53,19.67-6.36-.98c-.62-.09-1.23-.14-1.83-.14-5.67,0-10.69,4.02-11.78,9.76l-2.61,13.74c-.02,.11-.04,.22-.06,.33l-1.35,8.37c-.87,5.36,1.96,10.47,6.63,12.72l-9.36,9.4c-.05,.05-.11,.11-.16,.16l-12.37,12.91c-3.44,3.59-4.31,8.94-2.18,13.44l5.12,10.82c.34,.72,.75,1.4,1.22,2.03l5.64,7.57c.61,.82,1.31,1.55,2.09,2.18l-5.29,19.43c-1.6,5.87,1.45,12.02,7.1,14.29l10.62,4.27c.2,.08,.4,.15,.6,.22l12.08,4.13c1.26,.43,2.57,.64,3.88,.64,1.95,0,3.89-.48,5.65-1.41,2.93-1.56,5.08-4.27,5.95-7.48l.62-2.3c.11,.21,.23,.42,.36,.63,1.64,2.73,4.3,4.69,7.39,5.46l15.57,3.87c-1.27,6.09,2.34,12.2,8.39,13.96l14.54,4.25,9.76,3.48c1.31,.47,2.67,.7,4.03,.7,1.92,0,3.84-.46,5.58-1.37,2.95-1.55,5.13-4.26,6-7.48l17.98,5.25c1.12,.33,2.25,.48,3.37,.48,5.14,0,9.89-3.33,11.47-8.49l5.4-17.64,.75-.12c.68-.11,1.34-.27,1.99-.5l11.38-3.9c3.2-1.1,5.78-3.49,7.12-6.59,1.34-3.1,1.31-6.62-.08-9.7l-5.19-11.49c.9-1.19,1.58-2.55,1.99-4.02l4.98-17.92c.86-3.08,.45-6.38-1.14-9.16-1.29-2.26-3.28-4.03-5.64-5.06l3.22-11.14c2.29-1.54,4.06-3.88,4.85-6.74l5.2-18.75c1.75-6.33-1.9-12.89-8.2-14.73l-16.48-4.81c.16-1.56,.02-3.15-.43-4.68-.91-3.07-3.02-5.66-5.85-7.17l-11.38-6.08c-.23-.12-.47-.24-.71-.35l-13.51-6.12c-1.6-.73-3.28-1.07-4.94-1.07-4.33,0-8.5,2.36-10.64,6.43l-2.94,5.61-18.68-4.53c-.93-.23-1.88-.34-2.83-.34-1.22,0-2.43,.19-3.59,.55,1.77-5.85-1.16-12.13-6.82-14.52l-10.41-4.39c-.51-.21-1.03-.39-1.56-.54l-14.8-3.97c-1.02-.27-2.07-.41-3.11-.41h0Z" fill="#171717"/>
      </g>
      <g>
        <path d="M87.66,391.73c-1.05,0-2.09-.27-3.01-.81l-14.97-8.7c-2.26-1.31-3.41-3.93-2.85-6.48l2.22-10.08c.34-1.53,1.25-2.86,2.56-3.72l10.81-7.13c.99-.65,2.14-.99,3.3-.99,.45,0,.91,.05,1.36,.16l4.33,1.01-4.34-1.73c-2.23-.89-3.72-3.03-3.77-5.44l-.3-13.39-5.81-14.4c-.42-1.04-.54-2.17-.35-3.27l5.71-32.76c.24-1.4,.98-2.67,2.07-3.58l11.88-9.92c.79-.66,1.75-1.11,2.77-1.3l16.5-3.02c.36-.07,.72-.1,1.08-.1,1.07,0,2.13,.29,3.06,.84l14.93,8.85c1.56,.93,2.62,2.51,2.88,4.32l3.25,22.87c.16,1.14,0,2.3-.48,3.34l-10.54,23.05c-.33,.73-.81,1.39-1.41,1.93l-12.96,11.84-10.52,12.79c-.62,.76-1.4,1.33-2.26,1.7l2.42,.56c2.42,.56,4.25,2.56,4.59,5.03l2.2,15.95c.4,2.9-1.36,5.67-4.15,6.54l-18.36,5.75c-.59,.18-1.19,.27-1.79,.27Z" fill="#f7f7f7"/>
        <path d="M116.82,272.09l14.93,8.85,3.25,22.87-10.54,23.05-13.28,12.13-10.79,13.12-11.1-4.43-.33-14.48-6.22-15.41,5.71-32.76,11.88-9.92,16.5-3.02m-31.11,87.73l18.12,4.21,2.2,15.95-18.36,5.75-14.97-8.7,2.22-10.08,10.81-7.13m31.11-99.73c-.72,0-1.44,.06-2.16,.2l-16.5,3.02c-2.04,.37-3.94,1.27-5.53,2.59l-11.88,9.92c-2.18,1.82-3.64,4.35-4.13,7.15l-5.71,32.76c-.38,2.21-.14,4.47,.69,6.55l5.4,13.38,.28,12.29c.02,.96,.16,1.89,.39,2.79l-9.39,6.2c-2.61,1.72-4.44,4.39-5.11,7.44l-2.22,10.08c-1.12,5.09,1.18,10.33,5.69,12.95l14.97,8.7c1.85,1.08,3.93,1.62,6.03,1.62,1.21,0,2.41-.18,3.59-.55l18.36-5.75c5.59-1.75,9.1-7.28,8.3-13.09l-2.2-15.95c-.34-2.44-1.4-4.65-2.98-6.4l7.17-8.72,12.65-11.55c1.19-1.09,2.15-2.4,2.82-3.87l10.54-23.05c.96-2.09,1.29-4.41,.97-6.68l-3.25-22.87c-.51-3.6-2.63-6.78-5.76-8.63l-14.93-8.85c-1.86-1.1-3.98-1.68-6.12-1.68h0Z" fill="#171717"/>
      </g>
    </g>
  </g>
</svg>