<?xml version="1.0" encoding="UTF-8"?>
<svg id="_图层_1" data-name="图层 1" xmlns="http://www.w3.org/2000/svg" viewBox="0 0 500 500">
  <g id="_离谱" data-name="离谱">
    <g>
      <g id="alert_box" data-name="alert box">
        <path id="_组_49" data-name="组 49" d="M368.46,247.02H48.99c-11.26,0-20.37-8.31-20.37-18.57V59.04c0-10.26,9.12-18.57,20.37-18.57H368.53c11.26,0,20.37,8.31,20.37,18.57V228.44c-.07,10.26-9.19,18.57-20.45,18.57Z" fill="#f7f7f7" stroke="#171717" stroke-linecap="round" stroke-linejoin="round" stroke-width="8"/>
        <rect id="_组_48" data-name="组 48" x="45.11" y="87.27" width="327.3" height="141.81" rx="10.05" ry="10.05" fill="#f7f7f7" stroke="#171717" stroke-linecap="round" stroke-linejoin="round" stroke-width="8"/>
        <path id="_组_44" data-name="组 44" d="M370.92,71.39c.81,.81,.81,2.18,0,3.05l-1.55,1.55c-.81,.81-2.18,.81-3.05,0l-6.65-6.65-6.65,6.65c-.81,.81-2.18,.81-3.05,0l-1.55-1.55c-.81-.81-.81-2.18,0-3.05l6.65-6.65-6.65-6.65c-.81-.81-.81-2.18,0-3.05l1.55-1.55c.81-.81,2.18-.81,3.05,0l6.65,6.65,6.65-6.65c.81-.81,2.18-.81,3.05,0l1.55,1.55c.81,.81,.81,2.18,0,3.05l-6.65,6.65,6.65,6.65Z" fill="#171717"/>
        <g>
          <path d="M201.49,112.35l-45.13,78.18c-3.23,5.6,.81,12.6,7.27,12.6h90.27c6.46,0,10.51-7,7.27-12.6l-45.13-78.18c-3.23-5.6-11.31-5.6-14.55,0Z" fill="#f4004c" stroke="#171717" stroke-linecap="round" stroke-linejoin="round" stroke-width="10"/>
          <rect x="204.36" y="136.24" width="8.81" height="39.12" rx="4.41" ry="4.41" fill="#f7f7f7"/>
          <rect x="204.36" y="179.83" width="8.81" height="8.81" rx="4.41" ry="4.41" fill="#f7f7f7"/>
        </g>
      </g>
      <g id="alert_box-2" data-name="alert box">
        <path id="_组_49-2" data-name="组 49" d="M384.96,268.97H65.49c-11.26,0-20.37-8.31-20.37-18.57V80.99c0-10.26,9.12-18.57,20.37-18.57H385.03c11.26,0,20.37,8.31,20.37,18.57V250.4c-.07,10.26-9.19,18.57-20.45,18.57Z" fill="#f7f7f7" stroke="#171717" stroke-linecap="round" stroke-linejoin="round" stroke-width="8"/>
        <rect id="_组_48-2" data-name="组 48" x="61.61" y="109.22" width="327.3" height="141.81" rx="10.05" ry="10.05" fill="#f7f7f7" stroke="#171717" stroke-linecap="round" stroke-linejoin="round" stroke-width="8"/>
        <path id="_组_44-2" data-name="组 44" d="M387.42,93.34c.81,.81,.81,2.18,0,3.05l-1.55,1.55c-.81,.81-2.18,.81-3.05,0l-6.65-6.65-6.65,6.65c-.81,.81-2.18,.81-3.05,0l-1.55-1.55c-.81-.81-.81-2.18,0-3.05l6.65-6.65-6.65-6.65c-.81-.81-.81-2.18,0-3.05l1.55-1.55c.81-.81,2.18-.81,3.05,0l6.65,6.65,6.65-6.65c.81-.81,2.18-.81,3.05,0l1.55,1.55c.81,.81,.81,2.18,0,3.05l-6.65,6.65,6.65,6.65Z" fill="#171717"/>
        <g>
          <path d="M217.99,134.31l-45.13,78.18c-3.23,5.6,.81,12.6,7.27,12.6h90.27c6.46,0,10.51-7,7.27-12.6l-45.13-78.18c-3.23-5.6-11.31-5.6-14.55,0Z" fill="#f4004c" stroke="#171717" stroke-linecap="round" stroke-linejoin="round" stroke-width="10"/>
          <rect x="220.85" y="158.19" width="8.81" height="39.12" rx="4.41" ry="4.41" fill="#f7f7f7"/>
          <rect x="220.85" y="201.78" width="8.81" height="8.81" rx="4.41" ry="4.41" fill="#f7f7f7"/>
        </g>
      </g>
      <g id="alert_box-3" data-name="alert box">
        <path id="_组_49-3" data-name="组 49" d="M401.45,290.93H81.98c-11.26,0-20.37-8.31-20.37-18.57V102.95c0-10.26,9.12-18.57,20.37-18.57H401.52c11.26,0,20.37,8.31,20.37,18.57v169.41c-.07,10.26-9.19,18.57-20.45,18.57Z" fill="#f7f7f7" stroke="#171717" stroke-linecap="round" stroke-linejoin="round" stroke-width="8"/>
        <rect id="_组_48-3" data-name="组 48" x="78.1" y="131.18" width="327.3" height="141.81" rx="10.05" ry="10.05" fill="#f7f7f7" stroke="#171717" stroke-linecap="round" stroke-linejoin="round" stroke-width="8"/>
        <path id="_组_44-3" data-name="组 44" d="M403.91,115.3c.81,.81,.81,2.18,0,3.05l-1.55,1.55c-.81,.81-2.18,.81-3.05,0l-6.65-6.65-6.65,6.65c-.81,.81-2.18,.81-3.05,0l-1.55-1.55c-.81-.81-.81-2.18,0-3.05l6.65-6.65-6.65-6.65c-.81-.81-.81-2.18,0-3.05l1.55-1.55c.81-.81,2.18-.81,3.05,0l6.65,6.65,6.65-6.65c.81-.81,2.18-.81,3.05,0l1.55,1.55c.81,.81,.81,2.18,0,3.05l-6.65,6.65,6.65,6.65Z" fill="#171717"/>
        <g>
          <path d="M234.48,156.26l-45.13,78.18c-3.23,5.6,.81,12.6,7.27,12.6h90.27c6.46,0,10.51-7,7.27-12.6l-45.13-78.18c-3.23-5.6-11.31-5.6-14.55,0Z" fill="#f4004c" stroke="#171717" stroke-linecap="round" stroke-linejoin="round" stroke-width="10"/>
          <rect x="237.35" y="180.15" width="8.81" height="39.12" rx="4.41" ry="4.41" fill="#f7f7f7"/>
          <rect x="237.35" y="223.74" width="8.81" height="8.81" rx="4.41" ry="4.41" fill="#f7f7f7"/>
        </g>
      </g>
      <g id="alert_box-4" data-name="alert box">
        <path id="_组_49-4" data-name="组 49" d="M417.95,312.88H98.48c-11.26,0-20.37-8.31-20.37-18.57V124.9c0-10.26,9.12-18.57,20.37-18.57H418.02c11.26,0,20.37,8.31,20.37,18.57v169.41c-.07,10.26-9.19,18.57-20.45,18.57Z" fill="#f7f7f7" stroke="#171717" stroke-linecap="round" stroke-linejoin="round" stroke-width="8"/>
        <rect id="_组_48-4" data-name="组 48" x="94.6" y="153.13" width="327.3" height="141.81" rx="10.05" ry="10.05" fill="#f7f7f7" stroke="#171717" stroke-linecap="round" stroke-linejoin="round" stroke-width="8"/>
        <path id="_组_44-4" data-name="组 44" d="M420.41,137.25c.81,.81,.81,2.18,0,3.05l-1.55,1.55c-.81,.81-2.18,.81-3.05,0l-6.65-6.65-6.65,6.65c-.81,.81-2.18,.81-3.05,0l-1.55-1.55c-.81-.81-.81-2.18,0-3.05l6.65-6.65-6.65-6.65c-.81-.81-.81-2.18,0-3.05l1.55-1.55c.81-.81,2.18-.81,3.05,0l6.65,6.65,6.65-6.65c.81-.81,2.18-.81,3.05,0l1.55,1.55c.81,.81,.81,2.18,0,3.05l-6.65,6.65,6.65,6.65Z" fill="#171717"/>
        <g>
          <path d="M250.97,178.22l-45.13,78.18c-3.23,5.6,.81,12.6,7.27,12.6h90.27c6.46,0,10.51-7,7.27-12.6l-45.13-78.18c-3.23-5.6-11.31-5.6-14.55,0Z" fill="#f4004c" stroke="#171717" stroke-linecap="round" stroke-linejoin="round" stroke-width="10"/>
          <rect x="253.84" y="202.1" width="8.81" height="39.12" rx="4.41" ry="4.41" fill="#f7f7f7"/>
          <rect x="253.84" y="245.69" width="8.81" height="8.81" rx="4.41" ry="4.41" fill="#f7f7f7"/>
        </g>
      </g>
      <g id="alert_box-5" data-name="alert box">
        <path id="_组_49-5" data-name="组 49" d="M434.44,334.84H114.97c-11.26,0-20.37-8.31-20.37-18.57V146.86c0-10.26,9.12-18.57,20.37-18.57H434.51c11.26,0,20.37,8.31,20.37,18.57v169.41c-.07,10.26-9.19,18.57-20.45,18.57Z" fill="#f7f7f7" stroke="#171717" stroke-linecap="round" stroke-linejoin="round" stroke-width="8"/>
        <rect id="_组_48-5" data-name="组 48" x="111.09" y="175.09" width="327.3" height="141.81" rx="10.05" ry="10.05" fill="#f7f7f7" stroke="#171717" stroke-linecap="round" stroke-linejoin="round" stroke-width="8"/>
        <path id="_组_44-5" data-name="组 44" d="M436.9,159.21c.81,.81,.81,2.18,0,3.05l-1.55,1.55c-.81,.81-2.18,.81-3.05,0l-6.65-6.65-6.65,6.65c-.81,.81-2.18,.81-3.05,0l-1.55-1.55c-.81-.81-.81-2.18,0-3.05l6.65-6.65-6.65-6.65c-.81-.81-.81-2.18,0-3.05l1.55-1.55c.81-.81,2.18-.81,3.05,0l6.65,6.65,6.65-6.65c.81-.81,2.18-.81,3.05,0l1.55,1.55c.81,.81,.81,2.18,0,3.05l-6.65,6.65,6.65,6.65Z" fill="#171717"/>
        <g>
          <path d="M267.47,200.17l-45.13,78.18c-3.23,5.6,.81,12.6,7.27,12.6h90.27c6.46,0,10.51-7,7.27-12.6l-45.13-78.18c-3.23-5.6-11.31-5.6-14.55,0Z" fill="#f4004c" stroke="#171717" stroke-linecap="round" stroke-linejoin="round" stroke-width="10"/>
          <rect x="270.34" y="224.06" width="8.81" height="39.12" rx="4.41" ry="4.41" fill="#f7f7f7"/>
          <rect x="270.34" y="267.65" width="8.81" height="8.81" rx="4.41" ry="4.41" fill="#f7f7f7"/>
        </g>
      </g>
      <g id="alert_box-6" data-name="alert box">
        <path id="_组_49-6" data-name="组 49" d="M450.94,356.79H131.47c-11.26,0-20.37-8.31-20.37-18.57V168.81c0-10.26,9.12-18.57,20.37-18.57H451.01c11.26,0,20.37,8.31,20.37,18.57v169.41c-.07,10.26-9.19,18.57-20.45,18.57Z" fill="#f7f7f7" stroke="#171717" stroke-linecap="round" stroke-linejoin="round" stroke-width="8"/>
        <rect id="_组_48-6" data-name="组 48" x="127.59" y="197.04" width="327.3" height="141.81" rx="10.05" ry="10.05" fill="#f7f7f7" stroke="#171717" stroke-linecap="round" stroke-linejoin="round" stroke-width="8"/>
        <path id="_组_44-6" data-name="组 44" d="M453.4,181.16c.81,.81,.81,2.18,0,3.05l-1.55,1.55c-.81,.81-2.18,.81-3.05,0l-6.65-6.65-6.65,6.65c-.81,.81-2.18,.81-3.05,0l-1.55-1.55c-.81-.81-.81-2.18,0-3.05l6.65-6.65-6.65-6.65c-.81-.81-.81-2.18,0-3.05l1.55-1.55c.81-.81,2.18-.81,3.05,0l6.65,6.65,6.65-6.65c.81-.81,2.18-.81,3.05,0l1.55,1.55c.81,.81,.81,2.18,0,3.05l-6.65,6.65,6.65,6.65Z" fill="#171717"/>
        <g>
          <path d="M283.96,222.13l-45.13,78.18c-3.23,5.6,.81,12.6,7.27,12.6h90.27c6.46,0,10.51-7,7.27-12.6l-45.13-78.18c-3.23-5.6-11.31-5.6-14.55,0Z" fill="#f4004c" stroke="#171717" stroke-linecap="round" stroke-linejoin="round" stroke-width="10"/>
          <rect x="286.83" y="246.01" width="8.81" height="39.12" rx="4.41" ry="4.41" fill="#f7f7f7"/>
          <rect x="286.83" y="289.6" width="8.81" height="8.81" rx="4.41" ry="4.41" fill="#f7f7f7"/>
        </g>
      </g>
      <g id="alert_box-7" data-name="alert box">
        <path id="_组_49-7" data-name="组 49" d="M434.44,377.34H114.97c-11.26,0-20.37-8.31-20.37-18.57V189.36c0-10.26,9.12-18.57,20.37-18.57H434.51c11.26,0,20.37,8.31,20.37,18.57v169.41c-.07,10.26-9.19,18.57-20.45,18.57Z" fill="#f7f7f7" stroke="#171717" stroke-linecap="round" stroke-linejoin="round" stroke-width="8"/>
        <rect id="_组_48-7" data-name="组 48" x="111.09" y="217.59" width="327.3" height="141.81" rx="10.05" ry="10.05" fill="#f7f7f7" stroke="#171717" stroke-linecap="round" stroke-linejoin="round" stroke-width="8"/>
        <path id="_组_44-7" data-name="组 44" d="M436.9,201.71c.81,.81,.81,2.18,0,3.05l-1.55,1.55c-.81,.81-2.18,.81-3.05,0l-6.65-6.65-6.65,6.65c-.81,.81-2.18,.81-3.05,0l-1.55-1.55c-.81-.81-.81-2.18,0-3.05l6.65-6.65-6.65-6.65c-.81-.81-.81-2.18,0-3.05l1.55-1.55c.81-.81,2.18-.81,3.05,0l6.65,6.65,6.65-6.65c.81-.81,2.18-.81,3.05,0l1.55,1.55c.81,.81,.81,2.18,0,3.05l-6.65,6.65,6.65,6.65Z" fill="#171717"/>
        <g>
          <path d="M267.47,242.68l-45.13,78.18c-3.23,5.6,.81,12.6,7.27,12.6h90.27c6.46,0,10.51-7,7.27-12.6l-45.13-78.18c-3.23-5.6-11.31-5.6-14.55,0Z" fill="#f4004c" stroke="#171717" stroke-linecap="round" stroke-linejoin="round" stroke-width="10"/>
          <rect x="270.34" y="266.56" width="8.81" height="39.12" rx="4.41" ry="4.41" fill="#f7f7f7"/>
          <rect x="270.34" y="310.15" width="8.81" height="8.81" rx="4.41" ry="4.41" fill="#f7f7f7"/>
        </g>
      </g>
      <g id="alert_box-8" data-name="alert box">
        <path id="_组_49-8" data-name="组 49" d="M417.95,397.89H98.48c-11.26,0-20.37-8.31-20.37-18.57V209.91c0-10.26,9.12-18.57,20.37-18.57H418.02c11.26,0,20.37,8.31,20.37,18.57v169.41c-.07,10.26-9.19,18.57-20.45,18.57Z" fill="#f7f7f7" stroke="#171717" stroke-linecap="round" stroke-linejoin="round" stroke-width="8"/>
        <rect id="_组_48-8" data-name="组 48" x="94.6" y="238.14" width="327.3" height="141.81" rx="10.05" ry="10.05" fill="#f7f7f7" stroke="#171717" stroke-linecap="round" stroke-linejoin="round" stroke-width="8"/>
        <path id="_组_44-8" data-name="组 44" d="M420.41,222.26c.81,.81,.81,2.18,0,3.05l-1.55,1.55c-.81,.81-2.18,.81-3.05,0l-6.65-6.65-6.65,6.65c-.81,.81-2.18,.81-3.05,0l-1.55-1.55c-.81-.81-.81-2.18,0-3.05l6.65-6.65-6.65-6.65c-.81-.81-.81-2.18,0-3.05l1.55-1.55c.81-.81,2.18-.81,3.05,0l6.65,6.65,6.65-6.65c.81-.81,2.18-.81,3.05,0l1.55,1.55c.81,.81,.81,2.18,0,3.05l-6.65,6.65,6.65,6.65Z" fill="#171717"/>
        <g>
          <path d="M250.97,263.23l-45.13,78.18c-3.23,5.6,.81,12.6,7.27,12.6h90.27c6.46,0,10.51-7,7.27-12.6l-45.13-78.18c-3.23-5.6-11.31-5.6-14.55,0Z" fill="#f4004c" stroke="#171717" stroke-linecap="round" stroke-linejoin="round" stroke-width="10"/>
          <rect x="253.84" y="287.11" width="8.81" height="39.12" rx="4.41" ry="4.41" fill="#f7f7f7"/>
          <rect x="253.84" y="330.7" width="8.81" height="8.81" rx="4.41" ry="4.41" fill="#f7f7f7"/>
        </g>
      </g>
      <g id="alert_box-9" data-name="alert box">
        <path id="_组_49-9" data-name="组 49" d="M401.45,418.44H81.98c-11.26,0-20.37-8.31-20.37-18.57V230.46c0-10.26,9.12-18.57,20.37-18.57H401.52c11.26,0,20.37,8.31,20.37,18.57v169.41c-.07,10.26-9.19,18.57-20.45,18.57Z" fill="#f7f7f7" stroke="#171717" stroke-linecap="round" stroke-linejoin="round" stroke-width="8"/>
        <rect id="_组_48-9" data-name="组 48" x="78.1" y="258.69" width="327.3" height="141.81" rx="10.05" ry="10.05" fill="#f7f7f7" stroke="#171717" stroke-linecap="round" stroke-linejoin="round" stroke-width="8"/>
        <path id="_组_44-9" data-name="组 44" d="M403.91,242.81c.81,.81,.81,2.18,0,3.05l-1.55,1.55c-.81,.81-2.18,.81-3.05,0l-6.65-6.65-6.65,6.65c-.81,.81-2.18,.81-3.05,0l-1.55-1.55c-.81-.81-.81-2.18,0-3.05l6.65-6.65-6.65-6.65c-.81-.81-.81-2.18,0-3.05l1.55-1.55c.81-.81,2.18-.81,3.05,0l6.65,6.65,6.65-6.65c.81-.81,2.18-.81,3.05,0l1.55,1.55c.81,.81,.81,2.18,0,3.05l-6.65,6.65,6.65,6.65Z" fill="#171717"/>
        <g>
          <path d="M234.48,283.77l-45.13,78.18c-3.23,5.6,.81,12.6,7.27,12.6h90.27c6.46,0,10.51-7,7.27-12.6l-45.13-78.18c-3.23-5.6-11.31-5.6-14.55,0Z" fill="#f4004c" stroke="#171717" stroke-linecap="round" stroke-linejoin="round" stroke-width="10"/>
          <rect x="237.35" y="307.66" width="8.81" height="39.12" rx="4.41" ry="4.41" fill="#f7f7f7"/>
          <rect x="237.35" y="351.25" width="8.81" height="8.81" rx="4.41" ry="4.41" fill="#f7f7f7"/>
        </g>
      </g>
      <g id="alert_box-10" data-name="alert box">
        <path id="_组_49-10" data-name="组 49" d="M384.96,438.99H65.49c-11.26,0-20.37-8.31-20.37-18.57V251.01c0-10.26,9.12-18.57,20.37-18.57H385.03c11.26,0,20.37,8.31,20.37,18.57v169.41c-.07,10.26-9.19,18.57-20.45,18.57Z" fill="#f7f7f7" stroke="#171717" stroke-linecap="round" stroke-linejoin="round" stroke-width="8"/>
        <rect id="_组_48-10" data-name="组 48" x="61.61" y="279.24" width="327.3" height="141.81" rx="10.05" ry="10.05" fill="#f7f7f7" stroke="#171717" stroke-linecap="round" stroke-linejoin="round" stroke-width="8"/>
        <path id="_组_44-10" data-name="组 44" d="M387.42,263.36c.81,.81,.81,2.18,0,3.05l-1.55,1.55c-.81,.81-2.18,.81-3.05,0l-6.65-6.65-6.65,6.65c-.81,.81-2.18,.81-3.05,0l-1.55-1.55c-.81-.81-.81-2.18,0-3.05l6.65-6.65-6.65-6.65c-.81-.81-.81-2.18,0-3.05l1.55-1.55c.81-.81,2.18-.81,3.05,0l6.65,6.65,6.65-6.65c.81-.81,2.18-.81,3.05,0l1.55,1.55c.81,.81,.81,2.18,0,3.05l-6.65,6.65,6.65,6.65Z" fill="#171717"/>
        <g>
          <path d="M217.99,304.32l-45.13,78.18c-3.23,5.6,.81,12.6,7.27,12.6h90.27c6.46,0,10.51-7,7.27-12.6l-45.13-78.18c-3.23-5.6-11.31-5.6-14.55,0Z" fill="#f4004c" stroke="#171717" stroke-linecap="round" stroke-linejoin="round" stroke-width="10"/>
          <rect x="220.85" y="328.21" width="8.81" height="39.12" rx="4.41" ry="4.41" fill="#f7f7f7"/>
          <rect x="220.85" y="371.8" width="8.81" height="8.81" rx="4.41" ry="4.41" fill="#f7f7f7"/>
        </g>
      </g>
      <g id="alert_box-11" data-name="alert box">
        <path id="_组_49-11" data-name="组 49" d="M368.46,459.54H48.99c-11.26,0-20.37-8.31-20.37-18.57v-169.41c0-10.26,9.12-18.57,20.37-18.57H368.53c11.26,0,20.37,8.31,20.37,18.57v169.41c-.07,10.26-9.19,18.57-20.45,18.57Z" fill="#f7f7f7" stroke="#171717" stroke-linecap="round" stroke-linejoin="round" stroke-width="8"/>
        <rect id="_组_48-11" data-name="组 48" x="45.11" y="299.79" width="327.3" height="141.81" rx="10.05" ry="10.05" fill="#f7f7f7" stroke="#171717" stroke-linecap="round" stroke-linejoin="round" stroke-width="8"/>
        <path id="_组_44-11" data-name="组 44" d="M370.92,283.91c.81,.81,.81,2.18,0,3.05l-1.55,1.55c-.81,.81-2.18,.81-3.05,0l-6.65-6.65-6.65,6.65c-.81,.81-2.18,.81-3.05,0l-1.55-1.55c-.81-.81-.81-2.18,0-3.05l6.65-6.65-6.65-6.65c-.81-.81-.81-2.18,0-3.05l1.55-1.55c.81-.81,2.18-.81,3.05,0l6.65,6.65,6.65-6.65c.81-.81,2.18-.81,3.05,0l1.55,1.55c.81,.81,.81,2.18,0,3.05l-6.65,6.65,6.65,6.65Z" fill="#171717"/>
        <g>
          <path d="M201.49,324.87l-45.13,78.18c-3.23,5.6,.81,12.6,7.27,12.6h90.27c6.46,0,10.51-7,7.27-12.6l-45.13-78.18c-3.23-5.6-11.31-5.6-14.55,0Z" fill="#f4004c" stroke="#171717" stroke-linecap="round" stroke-linejoin="round" stroke-width="10"/>
          <rect x="204.36" y="348.76" width="8.81" height="39.12" rx="4.41" ry="4.41" fill="#f7f7f7"/>
          <rect x="204.36" y="392.35" width="8.81" height="8.81" rx="4.41" ry="4.41" fill="#f7f7f7"/>
        </g>
      </g>
    </g>
    <g>
      <g>
        <path d="M90.4,227.85c-2.71,0-5.09-1.82-5.79-4.45,0,0-2.8-10.46-2.81-10.5l-3.36-13.68-4.21-17.38c-.73-3.01,.95-6.08,3.88-7.08l2.57-.89-2.89-3.4c-.49-.58-.87-1.25-1.11-1.96l-3.63-10.75c-.03-.08-.05-.17-.08-.25l-6.09-21.06c-.11-.38-.18-.76-.21-1.14-1.54-.56-2.84-1.75-3.5-3.37l-3.49-8.53c-.1-.23-.18-.47-.24-.72l-2.33-8.69c-.83-3.11,.93-6.31,4-7.28l29.53-9.26c.06-.02,9.41-2.62,9.41-2.62l-1.54-3.77c-.64-1.55-.59-3.3,.12-4.82,.71-1.52,2.03-2.67,3.63-3.17l16.36-5.13c.46-.14,.93-.23,1.41-.26l8.12-.52c.13,0,.26-.01,.39-.01,2.8,0,5.25,1.95,5.86,4.71l.72,3.27s20.03-5.25,20.08-5.26l23.32-5.5c.46-.11,.92-.16,1.38-.16,2.44,0,4.7,1.49,5.6,3.86l3.02,7.91c.17,.44,.28,.89,.34,1.36l1.45,11.03c.31,2.32-.76,4.53-2.61,5.77l3.75,14c.02,.09,.05,.18,.07,.27,0,0,3.99,18.29,4,18.35l.88,4.71c.25-.03,.5-.05,.74-.05,1.56,0,3.08,.61,4.21,1.73l3.47,3.43c.72,.71,1.24,1.58,1.53,2.54l2.76,9.18c.03,.1,.06,.2,.08,.31l4.48,18.41,2.24,8.35c.15,.56,.22,1.13,.2,1.71l-.11,4.09c-.06,2.15-1.26,4.1-3.15,5.12l-7.75,4.18c-.48,.26-1,.45-1.53,.57l-17.71,4c-.44,.1-.88,.15-1.32,.15-2.11,0-4.11-1.12-5.2-3l-.22-.38-.11,.11c-.44,.46-.96,.85-1.52,1.15l-9.21,4.87c-.89,.47-1.85,.7-2.8,.7-1.88,0-3.71-.88-4.88-2.5l-1.3-1.8-20.08,8.34-17.01,7.11c-.75,.31-1.54,.46-2.31,.46-1.11,0-2.2-.31-3.15-.89-.53,2.04-2.12,3.74-4.31,4.3l-14.9,3.84c-.43,.11-.88,.17-1.32,.19,0,0-5.78,.17-5.84,.17Zm87.25-50.76l-.02-.14-.5-1.42-.99,.21,1.52,1.36Z" fill="#17f700"/>
        <path d="M179.89,80.2l3.02,7.91,1.45,11.03-44.12,10.32,8.02,1.31,5.87,3.39-8,9.96,1.13,.3,10.03,3.78-3.99,9.79,9.95-2.67-2.56-11.79-4.22-14.05,12.76-3.42,12.37-1.51,4.06,15.14,3.97,18.17,1.04,5.58-10.12,3.16-12.77,2.82-26.73,6.26,5.29,.69-1.16,4.07,28.57-7.8,23.4-5.22,3.47,3.43,2.76,9.18,4.5,18.48,2.25,8.41-.11,4.09-7.75,4.18-17.71,3.99-4.21-7.29-5.64,5.87-9.21,4.87-4.07-5.67-24.48,10.16-17.03,7.12-5.61-6.91-2.48-9.25,.8-.37,3.03-8.33,1.17-3.47-12.85,4.2,3.81,15.36,3.17,12.38-14.9,3.84-5.67,.17-2.78-10.38-3.36-13.68-4.2-17.36,7.84-2.7,3.85-1.33,.56-.15,17.93-6.01,9.46-2.84,2.38-.64,1.44-6.4-6.59,1.77-30.62,9.11-3.95-4.65-3.63-10.75-6.09-21.06,14.28-5.03,8.17-2.04,2.68,12.81,3.61,11.8,6.55-1.91-4.71-3.55-3.87-6.03,10.24-6.65-8.08-.99,3.77-10.03,3.26-5.23-5.61,1.5-34.23,10.22-3.49-8.53-2.33-8.69,29.53-9.26,15.39-4.27-.71-2.66-3.05-7.45,16.36-5.13,8.12-.52,2.06,9.37,25.98-6.81,23.32-5.5m-48.94,31.6l-19.87,5.48,14.52,2.57,5.36-8.05m-9.91,34.81l17.95-4.81-7.83-2.86-1.56,1.47-8.56,6.2m56.75,39.04l6.72-2.4-.27-3.23-.78-4.6-2.44-6.86-18.77,3.98,6.31,4.47,8.29,7.4,.94,1.25m-17.22-12.67l-2.28,.46-18.43,5.24-3.1,10.3,12.84-4.79-3.01-2.8,6.12-4.64,7.86-3.76m19.32-104.79c-.91,0-1.84,.1-2.76,.32l-23.32,5.5c-.1,.02-.19,.05-.29,.07l-14.23,3.73c-1.99-4.03-6.14-6.68-10.75-6.68-.26,0-.52,0-.78,.03l-8.12,.52c-.96,.06-1.9,.24-2.82,.53l-16.36,5.13c-3.2,1.01-5.84,3.31-7.27,6.35-1.05,2.23-1.37,4.7-.97,7.09l-3,.83c-.13,.04-.25,.07-.38,.11l-29.53,9.26c-6.14,1.92-9.66,8.34-8,14.56l2.33,8.69c.13,.49,.29,.97,.48,1.44l3.49,8.53c.83,2.04,2.17,3.74,3.82,4.99l5.78,19.97c.05,.17,.1,.34,.16,.51l3.63,10.75c.17,.51,.38,1,.61,1.48-2.89,2.87-4.23,7.14-3.21,11.34l4.2,17.36,3.37,13.72c.02,.08,.04,.16,.06,.24l2.78,10.38c1.41,5.26,6.17,8.89,11.59,8.89,.12,0,.24,0,.36,0l5.67-.17c.89-.03,1.78-.15,2.64-.37l14.9-3.84c2.2-.57,4.1-1.71,5.58-3.23,.13,0,.25,0,.38,0,1.55,0,3.12-.3,4.62-.93l17.03-7.12,15.93-6.61c2.22,1.99,5.09,3.05,8,3.05,1.9,0,3.82-.45,5.6-1.39l7.21-3.81c1.86,1.13,4.02,1.75,6.24,1.75,.88,0,1.76-.1,2.64-.29l17.71-3.99c1.07-.24,2.1-.63,3.06-1.14l7.75-4.18c3.78-2.04,6.19-5.95,6.3-10.25l.11-4.09c.03-1.15-.11-2.31-.41-3.42l-2.22-8.28-4.47-18.35c-.05-.21-.11-.41-.17-.62l-2.76-9.18c-.58-1.93-1.63-3.67-3.06-5.09l-3.47-3.43c-1.17-1.16-2.55-2.04-4.04-2.63l-.11-.59c-.02-.12-.05-.24-.07-.35l-3.97-18.17c-.04-.18-.08-.37-.13-.55l-2.89-10.79c1.56-2.34,2.29-5.23,1.9-8.21l-1.45-11.03c-.12-.93-.35-1.84-.69-2.72l-3.02-7.91c-1.81-4.73-6.33-7.72-11.2-7.72h0Z" fill="#171717"/>
      </g>
      <g>
        <path d="M356.24,228.62c-.57,0-1.14-.08-1.69-.24l-11.84-3.47c-.09-.03-.18-.05-.27-.08l-7.64-2.63-11.86-3.18-29.14-8.11c-.39-.11-.75-.25-1.1-.42l-8.01-2.02c-1.54-.39-2.87-1.38-3.69-2.74s-1.05-3-.66-4.55l2.49-9.84-10.67,3.3-8.52,2.92c-.64,.22-1.3,.33-1.95,.33-2.29,0-4.46-1.32-5.46-3.5l-4.08-8.91c-.06-.13-.12-.27-.17-.4l-2.8-7.51c-.43-1.16-.49-2.42-.18-3.61,0,0,5.93-22.69,5.94-22.73l3.71-13.05-4.12-.51c-3.24-.4-5.57-3.32-5.23-6.56l.93-9.07c.03-.27,.07-.54,.14-.8l2.76-11.43c.66-2.73,3.1-4.59,5.83-4.59,.32,0,.65,.03,.97,.08l10.08,1.65c.17,.03,.33,.06,.5,.1l9.43,2.38,.6,.16-2.86-4.49-7.14-9-4.85-5.58c-1.98-2.27-1.96-5.66,.04-7.92l5.38-6.07c.2-.23,.42-.44,.66-.63l8.89-7.39c1.12-.93,2.48-1.38,3.83-1.38,1.53,0,3.06,.58,4.22,1.74l8.31,8.24c.11,.11,.22,.23,.32,.35l7.91,9.18c.13,.15,.25,.3,.36,.46l2.43,3.44c.87-.47,1.84-.71,2.83-.71,.41,0,.83,.04,1.23,.13l6.83,1.44-.12-.65c-.32-1.68,.09-3.41,1.13-4.77,1.04-1.36,2.61-2.21,4.31-2.34l8.74-.66,9.5-.75c.16-.01,.32-.02,.48-.02,2.73,0,5.14,1.85,5.81,4.54l2.33,9.24,6.28-8.68c1.17-1.61,3-2.48,4.87-2.48,1,0,2.01,.25,2.94,.77l11.23,6.32c.36,.2,.7,.44,1.01,.71l6.45,5.64c2.48,2.16,2.75,5.92,.61,8.42l-1.07,1.25,6.08,2.03c3.13,1.05,4.83,4.43,3.79,7.57l-3.19,9.67c-.12,.36-.27,.7-.45,1.03l-3.99,7.19,4.83,5.85c1.07,1.29,1.54,2.96,1.32,4.62-.22,1.66-1.12,3.15-2.49,4.11l-2.3,1.62c1.1,1.46,1.53,3.39,.99,5.28l-2.36,8.24c-.1,.36-.24,.71-.41,1.05l-3.53,7.02c-1.04,2.07-3.14,3.3-5.36,3.3-.35,0-.7-.03-1.04-.09-.03,.38-.09,.75-.19,1.12,0,0-5.32,19.85-5.33,19.89l-7.81,26.91c-.44,1.53-1.48,2.82-2.88,3.59-.89,.49-1.89,.74-2.88,.74Zm-67.95-72.27l.05-.02c.58-.18,1.18-.27,1.77-.27s1.22,.09,1.81,.28l.64-2.44h-.04c-1.18-.28-2.21-.89-3-1.72l-1.23,4.17Zm2.05-44.16c1.03,.32,1.95,.91,2.68,1.7l2.51,2.78c.88-1.52,2.41-2.63,4.27-2.92l3.66-.57,.06-7.88c0-.27,.02-.53,.06-.79l.2-1.38-3.88,3.23c-.23,.19-.48,.37-.74,.53l-8.81,5.3Z" fill="#17f700"/>
        <path d="M284.5,73.1l8.31,8.24,7.91,9.18,3.27,4.63-7.93,6.59-9.68,5.82-3.81-5.98-7.41-9.35-4.94-5.68,5.38-6.07,8.89-7.39m58.48,15.07l2.84,11.28,1.19,4.53,4.35,1.16,3.99-4.79,6.92-9.57,11.23,6.32,6.45,5.64-7,8.19,3.37,.9,11.31,3.78-3.19,9.67-4.07,7.33-7.53-2.17-18.11-5.3c.07,.12,.17,.2,.31,.23s.24,.12,.31,.23l8.78,3.7-3.37,9.77-.53,1.96c.47-.27,.78-.49,.93-.65l5.36-4.87,4.37-4.54,9.9,7.91,5.11,6.18-11.12,7.84,7.5,2.31-2.36,8.24-3.53,7.02-28.38-8.51-34.31-9.34-19.82-4.56,.15-6.72,1.84-9.12c1.71,.36,4.2,.97,7.47,1.85l-1.57-4.78-1.04-9.59,6.74-1.05,10.29-.25,.99,8.08,1.94,6.23,1.37-6.24,1.64-9.48-14.24-3.51,.07-8.1,1.36-9.55,15.65,3.29-1.81-9.5,8.74-.66,9.52-.76m-1.92,55.39l1.77-6.59,3.76-14.02-15.84-4.25-.56-.15,2.65,1.31,8.21,3.55-3.05,11.96-1.56,6.95,4.63,1.24m-21.06-8.35l-7.65,.5-1.41,.22,8.45,2.11c.32-1.21,.53-2.16,.61-2.84m39.18,13.05l-.64-1.52-.34,1.26,.28,.08,.7,.19m-100.22-37.07l10.08,1.65,9.43,2.38,10.1,2.71,3.6,3.97-3.7,12.68-6.53,22.14-1.37,7.9,3.82-.78,5.73-1.77,2.42,13.42,.26,1.27,5.91-22.61,9.38,1.46,12.41,3.03-.08,.28,26.92,7.21,15.65,5.54,6.37,4.26-5.3,19.77-7.81,26.91-11.84-3.47-7.84-2.7-12.06-3.23-29.09-8.1,.04-.14-9.29-2.34,5.17-20.41-7.75,2.58-13.27,4.11-8.61,2.95-4.08-8.91-2.8-7.51,5.91-22.61,5.31-18.71-3.5-1.54-7.27-.9,.93-9.07,2.76-11.43m81.67,74.33l1.06-4.52-11.63-3.72-12.9-3.46-1.31,4.91,14.12,3.93,10.66,2.86m-4.33,16.72l1.09-4.07-13.07-3.95-11.96-3.05c-.5,1.87-.84,3.33-1.02,4.38l9.22,2.62,15.74,4.07m-51.81-141.15c-2.71,0-5.43,.92-7.67,2.77l-8.89,7.39c-.47,.39-.91,.81-1.31,1.27l-5.38,6.07c-4,4.51-4.03,11.29-.08,15.83l4.76,5.48,.24,.3-5.27-.86c-.65-.11-1.31-.16-1.95-.16-5.45,0-10.33,3.72-11.65,9.18l-2.76,11.43c-.13,.53-.22,1.06-.27,1.6l-.93,9.07c-.57,5.54,2.73,10.59,7.73,12.46l-1.88,6.63c-.02,.08-.05,.16-.07,.24l-5.91,22.61c-.62,2.39-.5,4.91,.36,7.22l2.8,7.51c.1,.27,.21,.54,.33,.81l4.08,8.91c2,4.37,6.33,7.01,10.91,7.01,1.29,0,2.61-.21,3.89-.65l8.43-2.89,.39-.12c-.61,2.93-.09,5.99,1.45,8.58,1.63,2.74,4.29,4.71,7.37,5.49l7.48,1.88c.48,.2,.98,.38,1.49,.52l29.09,8.1s.07,.02,.11,.03l11.65,3.12,7.44,2.57c.18,.06,.35,.12,.53,.17l11.84,3.47c1.11,.32,2.24,.49,3.38,.49,2,0,3.98-.5,5.77-1.48,2.8-1.53,4.87-4.12,5.76-7.18l7.81-26.91c.02-.08,.05-.16,.07-.24l4.55-16.98c2.92-.98,5.44-3.07,6.9-5.98l3.53-7.02c.34-.67,.61-1.37,.82-2.1l2.36-8.24c.46-1.6,.57-3.22,.38-4.77,1.96-1.87,3.24-4.37,3.6-7.09,.44-3.31-.52-6.66-2.65-9.24l-2.23-2.69,2.01-3.61c.37-.66,.67-1.35,.9-2.06l3.19-9.67c2.03-6.14-1.17-12.75-7.18-15,.53-3.87-.84-7.92-4-10.68l-6.45-5.64c-.62-.54-1.29-1.02-2.01-1.42l-11.23-6.32c-1.85-1.04-3.87-1.54-5.87-1.54-3.23,0-6.4,1.3-8.71,3.73-2.06-3.86-6.11-6.35-10.58-6.35-.32,0-.64,.01-.96,.04l-9.52,.76-8.7,.66c-3.41,.26-6.54,1.96-8.62,4.67-.46,.6-.86,1.24-1.19,1.9l-.65-.14c-.82-.17-1.65-.26-2.47-.26-.07,0-.14,0-.21,0l-.14-.19c-.22-.32-.46-.62-.71-.92l-7.91-9.18c-.21-.24-.42-.47-.65-.69l-8.31-8.24c-2.33-2.31-5.38-3.48-8.45-3.48h0Z" fill="#171717"/>
      </g>
    </g>
  </g>
</svg>