<?xml version="1.0" encoding="utf-8"?>
<!-- Generator: Adobe Illustrator 26.5.0, SVG Export Plug-In . SVG Version: 6.00 Build 0)  -->
<svg version="1.1" id="_图层_1" xmlns="http://www.w3.org/2000/svg" xmlns:xlink="http://www.w3.org/1999/xlink" x="0px" y="0px"
	 viewBox="0 0 500 500" enable-background="new 0 0 500 500" xml:space="preserve">
<g id="_赛博狗头">
	<g>
		<g>
			<path fill="#FFD215" stroke="#EB8C00" stroke-width="8" stroke-linecap="round" stroke-linejoin="round" d="M176.14,177.28
				c-30.95,10.22-54.82,26.9-73.2,43.31c-3.54,3.16-6.88,6.82-10.02,10.9c-1.78-13.72-8.34-97.65,9.38-110.09
				C118.33,110.57,168.65,168.48,176.14,177.28L176.14,177.28z"/>
			<path fill="#FFD215" stroke="#EB8C00" stroke-width="8" stroke-linecap="round" stroke-linejoin="round" d="M404.74,392.31
				c-9.58,19.51-72.54,83.49-196.75,90.33C99.18,489.49,53.1,441.35,49.57,383.07c-1.99-33.08,3.7-83.5,18.26-124.33
				c5.95-16.68,13.37-31.75,22.36-43.39c3.15-4.08,6.49-7.74,10.02-10.9c18.38-16.41,42.24-33.09,73.2-43.31
				c9.58-3.17,23.3-5.33,34.28-7.06c25.4-3.8,18.63,9.12,20.95,9.43s7.47-10.53,26.5-12.01s34.08,0.94,46.75,3.88
				c17.6-20.37,48.41-52.28,68.76-52.28c28.73,0,24.01,111.04,22.18,141.5c23.6,62.71,17.73,135.87,11.92,147.71L404.74,392.31z"/>
			<path fill="#F7F7F7" d="M403.61,380.38c-0.78,5.03-1.66,8.54-2.46,10.17l0,0c-4.52,9.22-22.6,29.68-53.84,48.24
				c-27.22,16.17-73.53,36.22-139.56,39.86c-54.33,3.42-97.04-7.14-123.52-30.54c-18.46-16.31-29.06-38.88-30.66-65.27
				c-0.07-1.15-0.13-2.33-0.18-3.53c4.17-5.69,9.94-10.02,26.29-15.88c20.21-7.25,57.51-12.24,96.1-2.43l0.22,0.05
				c17.3,3.44,28.68,9.9,40.72,16.74l0.09,0.05c16.48,9.38,33.52,19.08,66.35,20.29c30.17,1.11,65.25-6.37,93.42-12.38
				c9.35-1.98,18.17-3.86,25.35-5.08l1.69-0.29H403.61z"/>
			<ellipse fill="#FFF49A" cx="120.49" cy="256.01" rx="32.97" ry="29.91"/>
			<ellipse fill="#FFF49A" cx="244.1" cy="257.3" rx="45.25" ry="33.04"/>
			<path fill="#EB8C00" d="M365.16,123.59c-8.44-0.38-42.56,52.03-37.11,57.26s13.81-8.21,22.25-3.65
				c8.44,4.56,3.45,17.41,6.11,20.53s13.33,17.75,14.52,17.03s5.09-90.49-5.78-91.17H365.16z"/>
		</g>
		<g>
			<path fill="#B0CEAB" stroke="#171717" stroke-width="8" stroke-linecap="round" stroke-linejoin="round" d="M408.84,371.11
				c-1,10.52-2.56,18.04-4.11,21.19c-3.94,8.01-16.89,23.55-39.42,39.54l21.78-58.29c1.76,0.19,3.53,0.28,5.32,0.28
				C398.1,373.83,403.6,372.88,408.84,371.11L408.84,371.11z"/>
			<path fill="#B0CEAB" stroke="#171717" stroke-width="8" stroke-linecap="round" stroke-linejoin="round" d="M387.1,373.56
				l-21.78,58.29c-16.23,11.52-37.43,23.28-63.79,32.64l20.7-43.46c1.45-3.04,3.75-5.6,6.61-7.37l18.96-11.69
				c2.63-1.62,4.79-3.92,6.25-6.65l14.6-27.34C374.41,370.94,380.62,372.87,387.1,373.56L387.1,373.56z"/>
			<path fill="#D3E5CF" stroke="#171717" stroke-width="8" stroke-linecap="round" stroke-linejoin="round" d="M368.65,367.99
				l-14.6,27.34c-1.46,2.73-3.62,5.03-6.25,6.65l-18.96,11.69c-2.87,1.77-5.16,4.33-6.61,7.37l-20.7,43.46l0,0
				c-10.85,3.85-22.57,7.29-35.19,10.14l41.04-64.95c1.48-2.35,3.5-4.31,5.89-5.72l24.54-14.5c3.3-1.95,5.86-4.93,7.31-8.47
				l9.42-23.17c4.29,4.12,9.03,7.55,14.12,10.17L368.65,367.99z"/>
			<path fill="#171717" d="M329.25,428.41L329.25,428.41c1.36,0.67,1.91,2.3,1.25,3.65l-5.15,10.47c-0.66,1.35-2.29,1.9-3.64,1.24
				l-0.01,0c-1.35-0.66-1.9-2.29-1.24-3.64l5.15-10.47C326.27,428.31,327.9,427.75,329.25,428.41z"/>
		</g>
		<g>
			<path fill="#B0CEAB" stroke="#171717" stroke-width="8" stroke-linecap="round" stroke-linejoin="round" d="M454.12,297.87
				c0,34.95-19.17,64.39-45.29,73.24c-5.23,1.78-10.74,2.72-16.42,2.72c-1.79,0-3.56-0.09-5.32-0.28
				c-6.49-0.68-12.69-2.6-18.45-5.57c-5.09-2.62-9.83-6.05-14.12-10.17c-14.49-13.9-23.81-35.58-23.81-59.95
				c0-41.95,27.62-75.96,61.7-75.96c0.48,0,0.97,0,1.44,0.02c33.41,0.95,60.27,34.58,60.27,75.94L454.12,297.87z"/>
			
				<ellipse fill="#B0CEAB" stroke="#171717" stroke-width="8" stroke-linecap="round" stroke-linejoin="round" cx="404.58" cy="297.87" rx="49.54" ry="71.25"/>
			
				<ellipse fill="#17F700" stroke="#171717" stroke-width="8" stroke-linecap="round" stroke-linejoin="round" cx="409.87" cy="298.22" rx="30.49" ry="53.5"/>
			<ellipse fill="#171717" cx="407.72" cy="299.86" rx="18.63" ry="32.68"/>
			<ellipse fill="#17F700" cx="405.31" cy="299.18" rx="8.32" ry="14.77"/>
			<line fill="none" stroke="#171717" stroke-width="8" stroke-miterlimit="10" x1="365.49" y1="254.59" x2="341.79" y2="254.59"/>
			<line fill="none" stroke="#171717" stroke-width="8" stroke-miterlimit="10" x1="354.42" y1="299.18" x2="330.71" y2="299.18"/>
			<line fill="none" stroke="#171717" stroke-width="8" stroke-miterlimit="10" x1="363.48" y1="337.48" x2="339.78" y2="337.48"/>
		</g>
		<g>
			<path fill="#D3E5CF" stroke="#171717" stroke-width="8" stroke-linecap="round" stroke-linejoin="round" d="M297.18,283.36v29.72
				c0,15.1-12.24,27.34-27.34,27.34H73.22c-15.11,0-27.34-12.24-27.34-27.34v-29.72c0-15.1,12.24-27.34,27.34-27.34h196.62
				C284.94,256.02,297.18,268.26,297.18,283.36z"/>
			<path fill="#171717" d="M289.35,281.1v34.23c0,9.68-8.15,17.53-18.2,17.53H71.91c-10.05,0-18.21-7.85-18.21-17.53V281.1
				c0-9.68,8.15-17.52,18.21-17.52h199.23C281.19,263.58,289.34,271.42,289.35,281.1L289.35,281.1z"/>
			<path fill="#839B7E" stroke="#171717" stroke-width="8" stroke-linecap="round" stroke-linejoin="round" d="M317.88,268.78h17.13
				c4.71,0,8.53,3.82,8.53,8.53v41.81c0,4.71-3.82,8.53-8.53,8.53h-17.13V268.78L317.88,268.78z"/>
			<path fill="#B0CEAB" stroke="#171717" stroke-width="8" stroke-linecap="round" stroke-linejoin="round" d="M322.04,274.66v47.11
				c0,10.3-8.35,18.65-18.65,18.65h-33.56c15.1,0,27.34-12.24,27.34-27.34v-29.72c0-15.1-12.24-27.34-27.34-27.34h33.56
				c10.3,0,18.65,8.35,18.65,18.65V274.66z"/>
			<path fill="#17F700" d="M99.22,289.26h41.34c4.95,0,8.96,4.01,8.96,8.95v0c0,4.95-4.01,8.95-8.96,8.95H99.22
				c-4.95,0-8.96-4.01-8.96-8.95v0C90.26,293.27,94.27,289.26,99.22,289.26z"/>
			<path fill="#17F700" d="M223.43,289.26h41.34c4.95,0,8.96,4.01,8.96,8.95v0c0,4.95-4.01,8.95-8.96,8.95h-41.34
				c-4.95,0-8.96-4.01-8.96-8.95v0C214.47,293.27,218.48,289.26,223.43,289.26z"/>
			<path fill="#171717" d="M309.78,288.97L309.78,288.97c2.31,0,4.17,1.86,4.17,4.16v10.16c0,2.3-1.86,4.16-4.16,4.16h-0.01
				c-2.3,0-4.16-1.86-4.16-4.16v-10.16C305.62,290.83,307.48,288.97,309.78,288.97z"/>
			<line fill="none" stroke="#171717" stroke-width="8" stroke-miterlimit="10" x1="322.04" y1="288.06" x2="343.33" y2="288.06"/>
			<line fill="none" stroke="#171717" stroke-width="8" stroke-miterlimit="10" x1="322.04" y1="308.38" x2="343.33" y2="308.38"/>
		</g>
		<g>
			<path fill="#FFD215" d="M95.87,346.84c0,0,17.79-21.21,45.74-21.21c34.9,0,54.52,35.36,54.52,35.36"/>
			<path fill="#EB8C00" d="M95.87,346.84c9.28-14.08,25.41-23.68,42.31-24.93c14.69-1.41,29.44,4.43,40.29,14.2
				c7.64,6.9,13.92,15.3,17.66,24.87c-12.31-14.29-28.22-27.79-47.16-30.76c-19.1-3.05-38.21,4.94-53.09,16.61l0,0L95.87,346.84z"/>
		</g>
		<g>
			<path fill="none" stroke="#6B4409" stroke-width="8" stroke-linecap="round" stroke-linejoin="round" d="M122.79,379.29
				l3.44,23.22c0,0-6.8,8.59-12.52,8.88c-5.73,0.29-10.64-4.98-10.64-4.98"/>
			<path fill="none" stroke="#6B4409" stroke-width="10" stroke-linecap="round" stroke-linejoin="round" d="M126.75,403.28
				c0,0,12.5,17.01,38.83,14.37s30.54-20.53,30.54-20.53"/>
			<path fill="#6B4409" d="M108.84,346.57c-4.42,2.27-18.72,15.6,1.95,30.93c6.89,6.11,15.27,2.73,15.27,2.73
				s41.66-18.72,25.54-31.97C138.21,339.75,113.26,344.3,108.84,346.57L108.84,346.57z"/>
		</g>
	</g>
	<g>
		<g>
			<path fill="#17F700" d="M53.08,195.53c-0.85,0-1.71-0.18-2.5-0.55l-5.13-2.36c-0.74-0.34-1.41-0.83-1.95-1.44l-4.22-4.68
				c-1.26-1.4-1.79-3.31-1.43-5.16s1.57-3.42,3.26-4.25l1.24-0.61l-0.75-1.93c-0.83,0.4-1.73,0.61-2.64,0.61
				c-0.98,0-1.97-0.24-2.87-0.73l-5.27-2.87c-0.41-0.22-0.78-0.49-1.13-0.8l-5.19-4.64c-1.34-1.2-2.08-2.94-2-4.75
				c0.08-1.73,0.9-3.33,2.24-4.41c-0.1-0.18-0.2-0.37-0.28-0.57l-2-4.62c-0.12-0.27-0.21-0.55-0.29-0.83l-1.07-3.99
				c-0.83-3.11,0.93-6.32,4-7.28l4.95-1.55c-0.12-0.34-0.21-0.68-0.26-1.03l-0.26-1.59c-1.22-0.69-2.2-1.82-2.69-3.24l-0.36-1.04
				l-3.97,0.69c-0.35,0.06-0.69,0.09-1.03,0.09c-2.75,0-5.22-1.9-5.84-4.67l-2.44-10.76l-1.17-5.18c-0.68-3.01,1.04-6.05,3.98-7.02
				l8.97-2.95c0.3-0.1,0.6-0.17,0.91-0.22l0.99-0.16c0.08-0.03,0.16-0.06,0.24-0.08l16.69-5.31c-0.45-1.48-0.31-3.07,0.39-4.45
				c0.72-1.42,1.98-2.49,3.49-2.99l9.49-3.09c0.29-0.1,0.59-0.17,0.9-0.22l7.26-1.18c0.32-0.05,0.65-0.08,0.97-0.08
				c2.4,0,4.58,1.44,5.52,3.66l3.33-0.97c0.09-0.03,0.18-0.05,0.27-0.07l17.21-4.17c0.32-0.08,0.64-0.13,0.97-0.15l6.24-0.46
				c0.15-0.01,0.3-0.02,0.45-0.02c0.36,0,0.73,0.03,1.09,0.1l7.04,1.3c2.28,0.42,4.11,2.11,4.71,4.35l1.51,5.63
				c0.06,0.22,0.11,0.45,0.14,0.67l1.36,9.18c0.45,3.05-1.48,5.95-4.47,6.7l-4.5,1.13l0.02,0.11c0.15,0.95,0.07,1.88-0.21,2.74
				l0.75,2.08c0.09,0.26,0.17,0.52,0.22,0.78l4.82-1.25c0.5-0.13,1.01-0.19,1.51-0.19c2.65,0,5.07,1.77,5.79,4.45l1.51,5.63
				c0.12,0.46,0.19,0.94,0.2,1.42l0.1,4.47c0,0.07,0,0.14,0,0.21l2.04,0.33c1.9,0.31,3.54,1.52,4.4,3.24
				c0.86,1.72,0.84,3.76-0.05,5.47l-4.28,8.17c-0.42,0.81-1.02,1.51-1.76,2.05l-5.74,4.22l0.55,2.58l4.12,0.24
				c2.05,0.12,3.9,1.27,4.9,3.07c1,1.79,1.01,3.97,0.04,5.78l-3.82,7.06c-0.36,0.67-0.85,1.27-1.44,1.76l-4.66,3.88
				c-1.08,0.9-2.44,1.39-3.84,1.39c-0.21,0-0.43-0.01-0.65-0.04l-14.42-1.56l-11.08-0.6c-1.4-0.08-2.71-0.64-3.73-1.56l-0.51,0.74
				c-0.19,0.27-0.4,0.53-0.62,0.77l-3.69,3.84c-0.28,0.29-0.58,0.55-0.91,0.77l-8.51,5.9c-0.22,0.15-0.45,0.29-0.68,0.41
				l-11.67,5.98c-0.86,0.44-1.8,0.66-2.74,0.66L53.08,195.53z"/>
			<path fill="#171717" d="M100.23,87.48l7.04,1.3l1.51,5.63l1.36,9.18l-6.89,1.74l-2.98,0.36l0.92,5.9l-14.31,3.51l0.58,2.15
				l13.26-3.33l1.29,3.6l0.31,4.42l-10.52,2.49l-2.05,0.55l0.19,0.72l0.46,1.3l0.61-0.16l23.19-5.99l1.51,5.63l0.1,4.47l-12.04,2.57
				l8.67,2.06l10.44,1.7l-4.28,8.17l-5.87,4.31l-3.72-1.2l0.86,4.05l1.34,6.22l-6.78,1.71l-9.82,1.43l-0.67-4.54l-1.03-4.66
				l-1.29-3.6l-12.91,3.02l-19.7,5.94l1.73,6.45l2.43,6.59l2.03-1.86l2.9-4.73l0.91-2.77l-0.29-3.54l8.73-2.23l6.86-0.19l-0.83,3.84
				l-0.79,3.61l-2.42,5.7l-3.31,4.84l-3.69,3.84l-8.51,5.9l-11.67,5.98l-5.13-2.36l-4.22-4.68l10.96-5.35l6.21-3.86l2.1-1.99
				l-8.71,3.1l-5.73,1.54l-1.42-3.68l-1.58-5.06l-0.77-3.3l-5.82,5.29l-5.27-2.87l-5.19-4.64l8.33-6.18l5.54-5.54l-12.4,4.09
				l-2.01-4.62l-1.07-3.99l12.25-3.83l10.23-3.18l-0.55-2.05l-11.66,3.56l-1.45-3.78l-0.69-4.2l11.64-3.23l-0.66-2.46l-13.5,4.06
				l-1.43-4.12l-0.26-1.79l-9.33,1.62l-2.44-10.76l-1.17-5.17l8.97-2.95l2.1-0.34l-0.03-0.1l19.61-6.24l2.84-0.87l-1.84-5.65
				l9.48-3.09l7.26-1.18l1.27,5.15l9.26-2.7l17.21-4.17l6.24-0.47 M35.75,120.33l4.48-1.31l3.17-0.85l-1.19-3.63l8.69-2.77
				l6.77-0.94l0.75,3.2l10.93-3.04l-1.58-3.86l9.1-2.88l7.41-1l0.83,3.51l9.01-2.41l-0.04-2.18L93,98.95l-20.26,4.66l-21.29,5.71
				l-17.21,5.38l0.36,1.77l1.14,3.86 M61.03,124.64l11.44-3.17l-0.73-2.33l-11.34,3.15l0.38,1.43L61.03,124.64 M63.64,134.37
				l11.23-3.12l-0.45-2.07l-11.36,3.04L63.64,134.37 M58.62,149.21l28.57-8.42l-5.51-2.14l-17.99,4.93L58.62,149.21 M84.31,155.83
				L84.31,155.83 M90.81,162.1l16.12,0.4l13.82,0.8l-3.82,7.06l-4.66,3.88l-14.58-1.58l-11.25-0.61l1.48-5.55l2.88-4.39
				 M100.21,75.5c-0.3,0-0.59,0.01-0.89,0.03L93.08,76c-0.65,0.05-1.3,0.15-1.94,0.3l-17.21,4.17c0,0,0,0-0.01,0
				c-2.11-1.76-4.82-2.79-7.68-2.79c-0.64,0-1.28,0.05-1.93,0.16l-7.26,1.18c-0.61,0.1-1.21,0.24-1.8,0.44l-9.48,3.09
				c-3.03,0.99-5.54,3.13-6.98,5.97c-0.45,0.89-0.79,1.82-1,2.77l-12.4,3.95l-0.52,0.08c-0.62,0.1-1.22,0.25-1.82,0.44l-8.97,2.95
				c-5.87,1.93-9.31,8.01-7.95,14.04l1.17,5.17l2.45,10.77c0.98,4.3,4.17,7.56,8.12,8.8c-2.57,2.92-3.67,7.03-2.59,11.05l1.07,3.99
				c0.15,0.57,0.35,1.13,0.58,1.67l0.87,2c-0.77,1.51-1.23,3.19-1.31,4.93c-0.16,3.6,1.3,7.09,3.99,9.49l5.19,4.64
				c0.69,0.62,1.45,1.15,2.26,1.59l4.25,2.32c-0.1,0.34-0.18,0.69-0.25,1.04c-0.72,3.7,0.34,7.52,2.86,10.32l4.22,4.68
				c1.09,1.21,2.42,2.19,3.91,2.87l5.13,2.36c1.59,0.73,3.3,1.1,5.01,1.1c1.88,0,3.76-0.44,5.47-1.32l11.67-5.98
				c0.47-0.24,0.93-0.52,1.36-0.82l8.51-5.9c0.66-0.46,1.27-0.97,1.82-1.55l2.1-2.18c0.59,0.12,1.19,0.2,1.8,0.23l10.92,0.59
				l14.25,1.55c0.43,0.05,0.86,0.07,1.29,0.07c2.79,0,5.51-0.97,7.68-2.78l4.66-3.88c1.17-0.98,2.15-2.17,2.88-3.52l3.82-7.06
				c1.95-3.61,1.92-7.97-0.08-11.55c-0.91-1.63-2.17-3-3.67-4.03c0.65-0.73,1.21-1.54,1.66-2.4l4.28-8.17
				c1.79-3.42,1.83-7.48,0.11-10.93c-1.27-2.54-3.37-4.51-5.91-5.63v-0.09c-0.02-0.96-0.16-1.91-0.41-2.84l-1.51-5.63
				c-0.87-3.26-3.01-5.85-5.74-7.37c1.65-2.42,2.41-5.43,1.95-8.52l-1.36-9.18c-0.07-0.45-0.16-0.9-0.28-1.34l-1.51-5.63
				c-1.2-4.47-4.86-7.86-9.42-8.7l-7.04-1.3c-0.72-0.13-1.44-0.2-2.17-0.2l0,0L100.21,75.5z"/>
		</g>
		<g>
			<path fill="#17F700" d="M157.88,123.89c-0.18,0-0.36,0-0.55-0.02l-6.54-0.6c-2.87-0.26-5.15-2.52-5.43-5.39l-1.02-10.44
				l-1.73-21.03l-0.4-3.69l-1.25,0.22c-0.34,0.06-0.69,0.09-1.02,0.09c-2.71,0-5.14-1.84-5.82-4.55l-0.98-3.96
				c-0.05-0.2-0.09-0.4-0.12-0.6l-1.37-9.56c-0.45-3.12,1.6-6.06,4.69-6.72l3.2-0.68l-0.95-9.34l-2.14-17.19
				c-0.2-1.63,0.27-3.27,1.31-4.54s2.55-2.06,4.19-2.18l9.41-0.72c0.15-0.01,0.3-0.02,0.46-0.02c0.36,0,0.71,0.03,1.06,0.09
				l6.38,1.14c2.71,0.49,4.75,2.76,4.93,5.51l0.85,12.97c0.43-0.23,0.89-0.41,1.38-0.53l-0.48-1.76c-0.08-0.29-0.14-0.59-0.17-0.9
				l-0.89-7.69c-0.37-3.23,1.9-6.17,5.12-6.63l11.3-1.59l-0.04-0.31c-0.19-1.59,0.26-3.19,1.25-4.45c0.99-1.26,2.45-2.06,4.04-2.24
				l9.06-1.01c0.22-0.02,0.44-0.04,0.66-0.04c0.06,0,7.43,0.22,7.43,0.22c2.65,0.08,4.87,1.88,5.58,4.31l4.2-4.58
				c0.41-0.45,0.88-0.83,1.41-1.13l5.16-3.01c0.94-0.55,1.98-0.81,3.02-0.81c1.62,0,3.22,0.65,4.39,1.9l6.34,6.79
				c0.12,0.12,0.23,0.26,0.33,0.39l5.63,7.17c1.8,2.3,1.69,5.55-0.26,7.72l-4.13,4.58c1.08,1,1.77,2.39,1.89,3.92l0.97,12.26
				l1.39,21.99c0.03,0.43,0,0.85-0.05,1.25c0.86,1.01,1.37,2.27,1.43,3.61l0.39,8.16c0,0.19,0,0.37,0,0.56l-0.22,4.81
				c-0.14,3.13-2.67,5.62-5.8,5.73l-5.08,0.16l0.26,2.27l0.67,5.29c0.28,2.21-0.69,4.4-2.51,5.67l-2.61,1.82
				c-0.66,0.46-1.4,0.78-2.18,0.95l-5.01,1.08c-0.19,0.04-0.38,0.07-0.58,0.09l-11.69,1.34c-0.23,0.03-0.46,0.04-0.69,0.04
				c-2.47,0-4.71-1.52-5.61-3.87l-0.88-2.33l-1.61,2.15c-1.16,1.56-2.96,2.41-4.81,2.41c-0.82,0-1.66-0.17-2.44-0.52l-6.64-2.96
				l-7.19-2.21c-2.89-0.89-4.66-3.79-4.15-6.75h-0.04c-0.25,0.03-0.49,0.05-0.73,0.05c-0.42,0-0.84-0.04-1.25-0.13l0.35,3.73
				l0.89,6.61c0.22,1.61-0.23,3.24-1.24,4.52c-1.01,1.28-2.49,2.09-4.11,2.25l-8.01,0.81c-0.2,0.02-0.4,0.03-0.6,0.03L157.88,123.89
				z"/>
			<path fill="#171717" d="M223.06,16.55l6.34,6.79l5.63,7.17l-4.27,4.73l-6.29,3.53l-4.24-5.91l0.09,2.23l-0.26,4.28l-9.23,0.28
				l-6.55,0.47l0.16,3.07l9.07-0.9l12.63-0.36l5.14,1.57l0.97,12.26l1.38,21.9l-4.31,0.59l-11.8,0.07l-0.21-3.6l-9.95,0.55l0.5,4.53
				l8.68-0.55l6.44,0.61l0.18,3.28l11.85-0.72l0.39,8.16l-0.22,4.81l-11.56,0.37l0.08,0.95l0.89,7.79l0.68,5.37l-2.61,1.82
				l-5.01,1.08l-11.69,1.34l-1.8-4.74l-2.55-4.78l6.27-1.29l0.61-1.54l-0.47-5.38l-12.8,0.8l-7.79,1l5.67,1.53l5.5,2.07l-2.41,6.49
				l-3.14,4.21l-6.97-3.11l-7.54-2.32l0.97-4.76l1.62-3.33l-9.26,1.13l-1.31-6.48l-0.58-5.38l13.66-1.94l15.82-1.6l7.2-0.42
				l-0.53-3.57l-5.47,0.69l-7.56-0.08l-0.4-4.54l-6.75,0.7l0.5,5.7l-8.02,0.7l-7.07-0.55l-1.68-17.94l-1.84-17.39l8.56-1.81
				l4.96-0.43v-0.11l8.64-0.86l-0.42-3.58l-1.69,0.15l-14.93,2.05l-1.25-4.57l-0.89-7.69l13.98-1.97l3.17-0.28l-0.77-6.32l9.06-1.01
				l7.25,0.22l0.09,5.95l7.3-0.43l4.88-0.21l-2.55-2.44l4.66-5.09L223.06,16.55 M205.59,56.59l2.11-0.18l7.81-0.68l-0.38-1.88
				l-5.34-0.28l-4.43,0.39L205.59,56.59 M184.08,58.8l7.06-0.72l-0.13-2.75l-7.17,0.73L184.08,58.8 M206.54,67.48l10.23-1
				l-0.19-2.11l-10.25,0.79l0.2,2.32 M185.1,69.36l6.98-0.5l-0.2-2.32l-6.96,0.71L185.1,69.36 M151.78,28.98l6.38,1.14l1.61,24.43
				l0.44,5.07l7.58-0.88l0.59,6.76l0.13,7.54l-6.96,0.71l1.63,17.41l1.79,19.21l0.91,6.73l-8.01,0.81l-6.54-0.6l-1.02-10.44
				l-1.73-21.02l-1.1-10.12l-7.55,1.3l-0.98-3.96l-1.37-9.56l8.46-1.8l-1.5-14.76l-2.15-17.26l9.41-0.72 M223.05,4.55
				c-2.07,0-4.15,0.53-6.03,1.63l-5.16,3.01c-0.96,0.56-1.84,1.25-2.6,2.05c-1.61-0.88-3.43-1.4-5.38-1.45l-7.25-0.22
				c-0.12,0-0.24,0-0.36,0c-0.44,0-0.88,0.02-1.32,0.07l-9.06,1.01c-3.18,0.35-6.1,1.96-8.08,4.48c-0.77,0.97-1.37,2.04-1.8,3.17
				l-6.84,0.96c-1.37,0.19-2.66,0.61-3.83,1.22c-1.45-1.07-3.15-1.83-5.02-2.17l-6.38-1.14c-0.7-0.13-1.41-0.19-2.12-0.19
				c-0.3,0-0.61,0.01-0.91,0.03l-9.41,0.72c-3.27,0.25-6.3,1.83-8.38,4.37s-3.02,5.82-2.62,9.08l2.13,17.13l0.42,4.11
				c-5,2.04-8.12,7.28-7.33,12.81l1.37,9.56c0.06,0.4,0.14,0.8,0.23,1.2l0.98,3.96c1.08,4.34,4.41,7.56,8.48,8.68l1.59,19.25
				c0,0.06,0.01,0.12,0.02,0.18l1.02,10.44c0.56,5.73,5.11,10.26,10.85,10.78l6.54,0.6c0.36,0.03,0.73,0.05,1.09,0.05
				c0.4,0,0.8-0.02,1.2-0.06l8.01-0.81c3.24-0.33,6.2-1.95,8.22-4.5c1.21-1.53,2.01-3.31,2.37-5.18l4.17,1.28l6.31,2.82
				c1.58,0.7,3.24,1.04,4.89,1.04c1.8,0,3.57-0.4,5.19-1.18c2.13,1.79,4.85,2.81,7.72,2.81c0.46,0,0.91-0.03,1.38-0.08l11.69-1.34
				c0.39-0.04,0.77-0.11,1.15-0.19l5.01-1.08c1.56-0.34,3.05-0.98,4.36-1.9l2.61-1.82c3.65-2.56,5.59-6.92,5.03-11.35l-0.14-1.11
				c5.57-0.87,9.87-5.55,10.13-11.32l0.22-4.81c0.02-0.37,0.02-0.75,0-1.12l-0.39-8.16c-0.09-1.79-0.57-3.51-1.39-5.06l-1.38-21.8
				c0-0.06,0-0.12-0.01-0.19l-0.97-12.26c-0.07-0.91-0.25-1.8-0.51-2.65l1.22-1.36c3.91-4.34,4.13-10.85,0.52-15.44l-5.63-7.17
				c-0.21-0.27-0.44-0.53-0.67-0.78l-6.34-6.79c-2.33-2.5-5.53-3.81-8.77-3.81l0,0L223.05,4.55z"/>
		</g>
		<g>
			<path fill="#17F700" d="M354.14,121.67c-0.15,0-0.31,0-0.46-0.02l-9.62-0.74c-0.53-0.04-1.05-0.15-1.55-0.33l-5.57-1.98
				c-2.46-0.87-4.07-3.23-3.99-5.83l0.11-3.77l-2.72-4.56c-0.44-0.74-0.71-1.54-0.81-2.36c0,0-14.13-1.24-14.19-1.25l-6.53-0.78
				c-0.49-0.06-0.95-0.17-1.39-0.34l-1.7,5.28c-0.33,1.03-0.94,1.96-1.75,2.67l-7.72,6.77c-1.1,0.96-2.51,1.49-3.96,1.49
				c-0.17,0-0.35,0-0.52-0.02l-7.07-0.62c-0.4-0.03-0.8-0.11-1.18-0.22l-6.12-1.81c-2.59-0.77-4.35-3.17-4.3-5.87l0.11-5.5
				l-1.46-6.1c-0.21-0.86-0.22-1.74-0.04-2.59c-0.92-0.62-1.67-1.48-2.13-2.51l-2.41-5.32c-0.1-0.23-0.19-0.47-0.27-0.71l-2.15-7
				c-0.8-2.6,0.25-5.42,2.57-6.86l6.14-3.82l1.4-1c-0.83-0.48-1.53-1.15-2.05-1.97l-3.65-5.74c-0.03-0.05-4.08-6.89-4.08-6.89
				c-1.58-2.66-0.87-6.09,1.63-7.91l5.9-4.29l1.64-1.45l-3.32-4.09c-1.99-2.45-1.74-6.01,0.56-8.16l7.07-6.62
				c0.21-0.2,0.44-0.39,0.69-0.55l4.64-3.21c1.04-0.72,2.23-1.07,3.41-1.07c1.77,0,3.51,0.78,4.69,2.26l0.42,0.52l0.17-0.27
				c1.14-1.79,3.08-2.78,5.07-2.78c1.06,0,2.14,0.28,3.11,0.87l7.98,4.85c0.54,0.33,1.03,0.74,1.44,1.22l2.17,2.53l1.14-4.28
				c0.41-1.55,1.43-2.87,2.82-3.67c0.92-0.52,1.94-0.79,2.98-0.79c0.54,0,1.08,0.07,1.62,0.22l8.31,2.32
				c0.09,0.03,0.18,0.05,0.27,0.08l7.86,2.6c3.15,1.04,4.85,4.44,3.81,7.58l-2.85,8.62l4.25,0.26c0.11,0,0.22,0.02,0.33,0.03
				l17.8,2.09c0.32,0.04,0.64,0.1,0.95,0.19l6.43,1.84c1.07,0.31,2.03,0.9,2.78,1.73l3.69,4.05c1.14,1.25,1.7,2.92,1.54,4.6
				l-1.84,19.84l-2.82,27.37c-0.02,0.21-0.06,0.43-0.1,0.64l-2.7,12.64c-0.18,0.86-0.56,1.67-1.09,2.38l-3.49,4.59
				c-0.86,1.12-2.08,1.91-3.46,2.22l-5.1,1.15c-0.43,0.1-0.88,0.15-1.32,0.15H354.14z"/>
			<path fill="#171717" d="M297.64,19.76l7.98,4.85l4.25,4.95l-4.65,6.93l-4.25,4.84l3.53,9.56l2.18,16.47l-1.82,20.8l-4.82,15
				l-7.72,6.77l-7.07-0.62l-6.12-1.81l0.12-6.27l-1.64-6.85l4.65,0.3l3.32-0.24l3.3-7.26c0.26-3.03,0.5-5.28,0.7-6.75l-3.88,2.96
				l-10.63,4.81l-2.41-5.32l-2.15-7l6.3-3.92l8.51-6.06l4.53-4.39l0.36-0.5l-0.44-3.44l-1.1-4.46l-1.62,1.45l-9.16,6.22l-3.65-5.74
				l-3.98-6.73l6.13-4.46l5.88-5.23l-0.82-1.56l-5.86-7.21l7.07-6.62l4.64-3.21l5.66,7.09L297.64,19.76 M319.29,20.47l8.31,2.32
				l7.86,2.6l-4.48,13.54c-0.26,0.55-0.58,1.37-0.96,2.47l12.17,0.75l17.8,2.09l6.43,1.84l3.69,4.05l-1.84,19.84l-2.81,27.31
				l-2.7,12.64l-3.49,4.59l-5.1,1.15l-9.62-0.74l-5.57-1.98l0.16-5.52l-3.62-6.06l7.91,0.8l3.6-1.07l2.38-10.22L352.13,61
				l-1.67-2.81l-13.04-1.78l-10.59-0.5l-0.17-6.61l-3.27,6.95l-4.89,8.51l2.02,0.07v-0.11l12.31,0.44l10.4,1.55l2.24,2.32
				l-0.97,9.92l-1.04,13.1l-0.76,5.04l-6.24-0.44l-1.16-0.1l-8.66-0.76l-3.59-0.31l-5.81-0.51l-1.16-0.1l-6.53-0.78l0.23-6.26
				l0.92-11.73l0.77-11.21l5.86-0.13l-5.04-3.21l-6.78-4l4.84-9.15L315,36.57l4.28-16.11 M325.54,85.05l4.69-0.12l0.46-6.45
				l-4.1-0.57l-2.13,0.03l-0.5,6.98l1.58,0.14 M297.65,7.76c-1.9,0-3.77,0.45-5.46,1.31c-1.55-0.69-3.22-1.04-4.9-1.04
				c-2.36,0-4.74,0.69-6.82,2.13l-4.64,3.21c-0.48,0.34-0.94,0.71-1.37,1.11l-7.07,6.62c-4.39,4.11-5.04,10.8-1.62,15.65l-2.58,1.87
				c-5,3.64-6.42,10.49-3.27,15.82l3.98,6.73c0.06,0.11,0.13,0.21,0.2,0.32l1.94,3.05l-1.88,1.17c-4.63,2.88-6.74,8.51-5.13,13.72
				l2.15,7c0.15,0.48,0.33,0.96,0.54,1.42l2.41,5.32c0.41,0.91,0.93,1.76,1.55,2.53c0.05,0.5,0.14,1,0.26,1.49l1.28,5.35l-0.09,4.73
				c-0.11,5.4,3.41,10.21,8.59,11.74l6.12,1.81c0.77,0.23,1.56,0.38,2.36,0.45l7.07,0.62c0.35,0.03,0.7,0.05,1.05,0.05
				c2.9,0,5.72-1.05,7.91-2.98l7.72-6.77c1.63-1.43,2.85-3.28,3.51-5.35l0.13-0.4l3.06,0.37c0.13,0.02,0.26,0.03,0.39,0.04l1.16,0.1
				l5.81,0.51l3.34,0.29l1.69,2.84l-0.06,2.02c-0.15,5.21,3.07,9.92,7.98,11.67l5.57,1.98c1,0.35,2.04,0.57,3.1,0.66l9.62,0.74
				c0.3,0.02,0.61,0.03,0.92,0.03c0.89,0,1.77-0.1,2.64-0.29l5.1-1.15c2.76-0.62,5.21-2.2,6.92-4.45l3.49-4.59
				c1.07-1.4,1.81-3.03,2.18-4.75l2.7-12.64c0.09-0.42,0.16-0.85,0.2-1.28l2.81-27.31c0,0,0-0.08,0.01-0.12l1.84-19.84
				c0.31-3.36-0.81-6.7-3.08-9.2l-3.69-4.05c-1.5-1.65-3.43-2.84-5.57-3.45l-6.43-1.84c-0.62-0.18-1.26-0.31-1.9-0.38l-14.99-1.76
				l0.46-1.4c2.08-6.29-1.33-13.08-7.62-15.16l-7.86-2.6c-0.18-0.06-0.36-0.11-0.54-0.17l-8.31-2.32c-1.06-0.3-2.15-0.44-3.23-0.44
				c-2.07,0-4.13,0.54-5.96,1.58c-1.37,0.78-2.56,1.82-3.51,3.05l-5.94-3.61c-1.94-1.18-4.1-1.75-6.22-1.75l0,0L297.65,7.76z"/>
		</g>
		<g>
			<path fill="#17F700" d="M455.87,197.35c-2.06,0-4.05-1.07-5.16-2.94l-6.29-10.6l-8.84-12.28l-6.01-6.59l-1.72,1.27
				c-0.39,0.29-0.81,0.53-1.26,0.71l-15.43,6.4c-0.29,0.12-0.6,0.22-0.91,0.29l-17.34,4.13c-0.47,0.11-0.93,0.16-1.39,0.16
				c-2.54,0-4.88-1.62-5.7-4.14l-3.62-11.06c-0.15-0.45-0.24-0.91-0.28-1.38l-0.38-4.71c-0.25-3.02,1.8-5.76,4.78-6.36l12.66-2.59
				l-9.1-1.93c-2.99-0.63-5.03-3.42-4.73-6.46l0.77-7.8c0.03-0.26,0.07-0.53,0.13-0.78l1.58-6.71c0.65-2.75,3.11-4.63,5.83-4.63
				c0.39,0,0.79,0.04,1.19,0.12l4.45,0.9l-2.29-1.78c-2.61-2.04-3.08-5.81-1.04-8.42l5.02-6.45c0.22-0.28,0.46-0.54,0.73-0.78
				l4.33-3.89c0.47-0.42,1-0.76,1.55-1.01c-0.32-0.65-0.52-1.37-0.58-2.1c-0.14-1.6,0.37-3.18,1.4-4.4l4.17-4.92
				c0.16-0.19,0.33-0.36,0.51-0.53l5.25-4.85c1.14-1.06,2.6-1.59,4.07-1.59c1.25,0,2.5,0.39,3.57,1.18l9.52,7.05
				c0.22,0.17,0.44,0.35,0.63,0.54l2.98,2.92l0.57-2.41c0.38-1.62,1.42-3.01,2.87-3.84c0.92-0.52,1.94-0.79,2.97-0.79
				c0.6,0,1.21,0.09,1.79,0.27l12.15,3.8c0.53,0.16,1.02,0.4,1.49,0.7l5.14,3.35c2.33,1.52,3.31,4.44,2.37,7.06l-10.76,29.92
				c-0.09,0.25-0.2,0.5-0.32,0.74l-2.21,4.25l13.46,3.61c0.08,0.02,0.15,0.04,0.23,0.07l15.29,4.76c1.52,0.47,2.79,1.53,3.53,2.94
				s0.89,3.05,0.42,4.57l-2.36,7.6c-0.05,0.18-0.12,0.35-0.19,0.52l-2.79,6.71c-0.95,2.29-3.17,3.7-5.54,3.7
				c-0.6,0-1.21-0.09-1.81-0.28l-8.65-2.73l4,5.13c0.09,0.12,0.18,0.25,0.27,0.37l5.32,8.01c0.89,1.34,1.2,2.98,0.87,4.56
				s-1.28,2.95-2.64,3.82l-9.67,6.19c-0.26,0.17-0.54,0.32-0.83,0.44l-5.59,2.45c-0.78,0.34-1.6,0.51-2.41,0.51L455.87,197.35z
				 M427.26,126.89l1.72-4.04l-3.33,3.61l1.62,0.43H427.26z M430.7,113.81c0.49,0.67,0.83,1.41,1.01,2.18l1.34-4.02l-1.76,1.42
				C431.1,113.54,430.9,113.68,430.7,113.81z"/>
			<path fill="#171717" d="M422.19,85.66l9.52,7.05l6.6,6.49l-4.63,4.58l-6.15,4.93l-7.94-7.61l-6.82-5.67l4.17-4.92L422.19,85.66
				 M445.3,90.32l12.15,3.8l5.14,3.35l-10.76,29.92l-5.66,10.88l20.68,5.54l15.29,4.76l-2.36,7.6l-2.79,6.71l-27.72-8.74l7.23,8.63
				l9.31,11.93l5.31,8.01l-9.67,6.19l-5.59,2.45l-6.42-10.83l-9.19-12.78l-6.36-6.97l5.22-5.95l3.31-2.52
				c-2.18-0.59-3.81-1.06-4.89-1.42l-1.34,1.73l-11.9,8.77l-15.43,6.4l-17.34,4.13l-3.62-11.06l-0.38-4.71l16.25-3.33l13.75-5.86
				l1.41-1.16l-0.61-0.16l-27.2-5.75l0.77-7.8l1.58-6.71l14.88,3l14.41,3.53l7.27,1.95l1.89-2.56l4.74-11.13l5.55-16.62L445.3,90.32
				 M409.84,103.54l10.48,7.97l5.56,5.88l-4.63,5.01l-5.3,4.62l-6.02-5.78l-9.44-7.36l5.02-6.45L409.84,103.54 M422.2,73.68
				c-2.94,0-5.86,1.07-8.14,3.18l-5.25,4.85c-0.36,0.33-0.69,0.68-1.01,1.05l-4.17,4.92c-1.87,2.2-2.87,5-2.85,7.87l-3.28,2.94
				c-0.53,0.48-1.02,1-1.46,1.56l-5.02,6.45c-1.83,2.36-2.65,5.18-2.52,7.94c-3.27,1.49-5.84,4.42-6.72,8.18l-1.58,6.71
				c-0.12,0.52-0.21,1.04-0.26,1.57l-0.77,7.8c-0.27,2.7,0.38,5.29,1.71,7.45c-3.54,2.35-5.68,6.5-5.32,10.97l0.38,4.71
				c0.08,0.94,0.26,1.86,0.56,2.76l3.62,11.06c1.64,5.02,6.32,8.27,11.4,8.27c0.92,0,1.85-0.11,2.79-0.33l17.34-4.13
				c0.62-0.15,1.23-0.34,1.82-0.59l15.01-6.23l2.44,2.68l8.48,11.78l6.15,10.37c2.22,3.75,6.2,5.88,10.33,5.88
				c1.61,0,3.25-0.33,4.81-1.01l5.59-2.45c0.57-0.25,1.13-0.55,1.65-0.88l9.67-6.19c2.71-1.73,4.61-4.48,5.27-7.63
				c0.66-3.15,0.04-6.43-1.74-9.11l-1.06-1.59c3.5-0.93,6.52-3.43,8-7l2.79-6.71c0.14-0.34,0.27-0.68,0.38-1.03l2.36-7.6
				c0.95-3.04,0.65-6.33-0.83-9.15c-1.48-2.82-4.02-4.93-7.06-5.88l-15.29-4.76c-0.15-0.05-0.3-0.09-0.46-0.13l-6.49-1.74
				l10.41-28.96c1.88-5.23-0.08-11.07-4.73-14.11l-5.14-3.35c-0.92-0.6-1.92-1.07-2.97-1.4l-12.15-3.8
				c-1.17-0.37-2.38-0.55-3.58-0.55c-2.07,0-4.12,0.53-5.95,1.58c-0.87,0.5-1.67,1.1-2.38,1.78l-7.64-5.66
				c-2.13-1.58-4.64-2.36-7.14-2.36l0,0L422.2,73.68z"/>
		</g>
	</g>
</g>
</svg>
