<?xml version="1.0" encoding="UTF-8"?>
<svg id="_图层_1" data-name="图层 1" xmlns="http://www.w3.org/2000/svg" viewBox="0 0 500 500">
  <g id="_适我不配" data-name="适我不配">
    <g>
      <path d="M94.04,216.2c5.85-6.17,14.29-10.75,19.65-17.72,6.13-7.98,8.05-19.75,15-27.63,6.68-7.58,18.11-11,25.51-18.4,9.87-9.87,15.89-23.53,26.06-32.12,10.75-9.08,25.26-12.66,36.09-20.21,9.72-6.77,17.24-16.45,26.1-23.1-76.84,4.65-138.99,63.72-148.41,139.18Zm297.15-58.25c-.52-.92-1.05-1.84-1.59-2.75-20.11-34.07-52.54-60-91.15-71.67-12.64,6.87-24.05,19.04-38.23,28.38-13.5,8.88-30.9,14.32-44.76,25.82-12.7,10.53-21.38,26.53-33.89,39.04-10.69,10.69-25.1,17.47-34.37,28.33-9.93,11.65-14.28,27-22.41,38.48-8.42,11.9-20.24,20.85-27.13,31.78,11.24,44.43,41.13,81.43,80.86,102.18,1.49,.78,2.99,1.54,4.51,2.27,20.93,10.1,44.4,15.76,69.2,15.76,21.87,0,42.71-4.4,61.68-12.37,25.48-10.7,47.59-27.83,64.31-49.35,9.72-12.52,10.78-33.01,.83-44.78-9.94-11.76-32.05-.96-55.7-7.79-23.64-6.83-5.8-21.48-62.34-17.94-56.54,3.53-44.42,29.65-68.47,27.69-24.05-1.96-20.84-20.08-13.6-36.2,7.25-16.12,37.33-22.02,77.71-21.39,67.31,1.05,130.05,35.7,146.4,26.2,8.56-5.75,8.6-16.35,8.6-23.49,0-28.41-7.43-55.1-20.46-78.2Zm-136.04,41.59c-40.87,.55-76.69,13.15-76.69,13.15,2.48-26.1,9.71-37.21,30.21-47.36,27.37-13.43,25.32,0,45.72,1.13,20.41,1.13,18.56-13.43,42.45-1.84,11.79,3.28,26.83,23.56,29.15,48.07,0,0-29.97-13.7-70.84-13.15Z" fill="#3295ce" stroke="#171717" stroke-linecap="round" stroke-linejoin="round" stroke-width="10"/>
      <path d="M400.49,129.44c-1.66,10.65,1.05,23.69-3.17,35.47-.66-1.29-1.41-5.26-2.09-6.53-.37-.69-2.26-.53-4.04-.43-.52-.92-1.05-1.84-1.59-2.75,.99-.79,1.94-1.58,1.57-2.18,3.2-8.46-.27-17.84,1.24-25.35,1.84-9.18,8.3-17.33,7.44-24.7-1.09-9.21-9.46-14.37-15.1-20.01-6.51-6.51-13.4-14.98-24.56-15.46-8.59-.37-17.72,6.85-28.4,9.74-8.67,2.35-19.94,.1-29.64,4.45-1.25,.56-2.48,1.17-3.7,1.84-12.64,6.87-24.05,19.04-38.23,28.38-13.5,8.88-30.9,14.32-44.76,25.82-12.7,10.53-21.38,26.53-33.89,39.04-10.69,10.69-25.1,17.47-34.37,28.33-9.93,11.65-14.28,27-22.41,38.48-8.42,11.9-20.24,20.85-27.13,31.78-.5,.79-.98,1.59-1.42,2.41-6.32,11.6-6.01,25.23-9.86,35.72-4.78,13.03-13.39,23.83-14,34.37-.84,14.45,7.53,24.22,15.39,32.07,6.97,6.98,14.84,15.44,27.1,15.52,9.26,.06,18.95-7.61,30.44-11.13,9.3-2.84,21.07-1.1,31.43-6.1,.56,.31,1.16-.09,1.78-.68,1.49,.78,2.99,1.54,4.51,2.27,.13,1.48,.34,2.81,1.05,3.14,1.62,.75,6.06,1.32,7.71,2.02-14.2,6.81-30.3,6.56-43.34,10.07-15.76,4.25-29.86,11.9-42.87,10.95-16.18-1.17-27.44-11.63-37.37-21.56-12.97-12.97-23.23-30.33-21.47-53.39,1.32-17.29,12.29-35.33,21.02-55.86,7.16-16.86,11.43-37.28,23.12-55.04,.92-1.4,1.99-2.7,3.16-3.94,5.85-6.17,14.29-10.75,19.65-17.72,6.13-7.98,8.05-19.75,15-27.63,6.68-7.58,18.11-11,25.51-18.4,9.87-9.87,15.89-23.53,26.06-32.12,10.75-9.08,25.26-12.66,36.09-20.21,9.72-6.77,17.24-16.45,26.1-23.1,1.77-1.34,3.6-2.55,5.51-3.59,15.54-8.48,33.12-9.69,47.55-14.45,17.53-5.77,33.05-14.53,47.61-14.32,18.6,.28,32.02,10.77,43.06,21.81,8.04,8.04,18.15,15.84,20.39,28.13,1.9,10.4-4.11,22.18-6.08,34.84Z" fill="#f0b410" stroke="#171717" stroke-linecap="round" stroke-linejoin="round" stroke-width="10"/>
      <path d="M325.99,279.89c0,9.86-6.93,17.85-15.49,17.85s-15.49-7.99-15.49-17.85,15.49-40.89,15.49-40.89c0,0,15.49,31.03,15.49,40.89Z" fill="#69eaf4" stroke="#171717" stroke-miterlimit="10" stroke-width="6"/>
      <g>
        <ellipse cx="224.53" cy="213.15" rx="22.17" ry="31.09" fill="#f7f7f7" stroke="#171717" stroke-miterlimit="10" stroke-width="8"/>
        <ellipse cx="227.33" cy="222.88" rx="9.06" ry="12.71" fill="#171717"/>
      </g>
      <g>
        <ellipse cx="292.04" cy="213.15" rx="31.09" ry="22.17" transform="translate(51.72 483.28) rotate(-84.47)" fill="#f7f7f7" stroke="#171717" stroke-miterlimit="10" stroke-width="8"/>
        <ellipse cx="289.54" cy="223.03" rx="12.71" ry="9.06" transform="translate(39.62 489.71) rotate(-84.47)" fill="#171717"/>
      </g>
    </g>
    <g>
      <g>
        <path d="M67.57,167.27c-.95,0-1.9-.23-2.76-.67-.63-.33-1.19-.76-1.67-1.28l-3.84-2.22c-.66-.38-1.24-.89-1.71-1.49l-6.83-8.68c-1.69-2.14-1.72-5.15-.07-7.33l4.13-5.48,.35-2.22-3.22-3.8c-.61-.72-1.04-1.57-1.26-2.49l-2.2-9.24c-.14-.59-.19-1.19-.15-1.79l-.86,.25c-.56,.17-1.14,.25-1.7,.25-2.15,0-4.19-1.16-5.26-3.12l-2.94-5.36c-.22-.4-.39-.83-.52-1.27l-3.17-11.3c-.88-3.12,.89-6.37,3.98-7.34l12.21-3.82-4.65-1.85-11.54-3.3c-2.64-.76-4.43-3.21-4.35-5.96l.23-7.3c.02-.5,.1-1,.24-1.49l2.63-9.03c.76-2.6,3.13-4.32,5.76-4.32,.33,0,.67,.03,1.01,.09l10.59,1.81c.23,.04,.46,.09,.69,.16l7.27,2.15c.19,.06,.37,.12,.55,.19l6.89,2.8c.34,.14,.67,.31,.97,.5l-1.92-4.78c-1.22-3.04,.22-6.5,3.24-7.77l20.44-8.59,10.9-5.42,19.89-12.35c.98-.61,2.07-.9,3.16-.9,1.62,0,3.22,.66,4.39,1.91l8.24,8.85c.39,.41,.71,.88,.96,1.38l4.07,8.06c1.47,2.92,.34,6.48-2.55,8.01l-11.88,6.28,3.47-1c.06-.02,17.71-4.47,17.71-4.47,.49-.12,.99-.18,1.47-.18,2.57,0,4.93,1.66,5.72,4.21l2.87,9.2c.1,.32,.17,.64,.22,.97l1.17,8.43c.39,2.84-1.27,5.52-3.9,6.47,.79,.76,1.38,1.73,1.67,2.83l4.41,16.98c.03,.12,.06,.25,.08,.37l2.72,14.09,1.28-.38c.56-.17,1.14-.25,1.71-.25,1.03,0,2.05,.26,2.96,.78,1.42,.81,2.45,2.15,2.85,3.74l2.74,10.73c.16,.64,.22,1.29,.17,1.95l-.55,7.11c-.2,2.58-2.03,4.74-4.54,5.36l-27.01,6.69c-.15,.04-.31,.07-.47,.1l-37.01,6.11-24.79,5.17-10.65,3.91c-.67,.25-1.37,.37-2.07,.37Zm14.23-44.23l-1.92-5.8c-.04-.13-.08-.26-.11-.39l-.46-1.77-.87,3.98,.46,1.25,2.9,2.73Zm-17.31-38.41c.18-.04,.36-.06,.53-.08l-.15-.51-.38,.6Zm4.59-15.26c-.02,.14-.05,.28-.09,.42l-1.39,5.77c.25-.12,.5-.22,.77-.31l3.59-1.16-2.89-4.73Z" fill="#17f700"/>
        <path d="M122.1,29.52l8.24,8.85,4.07,8.06-17.82,9.42-5.71,2.62,4.03-.26,2,8.48,13.56-3.91,17.52-4.42,2.87,9.2,1.17,8.43-16,3.47-14.84,4.25,1.43,5.35,8.47-2.54,13.05-2.27,5.79,1.73,4.41,16.98,3.15,16.36-12.35,3.85-5.1,.82-14.3,3.7-20.7,5.82-2.32,1.03-9.62,2.31-1.83-4.29-5.69-17.18-3.49-13.54,10.43-3.89,3.06-.82,7.83-2.37-1.34-5.51-7.48,2.14-18.04,6.06-3.51-6.98-2.81-9.49,14.95-4.83,12.25-3.69-2.1-6.81-17.25,6.94-4.38-7.16-3.67-9.12,20.62-8.66,11.33-5.63,20.14-12.49m-15.57,88.14l12.46-2.93,14.62-4.05-.45-2.2-1.51-4.1-10.23,2.06-16.61,5.27,1.16,4.33,.57,1.62M38.41,61.63l10.59,1.81,7.27,2.15,6.89,2.8-2.78,11.53-3.37,5.27-9.63-3.84-11.83-3.38,.23-7.3,2.63-9.03m27.26,28.88l3.57,3.14,5.24,9.38,.66,2.96-2.94,13.49,1.54,4.23,5.66,5.31,2.3,7.57-1.31,3.76,19.38-4.1,34.41-6.62,18.1-4.3,13.66-4.07,2.74,10.73-.55,7.11-27.01,6.69-37.13,6.13-25.34,5.29-11.06,4.06-.1-.38-5.17-2.98-6.83-8.68,5.04-6.67,1.01-6.41-4.99-5.9-2.2-9.24,1.32-8.82-9.87,2.92-2.94-5.36-3.17-11.3,12.09-3.79,13.91-4.14M122.1,17.52c-2.18,0-4.37,.59-6.32,1.8l-19.66,12.2-10.48,5.21-20.27,8.52c-3.72,1.56-6.24,4.78-7.06,8.44l-5.91-1.75c-.46-.13-.92-.24-1.39-.32l-10.59-1.81c-.68-.12-1.36-.17-2.03-.17-5.25,0-10,3.45-11.51,8.65l-2.63,9.03c-.28,.97-.44,1.97-.47,2.98l-.23,7.3c-.17,5.34,3.21,10.12,8.25,11.78-3.4,2.95-4.98,7.7-3.69,12.3l3.17,11.3c.25,.88,.59,1.73,1.03,2.53l2.94,5.36c1.74,3.18,4.76,5.3,8.13,5.99l1.47,6.17c.44,1.83,1.3,3.53,2.51,4.97l.82,.97-2.29,3.04c-3.28,4.35-3.22,10.37,.15,14.65l6.83,8.68c.94,1.2,2.11,2.21,3.43,2.97l3.18,1.84c.76,.7,1.62,1.3,2.56,1.79,1.73,.9,3.63,1.35,5.53,1.35,1.39,0,2.79-.24,4.13-.73l10.24-3.76,24.24-5.06,36.88-6.09c.31-.05,.62-.12,.93-.19l27.01-6.69c5.02-1.24,8.68-5.56,9.08-10.72l.55-7.11c.1-1.31-.01-2.63-.34-3.9l-2.74-10.73c-.81-3.16-2.87-5.86-5.71-7.47-1.27-.72-2.64-1.19-4.05-1.41l-1.69-8.75c-.05-.25-.1-.5-.17-.75l-4.34-16.71c1.85-2.45,2.76-5.61,2.31-8.87l-1.17-8.43c-.09-.66-.24-1.3-.43-1.93l-2.87-9.2c-1.6-5.11-6.32-8.42-11.45-8.42-.52,0-1.05,.03-1.58,.1,0-1.83-.41-3.69-1.29-5.44l-4.07-8.06c-.51-1.01-1.16-1.94-1.93-2.77l-8.24-8.85c-2.34-2.51-5.54-3.82-8.79-3.82h0Z" fill="#171717"/>
      </g>
      <g>
        <path d="M431.48,169.88c-.67,0-1.34-.11-1.98-.34l-11.74-4.1c-1.13-.4-2.12-1.12-2.84-2.08l-10.14-13.64c-.1-.13-.19-.27-.28-.42l-.08,.04c-.22,.1-.45,.18-.68,.25l-16.91,5.03c-.57,.17-1.14,.25-1.71,.25-2.49,0-4.8-1.56-5.66-4.02l-2.43-6.97-1.75-4.45-.1,.23c-.47,1.13-1.28,2.09-2.31,2.75l-7.08,4.52c-.95,.61-2.05,.93-3.18,.94,0,0-8.93,.07-8.95,.07-.95,0-1.88-.22-2.73-.66l-7.33-3.74c-.12-.06-.24-.13-.36-.2l-6.59-3.95c-1.39-.83-2.38-2.19-2.76-3.77-.37-1.58-.09-3.24,.79-4.61l2.72-4.26,2.38-6.27-1.24-.1c-3.2-.27-5.63-3.01-5.5-6.23l.32-7.78,.22-9.44c.04-1.63,.74-3.17,1.93-4.27,1.11-1.02,2.56-1.59,4.07-1.59,.11,0,.23,0,.34,0l16.86,.97,.28-1.4-14.79-2.51c-1.67-.28-3.13-1.25-4.04-2.68-.91-1.42-1.18-3.16-.75-4.79l2.01-7.49,2.12-9.92c.6-2.81,3.08-4.75,5.86-4.75,.36,0,.72,.03,1.09,.1l2.89,.53c-.05-.33-.08-.68-.08-1.02,0,0,.07-11.56,.07-11.62l.25-7.58c.05-1.61,.76-3.13,1.95-4.22,1.11-1.01,2.56-1.57,4.05-1.57,.11,0,.22,0,.33,0l13.03,.71,15.21-1.35,12.12-2.94c.47-.11,.94-.17,1.42-.17,1.17,0,2.33,.34,3.33,1.01,1.39,.93,2.34,2.4,2.6,4.06l1.05,6.67,.63-3.26c.31-1.59,1.25-2.99,2.61-3.88,.98-.64,2.13-.98,3.28-.98,.44,0,.88,.05,1.31,.15l8.68,1.94,9.17,.15c1.63,.03,3.19,.72,4.3,1.92,1.11,1.2,1.69,2.8,1.59,4.43l-.27,4.57c-.01,.25-.04,.5-.09,.74l-.57,3.09,1.33-.62,8.46-4.57c.9-.49,1.88-.72,2.85-.72,1.86,0,3.67,.86,4.84,2.44l8.01,10.88c.19,.26,.37,.54,.52,.84l6.35,12.49c1.48,2.9,.37,6.45-2.5,8l-4.42,2.38c.62,1.18,.83,2.55,.58,3.87l-1.54,8.26-1.74,10.53c-.26,1.61-1.17,3.03-2.51,3.96-1.01,.7-2.2,1.06-3.41,1.06-.39,0-.79-.04-1.18-.12l-7.05-1.41,4.43,4.84c1.13,1.23,1.69,2.89,1.55,4.55-.14,1.67-.97,3.2-2.29,4.23l-7.14,5.56,5.01,6.08,6.05,5.36c1.83,1.62,2.49,4.2,1.67,6.51l-3.29,9.22c-.23,.65-.57,1.25-1.01,1.78l-5.68,6.94c-.46,.56-1.01,1.03-1.64,1.4l-9.21,5.32c-.92,.53-1.96,.8-3,.8Zm-49.68-46.06l.51-.17-.43-.03-.08,.2Zm54.6-49.42l-2.57-4.78-.34,1.86-.32,2.38,3.24,.54Zm-34.9-5.98l1.54-7.92-9.07,1.71c-.14,.03-.28,.05-.43,.06l-.66,.08c.02,.31,.02,.61,0,.93l-.3,3.54,8.92,1.59Z" fill="#17f700"/>
        <path d="M399.83,35.39l1.42,8.98,2.97,9.81-11.36,2.14-17.47,2.01c.17,.05,.29,.12,.35,.23l11.16,4.22-.76,8.94,3.63,.7,16.81,3,.59-4.76,6.16-31.66,9.27,2.08,9.79,.16-.27,4.57-4.57,24.72-1.13,8.3,20,3.31-3.69-8.64-4.47-8.3-4.59-6.83,7.8-3.64,8.62-4.65,8.01,10.88,6.35,12.49-8.46,4.56-9.57,4.13,11.13,1.75-1.55,8.32-1.75,10.59-30.32-6.08-1.17,8.43,.16,5.5,11.45-9.63,5.52,8.44,6.13,6.69-17.08,13.31-3.78,2.4,.77,3.76,3.06,4.37,1.22-.49,2.4-3.86,2.7-8.56,7.93,9.63,6.4,5.67-3.29,9.22-5.68,6.94-9.21,5.32-11.74-4.1-10.14-13.64-1.55-4.92-6.03,2.62-16.91,5.03-2.47-7.08-4.14-10.53,19.21-6.46,5.32-2.53,.3-19.99,1.12-9.26-20.57-3.74c-.69,3.91-1.12,6.71-1.29,8.39l-.41,1.53,11.93,.33,.11,8.77-.9,10-15.72-.94-.72,2.68-7.23,17.31-7.08,4.52-8.89,.07-7.33-3.74-6.59-3.95,3.06-4.78,3.25-8.55,4.36,1.58,3.23,.18,3.19-6.79-17.76-1.48,.32-7.83,.22-9.5,22.05,1.27,2.55-12.56-20.89-3.55,2.05-7.64,2.15-10.07,19.52,3.59c.07-.25,.07-.44,0-.54l.5-9.01-10.13-.39,.06-11.45,.26-7.58,13.46,.74,16.08-1.42,12.56-3.05m0-12c-.95,0-1.9,.11-2.83,.34l-11.68,2.84-14.33,1.27-12.6-.69c-.22-.01-.44-.02-.66-.02-2.99,0-5.88,1.12-8.1,3.15-2.38,2.18-3.78,5.22-3.89,8.45l-.26,7.58c0,.11,0,.22,0,.34l-.03,6.06c-4.68,.82-8.61,4.4-9.66,9.31l-2.09,9.77-1.97,7.35c-.75,2.78-.46,5.72,.77,8.29-.35,.26-.69,.54-1.02,.84-2.39,2.21-3.79,5.29-3.86,8.54l-.22,9.39-.32,7.73c-.17,4.15,1.79,7.91,4.92,10.2l-2.35,3.68c-1.75,2.73-2.31,6.05-1.57,9.21,.74,3.16,2.73,5.88,5.51,7.55l6.59,3.95c.23,.14,.47,.27,.72,.4l7.33,3.74c1.69,.86,3.56,1.31,5.45,1.31,.03,0,.07,0,.1,0l8.89-.07c2.25-.02,4.46-.67,6.36-1.88l3.67-2.34,1.11,3.18c1.72,4.93,6.35,8.05,11.33,8.05,1.13,0,2.28-.16,3.42-.5l13.67-4.06,7.9,10.63c1.43,1.93,3.41,3.38,5.67,4.17l11.74,4.1c1.29,.45,2.62,.67,3.96,.67,2.08,0,4.16-.54,6-1.61l9.21-5.32c1.25-.72,2.37-1.67,3.29-2.79l5.68-6.94c.87-1.07,1.55-2.27,2.02-3.57l3.29-9.22c1.65-4.61,.32-9.76-3.34-13.01l-5.69-5.05-.79-.96,2.28-1.77c2.64-2.06,4.3-5.12,4.58-8.46,.08-.99,.04-1.97-.11-2.93,1.13-.36,2.21-.88,3.2-1.57,2.68-1.85,4.49-4.71,5.02-7.92l1.73-10.47,1.52-8.2c.11-.58,.17-1.17,.19-1.75l.6-.32c5.73-3.09,7.95-10.19,5-16l-6.35-12.49c-.3-.58-.64-1.14-1.03-1.67l-8.01-10.88c-2.33-3.17-5.96-4.89-9.67-4.89-1.93,0-3.89,.47-5.69,1.44l-.12,.06c-.34-2.41-1.4-4.69-3.09-6.5-2.22-2.4-5.33-3.78-8.6-3.84l-8.56-.14-8.08-1.81c-.87-.19-1.75-.29-2.62-.29-1.44,0-2.88,.26-4.23,.77-.74-.91-1.62-1.71-2.62-2.37-1.99-1.33-4.31-2.02-6.66-2.02h0Z" fill="#171717"/>
      </g>
      <g>
        <path d="M109.52,473.33c-.62,0-1.25-.1-1.85-.29l-9.8-3.17c-.22-.07-.43-.15-.64-.25l-10.22-4.65c-2.76-1.26-4.15-4.38-3.23-7.28l6.08-19.15,4.18-15.07-23.34,11.26c-.84,.4-1.73,.6-2.6,.6-2.03,0-3.99-1.03-5.12-2.86l-5.51-8.99c-.25-.41-.45-.85-.6-1.31l-3.5-10.9c-.94-2.94,.51-6.12,3.35-7.34l22.25-9.55,22.24-12.21,7.14-5.46-1.03-.28-30.41-5.98c-3-.59-5.07-3.34-4.82-6.38l.72-8.82c.02-.26,.06-.51,.11-.77l2.19-10.2c.34-1.58,1.3-2.96,2.67-3.82,.96-.61,2.07-.92,3.2-.92,.47,0,.94,.05,1.41,.17l30.27,7.29,42.25,10.77,32.03,8.72c1.56,.42,2.88,1.46,3.66,2.86,.79,1.41,.97,3.07,.52,4.62l-3.12,10.63c-.11,.38-.26,.75-.45,1.11l-4.16,7.9c-1.06,2.01-3.13,3.2-5.31,3.2-.59,0-1.18-.09-1.77-.27l-29.45-9.08c-.14,1.71-1,3.35-2.51,4.42l-3.72,2.64c1.19,.21,2.33,.77,3.23,1.69,0,0,10.94,11.05,10.98,11.09l15.58,16.74c.16,.17,.31,.35,.45,.54l7.6,10.36c1.9,2.59,1.42,6.21-1.07,8.22l-9.41,7.58c-.28,.22-.57,.42-.88,.59l-7.36,4.04c-.91,.5-1.9,.74-2.88,.74-1.74,0-3.45-.76-4.63-2.18l-13.05-15.78-10.64-10.97-1.24-1.16-3.4,11.28-6.25,22.82-2.35,8.76c-.43,1.59-1.48,2.93-2.93,3.72-.89,.48-1.88,.73-2.87,.73Z" fill="#17f700"/>
        <path d="M80.99,345.55l30.27,7.29,42.17,10.75,31.94,8.69-3.12,10.63-4.16,7.9-37.08-11.44-6.75-1.81,6.62,9.42-16.35,11.59,4.22,2.09-4.2,13.62,8.17-8.6,6.87-5.26,10.85,10.96,15.59,16.74,7.6,10.36-9.4,7.58-7.36,4.03-13.2-15.96-10.91-11.25-8.41-7.85-6.2,20.59-6.27,22.9-2.35,8.79-9.8-3.17-10.22-4.65,6.11-19.25,7.9-28.47-5.94,3.32-29.48,14.22-5.51-8.99-3.5-10.9,22.52-9.67,22.89-12.57,17.18-13.15-12.99-3.48-30.61-6.02,.72-8.82,2.19-10.2m0-12c-2.24,0-4.46,.63-6.39,1.84-2.74,1.72-4.66,4.48-5.34,7.64l-2.19,10.2c-.11,.51-.18,1.02-.23,1.53l-.72,8.82c-.5,6.09,3.65,11.58,9.65,12.76l17.38,3.42-16.8,9.23-21.99,9.44c-5.68,2.44-8.58,8.8-6.69,14.69l3.5,10.9c.29,.91,.7,1.79,1.2,2.61l5.51,8.99c2.25,3.67,6.18,5.73,10.24,5.73,1.75,0,3.53-.39,5.21-1.19l11.41-5.5-.61,2.2-6.05,19.04c-1.84,5.79,.94,12.04,6.47,14.56l10.22,4.65c.42,.19,.84,.35,1.27,.49l9.8,3.17c1.21,.39,2.45,.58,3.69,.58,1.98,0,3.96-.49,5.73-1.46,2.89-1.57,5.01-4.26,5.86-7.44l2.35-8.76,6.22-22.72,.46-1.52,4.58,4.73,12.9,15.6c2.35,2.84,5.77,4.35,9.25,4.35,1.96,0,3.94-.48,5.76-1.48l7.36-4.03c.62-.34,1.21-.74,1.76-1.18l9.4-7.58c4.99-4.03,5.94-11.27,2.15-16.44l-7.6-10.36c-.28-.38-.58-.74-.9-1.08l-15.59-16.74c-.08-.09-.17-.18-.25-.26l-7.81-7.89,23.37,7.21c1.17,.36,2.36,.53,3.54,.53,4.36,0,8.49-2.38,10.61-6.4l4.16-7.9c.37-.71,.67-1.45,.9-2.22l3.12-10.63c.91-3.09,.53-6.42-1.04-9.24-1.57-2.81-4.21-4.88-7.32-5.72l-31.94-8.69c-.06-.02-.12-.03-.19-.05l-42.17-10.75c-.05-.01-.1-.03-.16-.04l-30.27-7.29c-.93-.22-1.87-.33-2.81-.33h0Z" fill="#171717"/>
      </g>
      <g>
        <path d="M332.92,476.48c-.97,0-1.94-.24-2.81-.7-1.45-.77-2.52-2.1-2.96-3.69l-13.92-49.93-6.91-25.79c-.8-2.98,.79-6.07,3.67-7.17l2.22-.84c-.2-.28-.38-.59-.54-.91l-4.03-8.5-3.06-5.9c-1.51-2.92-.39-6.52,2.51-8.06l7.77-4.13c.31-.16,.62-.3,.95-.41l23.22-7.59c.14-.05,.29-.09,.43-.12l18.7-4.6c.47-.12,.95-.17,1.43-.17,1.12,0,2.23,.31,3.19,.92,.24,.15,.46,.31,.67,.49,.63-.54,1.37-.95,2.17-1.19l12.25-3.69c.09-.03,.18-.05,.27-.07l24.56-6.17c.17-.04,.33-.08,.5-.1l10.34-1.68c.32-.05,.64-.08,.96-.08,.51,0,1.03,.07,1.53,.2l6.17,1.62c2.08,.55,3.71,2.17,4.27,4.25,0,0,1.76,6.58,1.77,6.63,0,0,4.15,17.04,4.17,17.1l6.12,28.94c.67,3.15-1.27,6.26-4.39,7.05l-10.1,2.57-9.08,2.16c-.47,.11-.93,.16-1.39,.16-.57,0-1.12-.08-1.66-.23l-3.04,.74,4.67,18.58c.02,.07,.36,1.67,.36,1.67l4.11-.74,6.4-2.48-.82-8.11c-.21-2.04,.65-4.05,2.26-5.32,1.07-.84,2.38-1.29,3.71-1.29,.67,0,1.34,.11,1.99,.34l11.52,4.05,6.53,1.34c2.51,.51,4.41,2.56,4.75,5.09l.65,4.92,1.88,11.56c.34,2.12-.48,4.27-2.15,5.63l-6.06,4.9c-.52,.42-1.11,.75-1.74,.98l-16.18,5.84c-.22,.08-.45,.15-.68,.2l-22.24,5.14c-.44,.1-.9,.15-1.35,.15-.31,0-.61-.02-.92-.07l-8.11-1.25c-.02,1.13-.36,2.25-1,3.21-.94,1.42-2.43,2.37-4.11,2.62l-14.97,2.24c-.3,.04-.6,.07-.89,.07-1.7,0-3.29-.72-4.4-1.93l-6.39,1.48-11.24,2.88-11.11,4.17c-.47,.18-.95,.29-1.44,.34l-7.07,2.36c-.62,.21-1.26,.31-1.9,.31Zm41.44-99.2c1.77,.72,3.1,2.24,3.56,4.1l.67,2.66,9.36-1.97,8.74-2.61,5.52-1.62-.88-3.91-.95-3.93-11.73,3.14-11.52,3.76c-.61,.2-1.24,.3-1.86,.3-.57,0-1.13-.08-1.67-.24l.77,.31Zm-6.19-2.49c.18,.05,.35,.12,.52,.18l3.75,1.52c-.94-.5-1.75-1.25-2.32-2.21l-1.16-1.93c-.09,.87-.36,1.7-.79,2.43Z" fill="#17f700"/>
        <path d="M414.51,342.4l6.17,1.62,1.74,6.5,4.12,16.92,6.12,28.94-10.1,2.57-8.98,2.13-.21-.76-11.28,2.75-.51,.14,6.14,24.43,1.08,5.04,1.47,1.93,9.38-1.69,9.15-3.54,1.84-2.81-1.07-10.63,11.91,4.18,6.93,1.42,.66,5.01,1.89,11.64-6.06,4.9-16.18,5.84-22.24,5.14-8.4-1.3-4.94-2.64-1.78-8.67-8.13-30.86-5.83-19.19s.11,.04,.19,.04c.12,0,.28-.03,.48-.08l-.53-.95,11.89-2.5,8.98-2.68,10.89-3.19-2.11-9.4-2.41-10-17.83,4.78-11.68,3.81-3.46-5.76-4.45-11.51,12.25-3.69,24.56-6.17,10.34-1.68m-54.92,11.58l2.02,9.56,1.39,8.23-12.59,2.96,2.12,7.9,7.46-1.72,6.46-.36,5.67,2.3,5.97,23.8,13.38,51.98-14.97,2.24-.79-2.93-11.44,2.66-11.63,2.98-11.41,4.29-.03-.13-8.27,2.76-13.92-49.93-6.89-25.73,7.44-2.81,6.71-2.48,.14,.51,2.99-1.07-2.01-7.52-10.27,3.44-4.08-8.6-3.11-5.99,7.77-4.13,23.22-7.59,18.7-4.6m-18.89,31.41l1.66-.44-.21-.76-1.84-6.88-5.32,1.56,4.36,.47,1.35,6.06m19.79,23.92l1.36-1.05,1.89,4-3.38-12.61-3.41,.51,.72,2.68,2.83,6.48m-12.69,19.38l-6.48-1.27-4.75-.91,2.34,7.7,4.81-1.42,9.83-3.04,9.65-2.72c1.87-.5,3.28-.83,4.24-1l-.96-3.57-4.52,1.48-5.65-1.22-3.37-2.37-4.46-12.05-1.74-6.5-2.26,.74,2.52,10.93,.8,15.21m-12.02-5.11l-.24-8.54-1.9-8.64-2.48,.94,1.84,6.88,2.78,9.36m8.18,27.98l4.87-1.71,9.45-2.94,7.97-1.86,5.7-1.66-.89-3.31-6.03,.93-15.38,4.26-6.64,2.73,.96,3.57m70.56-121.15c-.64,0-1.28,.05-1.92,.16l-10.34,1.68c-.34,.05-.67,.12-1,.21l-24.56,6.17c-.18,.05-.36,.09-.54,.15l-12.25,3.69c-.16,.05-.32,.1-.47,.15-1.24-.42-2.53-.63-3.84-.63-.96,0-1.92,.11-2.87,.35l-18.7,4.6c-.29,.07-.58,.15-.86,.25l-23.22,7.59c-.66,.21-1.29,.49-1.91,.81l-7.77,4.13c-5.81,3.09-8.05,10.28-5.02,16.12l3.01,5.8,1.97,4.15c-3.37,2.93-4.93,7.62-3.71,12.16l6.89,25.73s.02,.08,.03,.12l13.92,49.93c.88,3.17,3.03,5.83,5.93,7.37,1.75,.93,3.69,1.4,5.63,1.4,1.28,0,2.56-.2,3.8-.62l6.58-2.2c.73-.13,1.44-.32,2.14-.59l10.8-4.06,10.86-2.78,3.64-.84c1.73,.94,3.69,1.46,5.73,1.46,.59,0,1.18-.04,1.78-.13l14.97-2.24c3.3-.49,6.25-2.34,8.13-5.09l3.29,.51c.61,.09,1.22,.14,1.83,.14,.91,0,1.81-.1,2.7-.31l22.24-5.14c.46-.11,.92-.24,1.37-.4l16.18-5.84c1.26-.45,2.43-1.12,3.47-1.96l6.06-4.9c3.35-2.71,4.99-7,4.3-11.25l-1.86-11.47-.64-4.83c-.67-5.07-4.48-9.16-9.49-10.19l-6.13-1.25-5.61-1.97c4.14-2.61,6.4-7.6,5.34-12.63l-6.12-28.94c-.03-.12-.05-.24-.08-.36l-4.12-16.92c-.02-.09-.04-.18-.07-.26l-1.74-6.5c-1.11-4.16-4.37-7.4-8.54-8.5l-6.17-1.62c-1-.26-2.03-.4-3.05-.4h0Zm1.85,82.36l1.75-.42c-.48,1.52-.65,3.14-.48,4.78l.12,1.16-1.39-5.52h0Z" fill="#171717"/>
      </g>
    </g>
  </g>
</svg>